<svg width="1162" height="1152" viewBox="0 0 1162 1152" fill="none" xmlns="http://www.w3.org/2000/svg">
<path d="M188.381 539.964C222.314 325.367 453.143 126.901 659.503 153.539C865.863 180.177 1047.75 431.919 1013.82 646.516C979.889 861.114 730.134 1038.57 523.774 1011.93C317.413 985.29 154.449 754.562 188.381 539.964Z" fill="#F8AFBD" fill-opacity="0.07"/>
<path d="M74.6853 538.355C106.623 336.385 383.824 178.471 612.296 207.962C839.987 237.352 1019.73 454.248 987.791 656.217C955.853 858.186 712.238 1045.23 484.547 1015.84C256.075 986.348 42.7481 740.324 74.6853 538.355Z" fill="#F8AFBD" fill-opacity="0.14"/>
<path d="M167.658 558.57C202.571 337.787 430.417 169.003 657.158 198.27C884.678 227.637 1112.65 455.255 1077.74 676.038C1042.83 896.821 745.026 1110.77 517.505 1081.4C290.764 1052.14 132.744 779.353 167.658 558.57Z" fill="#F8AFBD" fill-opacity="0.21"/>
<path d="M165.727 522.061C202.846 287.222 436.199 76.1772 633.75 101.688C830.522 127.098 992.27 389.164 955.152 624.004C918.033 858.843 681.928 1067.21 485.155 1041.8C287.605 1016.29 128.609 756.901 165.727 522.061Z" fill="#F8AFBD" fill-opacity="0.28"/>
<path d="M139.73 515.483C171.754 312.964 408.823 140.781 609.793 166.722C811.542 192.763 977.973 417.029 945.948 619.549C914.044 821.31 683.565 1002.08 481.816 976.042C280.845 950.101 107.825 717.245 139.73 515.483Z" fill="#F8AFBD" fill-opacity="0.35"/>
<path d="M150.103 488.991C182.864 281.818 416.103 84.2591 635.883 112.627C854.884 140.894 1059.65 394.987 1026.88 602.161C994.123 809.334 724.079 968.07 505.078 939.803C285.298 911.435 117.341 696.164 150.103 488.991Z" fill="#F8AFBD" fill-opacity="0.42"/>
<path d="M121.499 497.887C160.08 253.85 405.962 39.6711 624.637 67.9037C842.534 96.0358 1033.22 366.579 994.643 610.616C956.063 854.653 687.971 1073.7 470.074 1045.57C251.399 1017.33 82.9186 741.923 121.499 497.887Z" fill="#F8AFBD" fill-opacity="0.49"/>
</svg>
