<svg width="19" height="19" viewBox="0 0 19 19" fill="none" xmlns="http://www.w3.org/2000/svg">
<g clip-path="url(#clip0_129_60)">
<path d="M9.11392 0C4.08049 0 0 4.08049 0 9.11392C0 13.388 2.9427 16.9745 6.91236 17.9595V11.8991H5.03307V9.11392H6.91236V7.9138C6.91236 4.81179 8.31627 3.37397 11.3618 3.37397C11.9392 3.37397 12.9356 3.48735 13.3431 3.60036V6.12492C13.1281 6.10232 12.7544 6.09102 12.2903 6.09102C10.796 6.09102 10.2185 6.65717 10.2185 8.12889V9.11392H13.1955L12.684 11.8991H10.2185V18.1611C14.7314 17.6161 18.2282 13.7737 18.2282 9.11392C18.2278 4.08049 14.1474 0 9.11392 0Z" fill="white"/>
</g>
<defs>
<clipPath id="clip0_129_60">
<rect width="18.2278" height="18.2278" fill="white"/>
</clipPath>
</defs>
</svg>
