<svg width="303" height="237" viewBox="0 0 303 237" fill="none" xmlns="http://www.w3.org/2000/svg">
<path d="M68.1997 29.4753C95.7947 5.24879 137.589 -2.56619 172.89 9.15629C200.891 18.5343 223.612 38.8493 240.656 61.9035C257.695 85.3444 269.058 111.525 280.421 137.701C285.696 149.814 291.377 162.709 292.595 175.994C293.812 189.276 290.566 203.734 280.826 213.112C262.565 230.305 232.539 223.662 208.191 216.238C184.252 208.813 160.716 200.998 136.777 193.574C103.907 183.028 40.609 167.007 30.058 129.499C21.536 97.8484 44.667 49.7902 68.1997 29.4753ZM20.3186 217.801C28.4347 222.49 40.2032 217.801 44.667 209.595C49.1309 200.608 45.4787 188.494 36.9567 183.419C10.5792 167.398 0.839821 206.469 20.3186 217.801ZM263.377 38.8493C271.493 43.5382 283.261 38.8493 287.725 30.6475C292.189 21.6603 288.537 9.54704 280.015 4.4673C253.641 -11.5534 243.902 27.5215 263.377 38.8493Z" fill="#FEEBEE"/>
<mask id="mask0_3_327" style="mask-type:luminance" maskUnits="userSpaceOnUse" x="0" y="9" width="303" height="228">
<path d="M0.856934 9.96295H302.947V236.568H0.856934V9.96295Z" fill="white"/>
</mask>
<g mask="url(#mask0_3_327)">
<path d="M211.881 236.855C205.794 236.855 199.306 236.465 192.408 235.295C148.995 228.668 107.201 212.286 71.4974 187.713C70.6858 186.933 70.2801 185.763 71.0916 184.983C71.9031 184.203 73.1205 183.813 73.932 184.593C109.23 208.776 150.618 225.158 193.22 231.398C217.156 234.905 234.198 232.178 245.154 222.817C263.409 206.825 258.134 177.966 253.269 161.974C243.531 129.214 226.083 98.4002 203.364 72.271C184.698 51.2085 154.266 24.2992 114.099 16.1082C76.3666 8.6973 37.417 21.5689 17.5343 48.0881C6.57859 62.5198 2.52091 82.4122 6.17282 101.131C9.41897 117.512 18.7516 130.774 31.7362 138.961C32.5478 139.351 32.9535 140.911 32.5478 141.691C32.142 142.472 30.5189 142.862 29.7074 142.472C15.5055 133.894 5.76706 119.463 2.52091 102.301C-1.53263 82.8023 2.92668 61.7397 14.2882 46.5279C34.9824 18.8385 75.5551 5.18687 114.91 12.9878C155.889 21.1788 187.133 48.8682 206.2 70.3208C229.329 96.84 246.777 128.044 256.921 161.194C261.786 177.966 267.467 208.776 247.588 225.938C239.067 233.345 227.3 236.855 211.881 236.855ZM44.7208 234.905C50.3974 233.345 55.2667 229.448 57.7013 224.377C62.5705 214.626 58.9186 201.365 49.1843 195.514C39.8516 190.053 33.3593 191.223 29.3016 193.174C23.2151 196.294 19.5632 203.315 19.1574 211.506C18.7516 220.867 23.2151 229.058 30.5189 233.345C32.9535 234.905 35.7939 235.685 39.0401 235.685C41.0689 235.685 42.692 235.295 44.7208 234.905ZM47.1554 199.024C54.8609 203.705 58.107 214.626 54.0493 222.817C52.0205 226.718 47.967 229.838 43.5035 231.398C39.4458 232.568 35.7939 232.178 32.9535 230.228C25.6497 225.938 23.6209 218.137 23.6209 211.896C24.0266 204.875 26.867 199.414 31.3305 196.684C32.9535 195.904 34.5766 195.514 36.6054 195.514C39.8516 195.514 43.0977 196.684 47.1554 199.024ZM287.755 56.2791C293.436 54.7189 298.305 50.8184 300.74 45.7478C305.609 35.9966 301.957 22.739 292.219 16.8883C282.886 11.4276 276.394 12.5978 272.336 14.548C266.25 17.6684 262.598 24.6892 262.192 32.8802C261.786 42.2374 266.25 50.4284 273.553 54.7189C275.988 56.2791 278.828 57.0592 282.075 57.0592C284.103 57.0592 286.132 56.6691 287.755 56.2791ZM290.19 20.3987C297.9 25.0793 301.146 35.9966 297.088 44.1876C295.059 48.0881 291.001 51.2085 286.538 52.7686C282.48 53.9388 278.828 53.5487 275.988 51.5985C268.684 47.308 266.655 39.507 266.655 33.2703C267.061 26.2494 269.902 20.7888 274.365 18.0584C275.988 17.2783 277.611 16.8883 279.64 16.8883C282.886 16.8883 286.538 18.0584 290.19 20.3987Z" fill="#FF98A9"/>
</g>
<path d="M85.7122 139.777C85.683 139.78 85.6539 139.369 85.5129 138.642C85.3698 137.918 85.1343 136.866 84.6106 135.655C84.0973 134.447 83.2937 133.062 82.0421 131.865C80.8113 130.666 79.0013 129.773 77.0113 129.766C75.02 129.758 73.2037 130.64 71.966 131.832C70.7081 133.022 69.8983 134.404 69.3808 135.61C68.8523 136.819 68.6133 137.87 68.4675 138.594C68.3244 139.32 68.2938 139.731 68.2647 139.728C68.2549 139.728 68.257 139.625 68.2695 139.429C68.2792 139.232 68.3042 138.944 68.3612 138.576C68.4751 137.841 68.687 136.771 69.2002 135.533C69.7024 134.3 70.5074 132.88 71.791 131.644C73.0537 130.407 74.9408 129.478 77.0113 129.487C79.0819 129.493 80.9614 130.435 82.2171 131.679C83.4945 132.92 84.2925 134.343 84.7905 135.579C85.299 136.818 85.5073 137.889 85.6185 138.624C85.674 138.993 85.6983 139.281 85.7074 139.478C85.7199 139.674 85.7212 139.777 85.7122 139.777Z" fill="#455A64"/>
<path d="M88.7242 139.777C88.695 139.78 88.6658 139.369 88.5248 138.642C88.3818 137.918 88.1463 136.866 87.6226 135.655C87.1093 134.447 86.3057 133.062 85.0541 131.865C83.8233 130.666 82.0133 129.773 80.0233 129.766C78.032 129.758 76.2157 130.64 74.978 131.832C73.7201 133.022 72.9102 134.404 72.3928 135.61C71.8642 136.819 71.6253 137.87 71.4794 138.594C71.3364 139.32 71.3058 139.731 71.2766 139.728C71.2669 139.728 71.269 139.625 71.2815 139.429C71.2912 139.232 71.3162 138.944 71.3732 138.576C71.4871 137.841 71.6989 136.771 72.2122 135.533C72.7151 134.3 73.5194 132.88 74.8029 131.644C76.0657 130.407 77.9528 129.478 80.024 129.487C82.0945 129.493 83.974 130.435 85.2298 131.679C86.5071 132.92 87.3052 134.343 87.8032 135.579C88.3116 136.818 88.52 137.889 88.6311 138.624C88.6867 138.993 88.711 139.281 88.72 139.478C88.7318 139.674 88.7339 139.777 88.7242 139.777Z" fill="#455A64"/>
<path d="M59.6442 138.695L93.6663 138.435L94.4088 185.084H56.2297L59.6442 138.695Z" fill="#EBEBEB"/>
<path d="M93.6663 138.435H97.9379L101.615 185.084H94.4088L93.6663 138.435Z" fill="#E0E0E0"/>
<path d="M86.4565 156.801H64.1824V160.554H86.4565V156.801Z" fill="white"/>
<path d="M70.1992 150.733C70.1228 150.753 70.1131 149.001 69.188 146.48C68.7226 145.235 67.9961 143.807 66.8667 142.575C65.7561 141.34 64.1259 140.422 62.334 140.415C60.5406 140.406 58.9049 141.313 57.788 142.54C56.6531 143.766 55.9203 145.19 55.4515 146.433C54.518 148.949 54.5034 150.701 54.427 150.68C54.4166 150.68 54.4173 150.573 54.427 150.37C54.4339 150.168 54.4555 149.869 54.5055 149.487C54.6055 148.727 54.7951 147.619 55.2577 146.337C55.7106 145.06 56.4378 143.588 57.6005 142.307C58.7444 141.024 60.4565 140.059 62.336 140.069C64.2148 140.074 65.92 141.053 67.0577 142.343C68.2142 143.63 68.9358 145.105 69.3845 146.384C69.8422 147.667 70.0291 148.776 70.1263 149.537C70.1749 149.919 70.1958 150.217 70.202 150.421C70.2097 150.625 70.209 150.731 70.1992 150.733Z" fill="#263238"/>
<path d="M72.9225 150.733C72.8461 150.753 72.8363 149.001 71.9112 146.48C71.4458 145.235 70.7193 143.807 69.5899 142.575C68.4793 141.34 66.8492 140.422 65.0565 140.415C63.2631 140.406 61.6274 141.313 60.5105 142.54C59.3756 143.766 58.6428 145.19 58.174 146.433C57.2405 148.949 57.2259 150.701 57.1495 150.68C57.1391 150.68 57.1391 150.573 57.1488 150.37C57.1558 150.168 57.1773 149.869 57.2273 149.487C57.3273 148.727 57.5169 147.619 57.9795 146.337C58.4324 145.06 59.1596 143.588 60.3223 142.307C61.4662 141.024 63.1784 140.059 65.0579 140.069C66.9367 140.074 68.6418 141.053 69.7795 142.343C70.936 143.63 71.6577 145.105 72.1063 146.384C72.5641 147.667 72.7509 148.776 72.8482 149.537C72.8968 149.919 72.9176 150.217 72.9239 150.421C72.9329 150.625 72.9329 150.731 72.9225 150.733Z" fill="#263238"/>
<path d="M45.2703 148.888L76.0285 148.673L76.6995 187.062H42.1836L45.2703 148.888Z" fill="#455A64"/>
<path d="M76.0288 148.673H79.8899L83.2148 187.062H76.6998L76.0288 148.673Z" fill="#455A64"/>
<g opacity="0.3">
<path d="M76.0288 148.673H79.8899L83.2148 187.062H76.6998L76.0288 148.673Z" fill="black"/>
</g>
<path d="M70.7832 161.713H50.6462V165.592H70.7832V161.713Z" fill="white"/>
<path d="M255.267 140.59C255.212 140.605 255.205 139.354 254.546 137.555C254.214 136.666 253.695 135.648 252.889 134.768C252.097 133.887 250.933 133.232 249.654 133.226C248.374 133.221 247.207 133.868 246.409 134.743C245.6 135.618 245.077 136.634 244.742 137.521C244.076 139.318 244.065 140.568 244.01 140.554C244.003 140.553 244.003 140.477 244.01 140.332C244.015 140.187 244.031 139.974 244.066 139.702C244.137 139.159 244.273 138.368 244.603 137.454C244.926 136.542 245.445 135.492 246.275 134.578C247.091 133.662 248.313 132.973 249.655 132.98C250.996 132.984 252.213 133.682 253.024 134.603C253.85 135.522 254.365 136.574 254.685 137.487C255.012 138.403 255.145 139.195 255.214 139.738C255.249 140.01 255.264 140.223 255.269 140.368C255.275 140.513 255.275 140.589 255.267 140.59Z" fill="#263238"/>
<path d="M257.211 140.59C257.156 140.605 257.149 139.354 256.489 137.555C256.157 136.666 255.638 135.648 254.832 134.768C254.04 133.887 252.876 133.232 251.597 133.226C250.318 133.221 249.15 133.868 248.353 134.743C247.543 135.618 247.02 136.634 246.685 137.521C246.019 139.318 246.009 140.568 245.954 140.554C245.946 140.553 245.947 140.477 245.954 140.332C245.959 140.187 245.974 139.974 246.01 139.702C246.082 139.159 246.217 138.368 246.547 137.454C246.87 136.542 247.389 135.492 248.219 134.578C249.036 133.662 250.257 132.973 251.599 132.98C252.94 132.984 254.157 133.682 254.969 134.603C255.794 135.522 256.309 136.574 256.629 137.487C256.956 138.403 257.089 139.195 257.158 139.738C257.193 140.01 257.208 140.223 257.213 140.368C257.218 140.513 257.218 140.589 257.211 140.59Z" fill="#263238"/>
<path d="M237.476 139.274L259.428 139.12L259.907 166.518H235.273L237.476 139.274Z" fill="#455A64"/>
<path d="M259.427 139.12H262.183L264.556 166.518H259.907L259.427 139.12Z" fill="#455A64"/>
<g opacity="0.3">
<path d="M259.427 139.12H262.183L264.556 166.518H259.907L259.427 139.12Z" fill="black"/>
</g>
<path d="M255.685 148.427H241.313V151.195H255.685V148.427Z" fill="white"/>
<path d="M106.89 104.252C108.054 104.618 119.043 114.605 118.779 114.998C118.514 115.391 118.297 118.711 116.238 118.502C111.441 118.016 108.671 114.113 108.194 113.597C105.229 110.384 102.666 111.986 102.657 110.145C102.647 108.304 106.89 104.252 106.89 104.252Z" fill="#A56047"/>
<path d="M47.9509 77.6488C53.1132 80.5226 87.0653 102.488 91.1037 105.712C95.1418 108.937 103.853 121.677 103.853 121.677L106.772 117.413C106.772 117.413 105.707 109.998 105.208 106.144C105.208 106.144 110.431 108.356 113.138 110.911C115.845 113.467 117.834 118.592 117.834 118.592C117.834 118.592 120.667 112.97 121.095 112.946C121.522 112.921 115.519 102.618 111.433 98.5334C107.347 94.449 98.3375 91.7908 95.4711 89.0757C92.6044 86.3606 61.6604 61.9263 61.6604 61.9263C61.6604 61.9263 47.7161 65.1312 47.7397 65.5612C47.7637 65.9915 47.9509 77.6488 47.9509 77.6488Z" fill="#C77D5D"/>
<path d="M102.597 121.744C102.679 117.845 106.176 115.88 109.689 115.717C111.568 115.63 113.646 115.929 115.537 116.641C115.663 114.989 116.266 113.356 117.17 111.993C118.697 109.691 121.688 107.426 124.605 108.199C127.565 108.984 128.637 112.58 129.149 115.243C129.744 118.333 129.573 121.529 128.857 124.584C128.126 127.698 126.873 130.783 125.197 133.505C124.769 134.199 124.251 134.727 123.398 134.794C122.621 134.856 121.775 134.705 121.004 134.609C119.391 134.406 117.794 134.063 116.239 133.585C113.073 132.612 110.116 131.23 107.392 129.332C104.89 127.589 102.529 125.013 102.597 121.744Z" fill="#FF848F"/>
<path d="M105.303 106.57C105.303 106.57 106.773 115.042 108.231 118.124C109.688 121.206 110.947 123.292 109.016 124.55C107.084 125.809 100.243 117.85 96.0654 111.112L105.303 106.57Z" fill="#C77D5D"/>
<path d="M105.648 120.859C105.704 120.592 105.895 120.293 106.131 120.15C106.219 120.106 106.307 120.063 106.395 120.02C106.592 119.954 106.793 119.943 106.997 119.986C107.206 120.008 107.531 120.181 107.686 120.321C107.822 120.443 107.918 120.598 108.019 120.747L108.31 121.175C108.408 121.318 108.507 121.459 108.601 121.603C108.752 121.833 108.808 122.075 108.875 122.334C108.98 122.746 108.896 123.153 108.567 123.439C108.426 123.562 108.277 123.634 108.094 123.669C107.883 123.71 107.623 123.701 107.433 123.584C107.365 123.541 107.296 123.498 107.228 123.456C107.193 123.435 107.159 123.414 107.125 123.392C106.868 123.23 106.834 123.198 106.643 122.961C106.531 122.82 106.42 122.677 106.308 122.535C106.197 122.393 106.085 122.252 105.973 122.11C105.888 122.002 105.825 121.914 105.763 121.788C105.626 121.506 105.584 121.169 105.648 120.859Z" fill="#F4A88E"/>
<path d="M104.689 105.966C105.163 105.68 105.85 106.062 106.326 106.229C106.956 106.45 107.575 106.7 108.179 106.983C109.337 107.526 110.439 108.186 111.463 108.956C112.417 109.672 113.28 110.494 114.052 111.406C114.775 112.261 115.682 113.364 115.934 114.481C115.98 114.682 115.752 114.787 115.622 114.635C115.264 114.218 115.02 113.707 114.704 113.257C114.354 112.758 113.986 112.271 113.583 111.814C112.832 110.962 111.982 110.196 111.078 109.513C110.133 108.798 109.108 108.189 108.04 107.678C107.405 107.375 106.754 107.105 106.089 106.876C105.938 106.824 105.751 106.783 105.56 106.736C105.679 107.129 105.718 107.559 105.801 107.956C105.918 108.516 106.035 109.074 106.15 109.634C106.388 110.794 106.641 111.951 106.93 113.1C107.219 114.243 107.544 115.378 107.927 116.494C108.112 117.032 108.314 117.562 108.523 118.09C108.697 118.529 109.061 119.042 108.928 119.518C108.919 119.551 108.887 119.567 108.856 119.553C108.446 119.372 108.321 118.865 108.147 118.474C107.917 117.954 107.714 117.423 107.52 116.889C107.089 115.704 106.727 114.495 106.406 113.277C106.095 112.093 105.821 110.9 105.562 109.704C105.432 109.106 105.314 108.505 105.196 107.905C105.109 107.469 104.962 106.994 105.01 106.546C104.852 106.468 104.717 106.367 104.637 106.224C104.59 106.14 104.599 106.021 104.689 105.966Z" fill="#A56047"/>
<path d="M106.484 111.974C106.672 111.942 106.801 112.082 106.936 112.193C107.102 112.329 107.265 112.467 107.427 112.608C107.742 112.884 108.048 113.168 108.346 113.463C108.632 113.745 108.912 114.034 109.174 114.339C109.313 114.501 109.45 114.666 109.584 114.832C109.687 114.96 109.899 115.136 109.887 115.31C109.883 115.375 109.839 115.418 109.773 115.409C109.604 115.385 109.49 115.169 109.383 115.048C109.247 114.896 109.11 114.745 108.97 114.597C108.683 114.293 108.397 113.988 108.098 113.695C107.807 113.408 107.508 113.131 107.2 112.863C107.046 112.729 106.89 112.597 106.732 112.468C106.591 112.352 106.424 112.257 106.41 112.057C106.407 112.011 106.443 111.981 106.484 111.974Z" fill="#894E3D"/>
<path d="M106.016 108.581C107.621 109.388 109.281 110.304 110.585 111.56C111.174 112.127 111.704 112.762 112.157 113.444C112.38 113.78 112.581 114.129 112.762 114.489C112.929 114.818 113.152 115.195 113.17 115.571C113.173 115.646 113.069 115.712 113.013 115.647C112.776 115.375 112.651 114.992 112.484 114.675C112.295 114.319 112.087 113.974 111.864 113.639C111.415 112.965 110.893 112.343 110.308 111.786C109.001 110.542 107.389 109.802 105.856 108.895C105.663 108.781 105.812 108.478 106.016 108.581Z" fill="#894E3D"/>
<path d="M122.383 110.523C122.942 110.083 123.835 110.31 124.382 110.665C124.899 111.002 125.356 111.382 125.71 111.896C126.022 112.35 126.265 112.867 126.448 113.387C126.53 113.619 126.597 113.855 126.654 114.095C126.705 114.315 126.779 114.553 126.785 114.777C126.795 115.099 126.682 115.387 126.563 115.68C126.271 116.399 125.076 116.659 124.547 116.057C124.305 115.781 124.071 115.529 123.99 115.16C123.953 114.995 123.917 114.831 123.872 114.668C123.797 114.4 123.7 114.139 123.59 113.884C123.408 113.54 123.189 113.211 122.944 112.909C122.76 112.717 122.569 112.535 122.392 112.333C122.439 112.386 122.598 112.562 122.456 112.412C122.42 112.374 122.381 112.339 122.345 112.301C122.089 112.032 121.993 111.772 121.938 111.415C121.883 111.056 122.122 110.729 122.383 110.523Z" fill="#FFABB5"/>
<path d="M124.612 119.204C124.643 119.117 124.675 119.03 124.707 118.942C124.728 118.886 124.749 118.828 124.77 118.771C124.811 118.662 124.87 118.571 124.941 118.477C125.006 118.393 125.075 118.313 125.141 118.23C125.288 118.05 125.55 117.976 125.771 118.025C125.884 118.05 125.984 118.101 126.071 118.178C126.157 118.256 126.219 118.35 126.256 118.46C126.301 118.561 126.353 118.661 126.391 118.764C126.453 118.93 126.457 119.127 126.474 119.304C126.479 119.361 126.487 119.419 126.491 119.476C126.504 119.698 126.429 119.892 126.345 120.091C126.244 120.331 126.032 120.518 125.791 120.605C125.643 120.658 125.458 120.686 125.306 120.646C125.168 120.609 125.087 120.562 124.975 120.484C124.808 120.369 124.684 120.212 124.616 120.019C124.584 119.926 124.571 119.808 124.559 119.711C124.555 119.68 124.551 119.648 124.549 119.616C124.539 119.467 124.563 119.34 124.612 119.204Z" fill="#FFABB5"/>
<path d="M69.839 64.5667L89.6184 82.6367C89.6184 82.6367 84.9005 98.5164 82.1785 101.072C68.5724 92.5892 47.3378 79.3511 47.3378 79.3511C47.3378 79.3511 42.7765 71.0704 46.0036 65.212C49.4657 58.9267 53.4725 57.7144 60.4032 59.4559C64.4636 60.4762 69.839 64.5667 69.839 64.5667Z" fill="#305C8B"/>
<path d="M82.3326 94.2389C82.3171 94.1404 82.2696 94.0515 82.2314 93.9602C82.1944 93.8717 82.1632 93.7719 82.1051 93.6927C82.0345 93.5968 81.9497 93.4824 81.8733 93.3912C81.8674 93.3841 81.8616 93.3774 81.8552 93.3706C81.8418 93.3566 81.8272 93.3437 81.812 93.3313C81.7823 93.307 81.5971 93.1459 81.4872 93.0832C81.4793 93.0785 81.4711 93.0747 81.463 93.0706C81.4064 93.0427 81.3148 93.0075 81.2839 92.9943C81.2445 92.9776 81.1643 92.9403 81.1046 92.9186C81.0862 92.9119 81.0675 92.9066 81.0483 92.9031C80.9077 92.877 80.7613 92.8465 80.6164 92.8476C80.4741 92.8488 80.3256 92.8775 80.1909 92.9028C80.1687 92.9069 80.1472 92.9122 80.1262 92.9201C80.1221 92.9215 80.1177 92.9233 80.1136 92.9251C80.0095 92.9653 79.8742 93.0233 79.7721 93.07C79.7625 93.0744 79.7532 93.0788 79.7438 93.0835C79.7237 93.094 79.7048 93.1066 79.6861 93.1198C79.5858 93.1929 79.4788 93.2747 79.384 93.3551C79.3746 93.363 79.3656 93.3712 79.3571 93.3797C79.3484 93.3885 79.3402 93.3973 79.3324 93.4067C79.2522 93.5012 79.1723 93.6091 79.0993 93.7094C79.0851 93.7291 79.0719 93.7493 79.0609 93.771C79.0582 93.7763 79.0556 93.7819 79.053 93.7875C79.0066 93.8978 78.9605 94.0078 78.9145 94.1181C78.8981 94.2407 78.8818 94.3633 78.8652 94.4859C78.8646 94.4971 78.8643 94.5076 78.8649 94.5185C78.8652 94.524 78.8658 94.5296 78.8663 94.5352C78.8678 94.5525 78.871 94.5733 78.873 94.5918C78.8695 94.6176 78.866 94.6437 78.8625 94.6695C78.8806 94.8056 78.899 94.9417 78.9171 95.0781C78.9177 95.0808 78.9185 95.0831 78.9194 95.0858C78.9707 95.2084 79.0221 95.3307 79.0734 95.4533C79.0827 95.4712 79.0929 95.4885 79.1043 95.5049C79.1096 95.5129 79.1151 95.5202 79.1206 95.5278C79.1988 95.6337 79.2877 95.754 79.3723 95.8549C79.3851 95.8702 79.3986 95.8851 79.4128 95.8992C79.4653 95.9499 79.5304 95.9928 79.5852 96.0356C79.6397 96.0781 79.6963 96.1324 79.7599 96.1679C79.8876 96.2395 80.0495 96.2967 80.1682 96.3442C80.3154 96.4031 80.5563 96.4134 80.6657 96.4251C80.6817 96.4269 80.6977 96.4281 80.7138 96.4278C80.7228 96.4275 80.7313 96.4269 80.7403 96.4263C80.8529 96.4169 81.0314 96.3891 81.1436 96.372C81.1486 96.3712 81.1533 96.3706 81.1582 96.37C81.176 96.3671 81.1932 96.3624 81.2101 96.3562C81.2151 96.3544 81.22 96.3524 81.225 96.3503C81.3008 96.3204 81.5076 96.2333 81.5808 96.1993C81.5854 96.1972 81.5904 96.1949 81.5951 96.1925C81.6525 96.1641 81.7033 96.1251 81.7476 96.0752C81.8581 96.0095 81.9462 95.9209 82.0115 95.8097C82.0535 95.7549 82.118 95.6865 82.1524 95.6161C82.1541 95.6126 82.1556 95.6091 82.1573 95.6056C82.2034 95.5058 82.2678 95.3507 82.3075 95.2474C82.3113 95.238 82.3148 95.2286 82.3177 95.2187C82.323 95.2013 82.3268 95.1837 82.3294 95.1659C82.3524 95.0215 82.372 94.8752 82.3862 94.7297C82.388 94.7115 82.3889 94.6933 82.3883 94.6748C82.3845 94.5281 82.355 94.3794 82.3326 94.2389Z" fill="#5588B7"/>
<path d="M79.4812 85.9739C79.5118 85.7437 79.5214 85.6976 79.4663 85.4527C79.4421 85.2999 79.4004 85.1517 79.3208 85.0142C79.2091 84.8244 79.0589 84.673 78.8699 84.5607C78.5964 84.429 78.4042 84.3512 78.0939 84.3486C77.8306 84.3462 77.5853 84.4087 77.3576 84.5428C77.105 84.6915 76.9951 84.8358 76.8306 85.074C76.814 85.098 76.8006 85.1227 76.7883 85.1491C76.6332 85.4852 76.5781 85.6428 76.5588 86.0223C76.5515 86.1629 76.6023 86.416 76.6131 86.4788C76.6154 86.4926 76.618 86.5058 76.6212 86.5193C76.6892 86.763 76.8117 86.9745 76.989 87.154C76.9933 87.1576 76.9977 87.1608 77.0021 87.1643C77.2584 87.3855 77.359 87.4532 77.6801 87.5647C77.6953 87.57 77.7099 87.5741 77.7256 87.577C77.8565 87.6025 77.9927 87.6149 78.1251 87.6284C78.3068 87.6351 78.4765 87.5973 78.6337 87.514C78.7973 87.4603 78.9391 87.3688 79.0586 87.2394C79.1274 87.1499 79.1963 87.0602 79.2651 86.9707C79.3462 86.8302 79.3896 86.6794 79.4162 86.5237C79.4267 86.4955 79.4389 86.4676 79.4462 86.4386C79.4821 86.2981 79.4861 86.1587 79.4754 86.0194C79.4762 86.0036 79.4812 85.9895 79.4812 85.9739Z" fill="#5588B7"/>
<path d="M87.5022 83.5636C87.4961 83.4627 87.4698 83.3008 87.4541 83.2002C87.4532 83.194 87.4526 83.1881 87.4515 83.1823C87.4485 83.1679 87.4442 83.1547 87.4392 83.1409C87.3829 82.981 87.338 82.893 87.2756 82.7675C87.2161 82.6475 87.1246 82.541 87.0327 82.4454C86.9884 82.3991 86.9216 82.3554 86.8781 82.3216C86.8338 82.287 86.7731 82.2324 86.7166 82.1996C86.6597 82.1667 86.5816 82.1398 86.5299 82.1178C86.4754 82.0946 86.4089 82.0606 86.3465 82.0427C86.215 82.0051 86.0756 81.9937 85.9394 81.9846C85.8566 81.9793 85.7665 81.9992 85.688 82.0098C85.6011 82.0215 85.516 82.0262 85.4337 82.0553C85.3299 82.0916 85.2167 82.1418 85.1176 82.189C85.1039 82.1955 85.0905 82.2022 85.0776 82.2102C84.9622 82.2794 84.8569 82.3674 84.7571 82.458C84.7128 82.4982 84.7006 82.5261 84.651 82.5906C84.6075 82.6469 84.5769 82.6792 84.5472 82.7317C84.5364 82.7508 84.5262 82.7704 84.5169 82.7907C84.4614 82.9115 84.4031 83.0359 84.3652 83.1641C84.353 83.2051 84.3439 83.2471 84.3363 83.2893C84.3346 83.2984 84.3334 83.3075 84.3317 83.3166C84.2885 83.4551 84.2824 83.5935 84.3133 83.732C84.3194 83.8704 84.3605 83.9995 84.4361 84.1192C84.4369 84.1201 84.4375 84.1212 84.4381 84.1221C84.448 84.1356 84.4585 84.1482 84.4684 84.1617C84.497 84.2497 84.5364 84.3348 84.588 84.4166C84.5909 84.4216 84.5935 84.4269 84.5965 84.4319C84.672 84.5304 84.7478 84.6287 84.8233 84.7273C84.8321 84.7352 84.8411 84.7428 84.8502 84.7504C84.9479 84.8264 85.0453 84.9021 85.143 84.9781C85.2582 85.027 85.3734 85.0757 85.4885 85.1247C85.4967 85.1277 85.5049 85.1303 85.513 85.1326C85.5711 85.1497 85.774 85.169 85.7195 85.1617C85.6868 85.1573 85.8636 85.1875 85.9257 85.189C85.9321 85.1893 85.9385 85.1893 85.9449 85.189C85.9496 85.1887 85.9546 85.1884 85.9592 85.1875C86.0864 85.1705 86.2138 85.1532 86.341 85.1359C86.3535 85.1332 86.3655 85.1303 86.3777 85.1262C86.3806 85.125 86.3838 85.1238 86.3867 85.1224C86.5005 85.074 86.6145 85.0256 86.7285 84.9772C86.8399 84.9182 86.9458 84.8393 87.0286 84.744C87.1228 84.636 87.2237 84.5275 87.2882 84.399C87.3296 84.3163 87.4001 84.1441 87.4322 84.0561C87.4343 84.0505 87.4369 84.0453 87.4386 84.0394C87.4433 84.0256 87.4465 84.0118 87.4494 83.9974C87.4617 83.935 87.471 83.8376 87.476 83.8015C87.4792 83.7771 87.4978 83.6692 87.5016 83.6067C87.5031 83.5923 87.5031 83.5783 87.5022 83.5636Z" fill="#5588B7"/>
<path d="M77.3991 74.6594L77.2527 74.3106C77.1614 74.1405 77.0369 74.0038 76.8788 73.9011C76.7881 73.8108 76.6814 73.748 76.5586 73.7134C76.3857 73.6219 76.199 73.5802 75.9993 73.5876C75.929 73.594 75.8537 73.6066 75.7884 73.6154C75.731 73.623 75.647 73.631 75.5787 73.6442C75.5644 73.6471 75.5502 73.6509 75.5362 73.6559C75.5079 73.6662 75.4813 73.6788 75.4519 73.6914C75.3507 73.7025 75.2492 73.7113 75.1498 73.7322C75.1419 73.7333 75.1343 73.7351 75.1267 73.7374C75.006 73.7888 74.885 73.8401 74.7642 73.8914C74.7383 73.9052 74.5368 74.0528 74.4417 74.1443C74.4364 74.1493 74.4315 74.1543 74.4268 74.1596C74.2807 74.296 74.1778 74.4576 74.1171 74.6444C74.0235 74.824 73.9803 75.0173 73.9882 75.2247C73.9865 75.293 73.9952 75.3608 74.0148 75.4276C74.0238 75.6265 74.0824 75.8119 74.1912 75.9835C74.258 76.095 74.3358 76.1965 74.4254 76.2877C74.4554 76.3185 74.4942 76.3387 74.5268 76.3666C74.5551 76.3971 74.5802 76.4311 74.6117 76.4575C74.6245 76.4684 74.8447 76.6617 74.9614 76.7233C75.0238 76.7565 75.1072 76.7864 75.16 76.8087C75.2139 76.8315 75.2924 76.8691 75.3589 76.8926C75.4866 76.9374 75.8135 76.9597 75.8082 76.9591C75.8284 76.9612 75.8476 76.9618 75.868 76.9606C76.0022 76.9474 76.136 76.9295 76.269 76.9066C76.3874 76.8565 76.5058 76.806 76.6245 76.7559C76.7901 76.6679 76.854 76.6098 76.9412 76.503C77.0229 76.403 77.1092 76.2909 77.1844 76.1859C77.1914 76.1759 77.1981 76.166 77.2042 76.1554C77.2159 76.136 77.2255 76.1161 77.2346 76.0956C77.2888 75.9735 77.3471 75.8433 77.3923 75.7178C77.3958 75.7084 77.3988 75.6987 77.4017 75.689C77.4078 75.6673 77.4122 75.6453 77.416 75.6233C77.4381 75.4881 77.4588 75.3423 77.4714 75.2059C77.4723 75.1959 77.4728 75.1856 77.4731 75.1757C77.4775 75.0023 77.4615 74.821 77.3991 74.6594Z" fill="#5588B7"/>
<path d="M72.331 88.8733C72.3181 88.7325 72.3076 88.589 72.2726 88.4517C72.2391 88.3197 72.1694 88.196 72.1175 88.0725C71.9962 87.8663 71.8329 87.702 71.6279 87.58C71.415 87.4556 71.1852 87.3931 70.9387 87.3925C70.8131 87.4045 70.6807 87.4236 70.5558 87.4436C70.5459 87.445 70.536 87.4468 70.5261 87.4488C70.506 87.4532 70.4864 87.4594 70.4669 87.4661C70.4089 87.4864 70.352 87.5104 70.2969 87.5377C70.1525 87.5849 70.0283 87.6668 69.9178 87.7724C69.7588 87.8225 69.6142 87.8973 69.4914 88.0103C69.3296 88.1156 69.2021 88.2555 69.1088 88.4295L68.9589 88.7864C68.888 89.0513 68.888 89.3162 68.9589 89.5808C69.0088 89.6999 69.0589 89.8187 69.1088 89.9378C69.2409 90.1625 69.4185 90.3411 69.6419 90.474C69.6579 90.4849 69.6746 90.4951 69.6921 90.5036C69.6979 90.5066 69.7037 90.5092 69.7096 90.5115C69.8282 90.562 69.9469 90.6125 70.0656 90.6629C70.0761 90.667 70.0869 90.6711 70.0977 90.6746C70.387 90.7641 70.6973 90.7527 70.9874 90.6755C71.1274 90.6383 71.263 90.5687 71.3905 90.508C71.4077 90.4998 71.4246 90.4907 71.4403 90.4802C71.4485 90.4746 71.4564 90.4687 71.464 90.4629C71.5652 90.3869 71.6789 90.3047 71.774 90.2211C71.7885 90.2082 71.802 90.1945 71.8145 90.1798C71.9043 90.0733 71.9918 89.9639 72.0691 89.8477C72.0799 89.8316 72.0895 89.8143 72.098 89.7967C72.1583 89.6709 72.214 89.5421 72.2598 89.4104C72.2662 89.3919 72.2712 89.3731 72.275 89.354C72.2995 89.2279 72.3132 89.0877 72.3283 88.9601C72.3295 88.9507 72.3307 88.9413 72.3313 88.9319C72.333 88.912 72.3327 88.8923 72.331 88.8733Z" fill="#5588B7"/>
<path d="M68.6298 78.1369C68.6187 77.9955 68.598 77.855 68.5738 77.7154C68.5712 77.7004 68.5674 77.6854 68.5627 77.6711C68.5193 77.5394 68.4624 77.4118 68.4021 77.2868C68.3962 77.2745 68.3892 77.2622 68.3814 77.2507C68.3052 77.141 68.2262 77.0319 68.1364 76.933C68.1294 76.9251 68.1215 76.9178 68.1136 76.9107C68.0136 76.8239 67.9089 76.7415 67.7996 76.6667C67.7882 76.6588 67.7762 76.652 67.7637 76.6459C67.4528 76.4916 67.2709 76.4326 66.92 76.4182C66.9095 76.4176 66.8987 76.4179 66.8879 76.4185C66.7538 76.4261 66.6194 76.4487 66.4875 76.4716C66.3552 76.4948 66.1691 76.5863 66.0941 76.6309C65.888 76.7529 65.6832 76.9577 65.5692 77.1698C65.5097 77.2806 65.4625 77.3986 65.4228 77.5179C65.4193 77.5285 65.417 77.5394 65.4152 77.5505C65.4112 77.574 65.4091 77.5901 65.4056 77.6115C65.4042 77.6136 65.4024 77.6156 65.401 77.6177C65.2601 77.8617 65.1892 78.1251 65.1884 78.4076C65.1817 78.6795 65.2656 78.972 65.4015 79.2055C65.5436 79.4496 65.7287 79.6267 65.9679 79.7731C65.9804 79.7807 65.993 79.7878 66.0061 79.7942C66.1358 79.8558 66.2688 79.9116 66.4033 79.9626C66.419 79.9688 66.4353 79.9734 66.452 79.977C66.4593 79.9787 66.4666 79.9799 66.4738 79.9811C66.5421 79.9902 66.61 79.9996 66.6783 80.0086C66.8827 80.0547 67.0874 80.0456 67.2918 79.9811C67.3204 79.9732 67.5782 79.8805 67.6934 79.8054C67.8261 79.7191 67.9579 79.6235 68.0696 79.5103C68.1787 79.3997 68.2694 79.2694 68.3563 79.1413C68.365 79.1281 68.3732 79.1146 68.3808 79.1005C68.4481 78.9738 68.5024 78.8289 68.5499 78.7018C68.5604 78.6737 68.5686 78.6452 68.5735 78.6156C68.5977 78.4748 68.6193 78.3325 68.6298 78.19C68.631 78.1727 68.631 78.1548 68.6298 78.1369Z" fill="#5588B7"/>
<path d="M65.9415 66.7646C65.8511 66.596 65.7274 66.4604 65.5705 66.3584C65.4317 66.2305 65.2684 66.1439 65.0809 66.0991C64.9535 66.082 64.8257 66.0647 64.6983 66.0474C64.4475 66.0483 64.2139 66.1128 63.9961 66.2349L63.9071 66.2469C63.7114 66.2938 63.5408 66.3839 63.3956 66.5176C63.2827 66.5848 63.1926 66.6755 63.1259 66.789C62.9929 66.9351 62.9031 67.1067 62.8567 67.3035L62.8027 67.7059L62.8564 68.1081C62.9031 68.3049 62.9926 68.4765 63.1256 68.6226C63.2317 68.7872 63.3723 68.9171 63.5475 69.0122C63.6785 69.0708 63.8036 69.1491 63.9447 69.1747L63.9964 69.1841C64.0308 69.1902 64.0652 69.1964 64.0996 69.2025C64.2579 69.231 64.4344 69.2721 64.5846 69.2721C64.9707 69.2721 65.3752 69.1145 65.6411 68.8277C65.7315 68.73 65.8426 68.571 65.8922 68.5035C65.908 68.4821 65.9214 68.4601 65.9327 68.4361C65.9919 68.3108 66.0716 68.1621 66.103 68.016C66.1354 67.8646 66.1602 67.7095 66.1628 67.5546C66.1678 67.2874 66.0893 66.9899 65.9415 66.7646Z" fill="#5588B7"/>
<path d="M59.7279 81.4269C59.7189 81.2269 59.6597 81.0403 59.5506 80.8678C59.5413 80.8464 59.5305 80.8259 59.517 80.8065C59.4345 80.6865 59.3485 80.5619 59.2458 80.4566C59.1444 80.353 59.0178 80.2694 58.9035 80.1864C58.8857 80.1735 58.8676 80.1618 58.8484 80.1521C58.7842 80.1195 58.7028 80.0893 58.6466 80.0656C58.5917 80.0424 58.5121 80.0031 58.4442 79.9811C58.4235 79.9743 58.4022 79.9702 58.3806 79.9667C58.0554 79.9154 57.8781 79.874 57.5535 79.9641C57.1826 80.0667 56.8402 80.3272 56.6591 80.6719C56.6098 80.7655 56.5728 80.8537 56.541 80.9415C56.5212 80.9705 56.4955 80.9937 56.4772 81.0245C56.2033 81.4953 56.2045 82.0916 56.4772 82.5624C56.6851 82.9215 57.0199 83.1649 57.4115 83.2788C57.5594 83.3216 57.7166 83.3333 57.87 83.3424C58.0061 83.3503 58.3523 83.2817 58.3357 83.2849C58.4841 83.2576 58.6433 83.1655 58.7629 83.1124C58.8113 83.091 58.8548 83.0623 58.8968 83.03C59.0405 82.9206 59.1866 82.8159 59.3167 82.6909C59.3946 82.5894 59.4724 82.4879 59.5506 82.3864C59.6599 82.2137 59.7189 82.0274 59.7279 81.8273C59.7635 81.6933 59.7635 81.5601 59.7279 81.4269Z" fill="#5588B7"/>
<path d="M56.0996 68.5579C56.1027 68.5591 56.1058 68.5606 56.1088 68.5618C56.0981 68.5552 56.0958 68.5545 56.0996 68.5579Z" fill="#5588B7"/>
<path d="M56.8871 69.6314C56.8637 69.483 56.7555 69.2753 56.713 69.1893C56.6444 69.0523 56.5389 68.9332 56.4374 68.8212C56.3636 68.7399 56.1189 68.5736 56.0997 68.5572C55.9821 68.5073 55.8643 68.4575 55.7468 68.4073C55.6132 68.3891 55.4797 68.3712 55.3461 68.353C55.3502 68.3533 55.0542 68.38 54.9227 68.412C54.9093 68.4152 54.8958 68.4193 54.8827 68.4237C54.874 68.4269 54.8655 68.4305 54.8571 68.4337C54.7454 68.4789 54.5981 68.5384 54.4896 68.5897C54.4607 68.6035 54.4339 68.62 54.408 68.6387C54.3149 68.7059 54.1499 68.8183 54.0472 68.9259C54.0367 68.9371 54.0268 68.9488 54.0169 68.9605C53.939 69.0559 53.8515 69.1726 53.7781 69.2715C53.7716 69.28 53.7652 69.2888 53.7591 69.2976C53.7425 69.3219 53.7279 69.3474 53.7151 69.3741C53.6465 69.5182 53.5771 69.6648 53.5319 69.8182C53.4882 69.967 53.4718 70.1955 53.4599 70.3049C53.4284 70.5903 53.524 70.8886 53.6585 71.1353C53.6664 71.1497 53.6742 71.1635 53.683 71.177C53.6862 71.1817 53.6891 71.1861 53.6926 71.1908C53.7646 71.2914 53.8475 71.3996 53.9262 71.4952C53.9469 71.5202 53.9685 71.5425 53.9939 71.5627C54.0866 71.6349 54.1793 71.707 54.2724 71.7792C54.382 71.8258 54.4914 71.8722 54.601 71.9188C54.7229 71.9352 54.8448 71.9517 54.9667 71.9684C55.1195 71.9742 55.2615 71.9411 55.398 71.886C55.4747 71.8774 55.5514 71.8686 55.6281 71.8446C55.6366 71.8417 55.6447 71.8387 55.6529 71.8355C56.0069 71.6988 56.1046 71.6589 56.3884 71.402C56.5018 71.299 56.6039 71.145 56.6788 71.0338C56.7646 70.9065 56.8276 70.7141 56.869 70.5982C56.9209 70.4524 56.9352 70.2037 56.9425 70.1104C56.9538 69.9587 56.9025 69.7299 56.8871 69.6314Z" fill="#5588B7"/>
<path d="M171.226 80.4704C170.404 81.2985 165.531 94.6309 165.927 94.8444C166.323 95.0579 167.97 97.764 169.617 96.6692C173.452 94.1193 174.07 89.5896 174.244 88.9407C175.331 84.9059 178.201 85.1154 177.397 83.5572C176.593 81.9987 171.226 80.4704 171.226 80.4704Z" fill="#ED9D7A"/>
<path d="M209.252 31.7242C206.161 36.4528 187.183 70.1388 185.195 74.662C183.208 79.1852 181.47 93.8253 181.47 93.8253L177.127 91.5279C177.127 91.5279 174.757 84.7935 173.479 81.3172C173.479 81.3172 170.045 85.5139 168.887 88.8788C167.728 92.2436 168.309 97.4574 168.309 97.4574C168.309 97.4574 163.438 93.9746 163.067 94.145C162.695 94.3155 163.22 82.9399 164.869 77.6696C166.517 72.3992 172.952 66.1365 174.175 62.566C175.397 58.9956 190.748 24.5668 190.748 24.5668C190.748 24.5668 197.367 25.186 201.24 26.7865C204.634 28.1894 209.252 31.7242 209.252 31.7242Z" fill="#FEBC99"/>
<path d="M183.424 93.0802C181.497 89.572 177.381 89.4649 174.108 91.0058C172.356 91.8303 170.607 93.1014 169.225 94.6578C168.325 93.2152 167.001 92.0193 165.53 91.2135C163.047 89.853 159.249 89.2302 156.962 91.3364C154.642 93.4736 155.375 97.2609 156.175 99.9305C157.102 103.027 158.776 105.854 160.879 108.29C163.023 110.772 165.631 112.977 168.449 114.647C169.168 115.073 169.89 115.304 170.699 114.955C171.435 114.638 172.133 114.095 172.788 113.636C174.16 112.676 175.45 111.596 176.638 110.413C179.056 108.006 181.091 105.326 182.667 102.289C184.115 99.5011 185.04 96.0221 183.424 93.0802Z" fill="#FF848F"/>
<path d="M173.587 81.7191C173.587 81.7191 176.081 89.5274 176.21 92.7787C176.338 96.03 176.195 98.3529 178.38 98.5539C180.565 98.7548 182.832 88.9853 183.388 81.4337L173.587 81.7191Z" fill="#FEBC99"/>
<path d="M179.596 93.9362C179.431 93.7352 179.138 93.5677 178.875 93.5522C178.782 93.5548 178.688 93.5575 178.595 93.5604C178.399 93.5933 178.225 93.6733 178.072 93.8003C177.905 93.9115 177.707 94.2034 177.638 94.3902C177.577 94.5533 177.564 94.7276 177.544 94.8986L177.487 95.3896C177.468 95.5533 177.446 95.7167 177.43 95.8807C177.405 96.142 177.464 96.3711 177.522 96.6199C177.615 97.0138 177.865 97.3204 178.268 97.4154C178.442 97.4562 178.6 97.4503 178.77 97.3984C178.966 97.3386 179.182 97.2154 179.29 97.0314C179.329 96.9648 179.368 96.8986 179.407 96.832C179.426 96.7988 179.446 96.7657 179.466 96.7322C179.61 96.4811 179.626 96.4389 179.682 96.1538C179.715 95.9845 179.745 95.8144 179.777 95.6448C179.808 95.4753 179.84 95.3057 179.872 95.1362C179.896 95.0074 179.911 94.905 179.907 94.7707C179.899 94.4718 179.786 94.1682 179.596 93.9362Z" fill="#FFD5B5"/>
<path d="M173.84 80.9361C173.313 80.9056 172.902 81.5345 172.574 81.8883C172.14 82.3556 171.727 82.8422 171.342 83.3512C170.604 84.3262 169.965 85.3752 169.439 86.4807C168.95 87.5112 168.583 88.5901 168.334 89.7042C168.101 90.7485 167.821 92.084 168.1 93.1395C168.151 93.3298 168.389 93.3166 168.432 93.1298C168.55 92.6182 168.531 92.0785 168.6 91.5572C168.675 90.9796 168.771 90.405 168.91 89.8391C169.168 88.7855 169.548 87.7597 170.01 86.7797C170.493 85.7544 171.089 84.7832 171.766 83.8759C172.168 83.3371 172.599 82.8188 173.059 82.3292C173.164 82.2174 173.304 82.0995 173.444 81.9739C173.517 82.3594 173.674 82.7396 173.779 83.1121C173.926 83.6363 174.074 84.1602 174.224 84.6838C174.534 85.7694 174.831 86.8589 175.093 87.9574C175.353 89.0518 175.579 90.1548 175.748 91.2674C175.829 91.8036 175.892 92.3413 175.948 92.8807C175.995 93.3292 175.914 93.9244 176.236 94.267C176.258 94.2908 176.292 94.2893 176.312 94.2638C176.578 93.9285 176.461 93.4442 176.435 93.0371C176.4 92.4959 176.338 91.9561 176.266 91.419C176.107 90.2272 175.88 89.0454 175.613 87.8732C175.354 86.7354 175.059 85.606 174.751 84.4811C174.597 83.9182 174.431 83.3585 174.267 82.7988C174.148 82.3922 174.063 81.9253 173.825 81.5689C173.923 81.4325 173.993 81.2875 173.998 81.1303C174 81.0379 173.94 80.942 173.84 80.9361Z" fill="#ED9D7A"/>
<path d="M174.973 86.8078C174.8 86.8645 174.753 87.0405 174.687 87.1945C174.607 87.3831 174.53 87.5729 174.456 87.7638C174.312 88.1367 174.179 88.5139 174.057 88.8949C173.941 89.261 173.831 89.63 173.745 90.0043C173.698 90.2032 173.655 90.403 173.615 90.6033C173.585 90.7567 173.484 91.0002 173.57 91.1422C173.603 91.195 173.658 91.2114 173.71 91.1741C173.843 91.0794 173.843 90.8456 173.88 90.6957C173.927 90.5068 173.978 90.3188 174.03 90.1313C174.138 89.7465 174.246 89.3613 174.368 88.9806C174.488 88.6092 174.618 88.2414 174.76 87.8779C174.831 87.6961 174.904 87.5154 174.98 87.3359C175.049 87.1745 175.148 87.0202 175.072 86.8451C175.054 86.8049 175.011 86.7955 174.973 86.8078Z" fill="#D68467"/>
<path d="M173.872 83.7349C172.872 85.132 171.875 86.6459 171.328 88.2877C171.081 89.0298 170.914 89.8013 170.832 90.5795C170.791 90.9623 170.776 91.3469 170.781 91.7315C170.786 92.0838 170.763 92.5021 170.914 92.8268C170.944 92.8913 171.062 92.9013 171.081 92.8209C171.16 92.4859 171.097 92.1063 171.099 91.7637C171.101 91.3798 171.124 90.9952 171.165 90.6133C171.247 89.8444 171.413 89.0862 171.662 88.3543C172.217 86.7222 173.251 85.3778 174.145 83.9285C174.258 83.7463 173.999 83.5574 173.872 83.7349Z" fill="#D68467"/>
<path d="M160.089 92.3829C159.371 92.2506 158.666 92.8869 158.337 93.4727C158.026 94.0277 157.791 94.5932 157.714 95.2315C157.645 95.7947 157.67 96.382 157.75 96.9428C157.786 97.1933 157.837 97.4412 157.899 97.6861C157.957 97.9111 158.003 98.1631 158.104 98.3699C158.249 98.6679 158.488 98.8759 158.735 99.0851C159.343 99.5996 160.553 99.2608 160.748 98.4591C160.838 98.0918 160.93 97.7495 160.83 97.3749C160.785 97.2074 160.74 97.0402 160.704 96.8707C160.643 96.5902 160.608 96.3069 160.587 96.0215C160.59 95.6214 160.632 95.2163 160.712 94.8241C160.788 94.5609 160.876 94.3028 160.941 94.0347C160.924 94.1054 160.862 94.3421 160.92 94.1377C160.935 94.0855 160.953 94.0344 160.968 93.9822C161.074 93.6147 161.037 93.3316 160.918 92.9808C160.797 92.627 160.424 92.4448 160.089 92.3829Z" fill="#FFABB5"/>
<path d="M162.186 101.353C162.116 101.288 162.046 101.224 161.974 101.161C161.928 101.119 161.882 101.077 161.835 101.036C161.746 100.956 161.65 100.901 161.54 100.85C161.442 100.805 161.34 100.764 161.241 100.722C161.022 100.628 160.749 100.687 160.57 100.837C160.479 100.915 160.412 101.009 160.37 101.121C160.329 101.233 160.318 101.349 160.336 101.467C160.343 101.58 160.343 101.696 160.357 101.808C160.38 101.989 160.47 102.17 160.538 102.339C160.561 102.394 160.581 102.45 160.605 102.504C160.699 102.712 160.859 102.852 161.03 102.993C161.236 103.163 161.517 103.231 161.779 103.195C161.939 103.172 162.12 103.108 162.238 102.999C162.347 102.899 162.398 102.817 162.463 102.692C162.56 102.507 162.599 102.305 162.568 102.097C162.554 101.997 162.51 101.883 162.474 101.789C162.463 101.759 162.452 101.728 162.439 101.698C162.377 101.558 162.295 101.454 162.186 101.353Z" fill="#FFABB5"/>
<path d="M191.329 62.9521C190.587 62.0642 189.463 61.4432 188.482 60.8647C187.434 60.2458 186.339 59.7128 185.212 59.2564C182.901 58.3209 180.435 57.7709 177.945 57.6706C176.892 57.6284 175.587 57.5726 174.765 58.3711C174.217 58.9035 173.768 60.1487 174.618 60.6163C174.85 60.7436 175.14 60.6309 175.214 60.3713C175.302 60.066 175.234 59.7451 175.38 59.4558C175.599 59.0202 176.105 58.8856 176.553 58.8346C177.398 58.7383 178.297 58.8246 179.14 58.9114C180.877 59.0903 182.592 59.5224 184.228 60.1326C185.87 60.7447 187.448 61.5602 188.904 62.5411C189.529 62.9624 190.447 63.4883 190.682 64.2651C190.923 65.0621 190.18 65.1753 189.753 65.6082C189.631 65.7323 189.633 65.8951 189.697 66.0441C190.122 67.0239 191.319 66.2638 191.682 65.6525C192.218 64.7497 191.973 63.7221 191.329 62.9521Z" fill="#244A6D"/>
<path d="M222.479 100.76C221.39 101.171 211.455 111.266 211.727 111.626C212 111.986 212.381 115.136 214.331 114.827C218.872 114.108 221.304 110.245 221.73 109.727C224.384 106.51 226.908 107.899 226.82 106.145C226.732 104.392 222.479 100.76 222.479 100.76Z" fill="#E8835B"/>
<path d="M277.19 72.2864C272.427 75.2981 241.261 98.0225 237.586 101.308C233.911 104.593 226.29 117.188 226.29 117.188L223.286 113.284C223.286 113.284 223.908 106.168 224.18 102.472C224.18 102.472 219.325 104.856 216.882 107.434C214.439 110.011 212.816 114.997 212.816 114.997C212.816 114.997 209.822 109.795 209.414 109.795C209.006 109.795 214.177 99.6652 217.852 95.5582C221.527 91.4512 229.964 88.4395 232.55 85.7018C235.136 82.9638 263.308 58.0491 263.308 58.0491C263.308 58.0491 279.639 59.1442 279.639 59.5548C279.64 59.9661 277.19 72.2864 277.19 72.2864Z" fill="#FEA178"/>
<path d="M228.224 116.778C227.943 113.099 224.536 111.427 221.209 111.46C219.429 111.477 217.481 111.869 215.732 112.642C215.526 111.088 214.872 109.577 213.946 108.337C212.382 106.243 209.438 104.262 206.723 105.147C203.968 106.045 203.143 109.499 202.798 112.042C202.399 114.993 202.727 118.004 203.564 120.852C204.417 123.755 205.763 126.604 207.489 129.086C207.929 129.719 208.447 130.19 209.256 130.209C209.994 130.226 210.785 130.039 211.508 129.907C213.022 129.631 214.512 129.222 215.957 128.687C218.897 127.6 221.618 126.138 224.093 124.2C226.364 122.422 228.46 119.863 228.224 116.778Z" fill="#FF848F"/>
<path d="M224.112 102.883C224.112 102.883 223.159 111.028 221.935 114.04C220.71 117.051 219.621 119.105 221.526 120.2C223.431 121.295 229.525 113.353 233.147 106.715L224.112 102.883Z" fill="#FEA178"/>
<path d="M224.538 116.506C224.471 116.254 224.274 115.98 224.042 115.856C223.955 115.819 223.869 115.783 223.783 115.746C223.592 115.695 223.4 115.695 223.208 115.746C223.011 115.778 222.71 115.961 222.57 116.102C222.447 116.225 222.364 116.378 222.275 116.526L222.021 116.949C221.936 117.089 221.848 117.229 221.766 117.372C221.635 117.599 221.594 117.832 221.545 118.082C221.466 118.479 221.567 118.863 221.895 119.117C222.036 119.227 222.182 119.288 222.359 119.311C222.561 119.339 222.809 119.317 222.983 119.195C223.046 119.151 223.109 119.106 223.172 119.062C223.203 119.04 223.235 119.018 223.266 118.996C223.502 118.828 223.533 118.796 223.702 118.56C223.802 118.419 223.9 118.277 223.998 118.136C224.097 117.995 224.196 117.854 224.295 117.713C224.37 117.606 224.426 117.519 224.478 117.396C224.593 117.12 224.616 116.797 224.538 116.506Z" fill="#FFC3AB"/>
<path d="M224.665 102.276C224.199 102.028 223.565 102.429 223.12 102.613C222.533 102.857 221.956 103.127 221.396 103.43C220.322 104.009 219.308 104.696 218.374 105.483C217.503 106.216 216.724 107.045 216.038 107.954C215.736 108.355 215.436 108.76 215.171 109.186C215.038 109.4 214.835 109.754 214.944 110.016C215.154 110.522 215.371 109.983 215.515 109.751C215.822 109.257 216.147 108.774 216.506 108.317C217.175 107.466 217.944 106.691 218.769 105.993C219.632 105.262 220.575 104.627 221.565 104.084C222.153 103.761 222.759 103.47 223.38 103.216C223.521 103.158 223.698 103.109 223.876 103.054C223.784 103.435 223.77 103.846 223.712 104.229C223.63 104.768 223.548 105.306 223.468 105.845C223.302 106.962 223.123 108.077 222.907 109.186C222.693 110.29 222.443 111.388 222.138 112.471C221.99 112.993 221.826 113.508 221.654 114.023C221.512 114.45 221.193 114.958 221.344 115.404C221.355 115.435 221.386 115.448 221.415 115.433C221.796 115.239 221.888 114.749 222.033 114.368C222.225 113.861 222.39 113.344 222.547 112.825C222.894 111.675 223.175 110.504 223.416 109.327C223.65 108.184 223.847 107.033 224.031 105.881C224.123 105.304 224.204 104.726 224.285 104.148C224.344 103.728 224.46 103.268 224.39 102.845C224.536 102.762 224.66 102.659 224.729 102.518C224.769 102.435 224.754 102.323 224.665 102.276Z" fill="#E8835B"/>
<path d="M223.273 108.091C223.093 108.07 222.977 108.211 222.854 108.323C222.703 108.461 222.555 108.602 222.409 108.745C222.123 109.024 221.847 109.312 221.579 109.607C221.322 109.892 221.07 110.182 220.837 110.486C220.713 110.648 220.591 110.812 220.472 110.977C220.381 111.104 220.189 111.284 220.209 111.449C220.217 111.51 220.26 111.549 220.323 111.536C220.483 111.505 220.58 111.293 220.676 111.172C220.796 111.02 220.919 110.87 221.045 110.721C221.302 110.416 221.559 110.111 221.827 109.815C222.089 109.527 222.36 109.247 222.639 108.976C222.778 108.84 222.92 108.706 223.063 108.574C223.192 108.456 223.346 108.357 223.349 108.166C223.348 108.122 223.313 108.095 223.273 108.091Z" fill="#C96947"/>
<path d="M223.54 104.836C222.054 105.689 220.522 106.651 219.347 107.916C218.815 108.487 218.345 109.12 217.95 109.794C217.755 110.125 217.582 110.468 217.428 110.82C217.287 111.143 217.094 111.514 217.097 111.872C217.098 111.944 217.201 112.002 217.251 111.937C217.462 111.665 217.56 111.293 217.703 110.982C217.864 110.634 218.044 110.294 218.239 109.964C218.63 109.298 219.095 108.678 219.623 108.116C220.801 106.863 222.297 106.071 223.708 105.126C223.886 105.007 223.728 104.727 223.54 104.836Z" fill="#C96947"/>
<path d="M208.944 107.225C208.393 106.839 207.56 107.1 207.063 107.465C206.591 107.81 206.18 108.194 205.873 108.698C205.601 109.144 205.399 109.645 205.253 110.145C205.187 110.369 205.136 110.596 205.096 110.825C205.058 111.036 205.001 111.265 205.007 111.477C205.015 111.782 205.137 112.048 205.264 112.318C205.578 112.983 206.721 113.164 207.189 112.568C207.403 112.294 207.611 112.043 207.669 111.691C207.695 111.534 207.72 111.376 207.754 111.22C207.811 110.962 207.889 110.711 207.979 110.464C208.133 110.13 208.323 109.807 208.539 109.509C208.702 109.318 208.874 109.135 209.03 108.936C208.989 108.989 208.847 109.163 208.974 109.014C209.006 108.976 209.041 108.941 209.073 108.903C209.301 108.636 209.378 108.385 209.411 108.045C209.444 107.702 209.201 107.406 208.944 107.225Z" fill="#FFABB5"/>
<path d="M207.293 115.545C207.258 115.464 207.224 115.383 207.189 115.302C207.166 115.25 207.143 115.197 207.12 115.144C207.076 115.043 207.016 114.96 206.943 114.875C206.878 114.799 206.808 114.727 206.741 114.653C206.593 114.49 206.342 114.435 206.135 114.492C206.029 114.521 205.938 114.575 205.86 114.653C205.783 114.731 205.729 114.823 205.7 114.929C205.663 115.027 205.619 115.124 205.588 115.223C205.538 115.384 205.546 115.569 205.538 115.737C205.536 115.792 205.532 115.846 205.532 115.901C205.531 116.112 205.612 116.29 205.702 116.474C205.809 116.696 206.019 116.861 206.252 116.931C206.395 116.973 206.571 116.989 206.711 116.944C206.84 116.902 206.914 116.852 207.016 116.773C207.168 116.655 207.277 116.501 207.331 116.315C207.356 116.225 207.363 116.113 207.368 116.02C207.37 115.991 207.373 115.961 207.373 115.931C207.375 115.789 207.345 115.671 207.293 115.545Z" fill="#FFABB5"/>
<path d="M258.796 59.3108C256.804 60.0277 253.489 61.6381 252.944 63.5545C252.4 65.4711 250.222 64.6495 248.045 68.0722C245.867 71.4945 242.465 71.9052 242.192 74.0955C241.92 76.2858 235.252 81.6245 234.163 83.6781C233.074 85.7315 240.287 98.8735 242.737 97.5045C245.187 96.1355 250.494 91.7548 252.944 91.2075C255.394 90.6598 258.932 90.1122 261.11 87.3745C263.287 84.6365 264.784 86.4161 267.506 83.2675C270.228 80.1188 271.725 81.0771 274.719 77.9285C277.713 74.7798 280.708 71.6315 280.708 71.6315C280.708 71.6315 283.907 60.8143 279.727 56.8281C276.329 53.5876 267.919 54.7322 267.919 54.7322C267.511 54.8689 258.796 59.3108 258.796 59.3108Z" fill="#FF848F"/>
<path d="M251.36 88.5129C250.536 87.4352 249.195 86.7948 248.185 85.8993C247.233 85.0548 246.6 83.9424 245.946 82.8638C245.296 81.7902 244.654 80.7081 244.11 79.575C243.827 78.9845 243.563 78.3817 243.345 77.7633C243.138 77.1772 243.066 76.5366 242.628 76.0731C242.362 75.7915 241.96 75.9664 241.837 76.2832C241.606 76.8789 241.851 77.5442 242.018 78.1315C242.201 78.7745 242.434 79.3981 242.699 80.0112C243.245 81.2704 243.914 82.4696 244.596 83.6579C245.235 84.7714 245.871 85.8993 246.759 86.8359C247.248 87.3516 247.801 87.7977 248.345 88.2515C248.922 88.7323 249.516 89.368 250.204 89.6751C250.866 89.9705 251.94 89.272 251.36 88.5129Z" fill="#FF6573"/>
<path d="M240.675 80.0868C240.583 79.8087 240.332 79.6629 240.051 79.6503C239.736 79.636 239.464 79.9093 239.262 80.1205C238.689 80.7204 238.119 81.3235 237.548 81.926C237.227 82.2648 236.906 82.603 236.585 82.9424C236.434 83.1032 236.303 83.2815 236.168 83.4561C236.087 83.5599 235.996 83.6614 235.923 83.7705C235.845 83.8881 235.809 84.019 235.765 84.153C235.67 84.4402 235.976 84.7526 236.264 84.6549C236.352 84.6247 236.443 84.5998 236.529 84.561C236.639 84.5109 236.729 84.4258 236.824 84.3498C236.996 84.2126 237.177 84.082 237.343 83.9371C237.651 83.6673 237.935 83.3631 238.229 83.0777C238.824 82.5007 239.417 81.9228 240.014 81.3476C240.36 81.0135 240.853 80.6301 240.675 80.0868Z" fill="#FF6573"/>
<path d="M241.081 82.6684C240.591 82.7468 240.222 83.2311 239.892 83.5631C239.568 83.8884 239.234 84.2044 238.922 84.5411C238.619 84.8685 238.313 85.1938 238.005 85.5164C237.855 85.6731 237.705 85.8291 237.554 85.9846C237.366 86.1788 237.225 86.3786 237.086 86.6106C236.974 86.7963 237.011 87.0518 237.162 87.2037C237.323 87.3656 237.555 87.3753 237.752 87.2803C237.852 87.2316 237.958 87.1887 238.054 87.1321C238.174 87.0623 238.279 86.9629 238.385 86.8743C238.552 86.735 238.718 86.595 238.884 86.4545C239.235 86.1571 239.583 85.8567 239.929 85.5537C240.265 85.2598 240.577 84.9392 240.892 84.6229C241.044 84.4695 241.197 84.3152 241.349 84.1606C241.537 83.9685 241.76 83.6655 241.797 83.3892C241.86 82.9236 241.553 82.5928 241.081 82.6684Z" fill="#FF6573"/>
<path d="M243.505 85.3434C243.25 84.7421 242.452 85.1522 242.092 85.4053C241.342 85.9315 240.652 86.5267 239.983 87.1521C239.606 87.5038 239.219 87.8579 238.876 88.2427C238.703 88.4366 238.552 88.6552 238.396 88.8634C238.239 89.074 238.209 89.3081 238.116 89.5492C238.058 89.7012 238.243 89.7869 238.358 89.7367C238.564 89.6472 238.775 89.6258 238.958 89.4891C239.149 89.3463 239.348 89.2122 239.536 89.0652C239.893 88.7869 240.226 88.4759 240.578 88.1914C241.263 87.6385 241.983 87.133 242.689 86.6094C243.054 86.3396 243.736 85.8846 243.505 85.3434Z" fill="#FF6573"/>
<path d="M245.87 87.7132C245.646 87.1788 244.809 87.5384 244.478 87.7197C243.527 88.2406 242.645 88.8915 241.746 89.497C241.233 89.8425 240.728 90.1904 240.236 90.5662C239.991 90.7536 239.711 90.9267 239.487 91.1399C239.37 91.2514 239.112 91.4614 239.114 91.6345C239.114 91.6553 239.114 91.6759 239.114 91.6967C239.116 91.9349 239.302 92.0912 239.526 92.1106C240.044 92.1558 240.519 91.792 240.954 91.5565C241.423 91.3025 241.875 91.0258 242.329 90.7442C243.269 90.1599 244.224 89.5985 245.123 88.9511C245.47 88.7006 246.082 88.2213 245.87 87.7132Z" fill="#FF6573"/>
<path d="M246.81 89.6724C246.501 89.7205 246.229 89.7947 245.951 89.944C245.693 90.0825 245.459 90.2837 245.221 90.4547C244.706 90.8255 244.228 91.2429 243.742 91.6501C242.812 92.4289 241.932 93.2106 241.156 94.1475C241.023 94.3074 241.185 94.5048 241.369 94.4256C242.489 93.9436 243.491 93.3191 244.505 92.6442C245.018 92.3021 245.535 91.9692 246.023 91.5905C246.255 91.4104 246.51 91.2417 246.723 91.039C246.962 90.8114 247.117 90.553 247.257 90.2573C247.414 89.9255 247.157 89.6181 246.81 89.6724Z" fill="#FF6573"/>
<path d="M247.297 91.861C246.335 92.186 245.506 92.7642 244.695 93.3643C244.28 93.6709 243.871 93.9789 243.468 94.3013C243.083 94.6101 242.679 94.8897 242.489 95.3631C242.426 95.5189 242.582 95.6641 242.722 95.6714C243.218 95.6969 243.664 95.4106 244.087 95.1807C244.536 94.9363 244.967 94.6717 245.397 94.3954C246.261 93.8407 247.088 93.2209 247.695 92.3811C247.875 92.1317 247.576 91.7668 247.297 91.861Z" fill="#FF6573"/>
<path d="M259.569 71.7593C259.327 71.4135 258.694 71.6089 258.845 72.0665C259.76 74.8438 260.345 77.7522 260.049 80.6829C259.917 81.9964 259.62 83.3751 259.013 84.5549C258.744 85.0779 258.409 85.5913 258.004 86.0181C257.811 86.2216 257.596 86.4114 257.385 86.5959C257.202 86.7564 257.078 86.9825 256.904 87.1272C256.724 87.2776 256.883 87.5519 257.083 87.5616C257.389 87.5765 257.518 87.6707 257.851 87.5801C258.185 87.4894 258.465 87.3413 258.744 87.1374C259.268 86.7537 259.686 86.2862 260.032 85.7344C260.849 84.4299 261.267 82.8738 261.489 81.3619C261.977 78.0476 261.511 74.5378 259.569 71.7593Z" fill="#FF6573"/>
<path d="M255.784 73.1087C255.619 72.7998 255.404 72.5056 255.204 72.2184C254.781 71.61 254.275 71.0372 253.709 70.5596C253.158 70.0955 252.56 69.7213 251.892 69.4549C251.547 69.3173 251.201 69.2267 250.831 69.1935C250.486 69.163 250.007 69.1182 249.767 69.4203C249.593 69.6379 249.597 69.8635 249.767 70.0835C249.968 70.3455 250.371 70.3399 250.665 70.4302C250.919 70.5083 251.18 70.5842 251.423 70.694C251.956 70.9342 252.437 71.2768 252.856 71.6825C253.297 72.1087 253.665 72.5918 254.027 73.0858C254.241 73.3788 254.425 73.7047 254.66 73.9817C254.881 74.2436 255.155 74.4252 255.462 74.5695C255.716 74.6892 256.018 74.5478 256.024 74.2448C256.033 73.8473 255.975 73.4645 255.784 73.1087Z" fill="#FF6573"/>
<path d="M269.258 72.1964C269.057 71.3909 268.814 70.5963 268.532 69.8157C268.001 68.344 267.378 66.7941 266.454 65.5227C265.627 64.3846 264.537 63.5407 263.293 62.9041C262.687 62.5944 262.057 62.3307 261.421 62.0919C260.802 61.8593 259.982 61.4686 259.312 61.546C258.972 61.5853 258.736 61.9866 259.016 62.2638C259.433 62.6748 260.127 62.864 260.662 63.0819C261.281 63.3345 261.89 63.6149 262.476 63.9379C263.584 64.5486 264.651 65.3423 265.37 66.4028C266.189 67.6104 266.763 69.024 267.24 70.3983C267.476 71.08 267.683 71.7723 267.858 72.4724C268.022 73.131 268.06 73.9473 268.71 74.319C268.849 74.3991 269.08 74.3926 269.19 74.2568C269.69 73.6376 269.434 72.8998 269.258 72.1964Z" fill="#FF6573"/>
<path d="M274.439 72.781C274.28 72.1336 274.049 71.5065 273.771 70.9016C273.5 70.3117 273.148 69.782 272.751 69.271C272.54 68.9994 272.33 68.7433 272.055 68.5344C271.784 68.3279 271.565 68.2417 271.231 68.1827C271.094 68.1584 270.989 68.2613 271.015 68.4004C271.066 68.677 271.116 68.8985 271.25 69.1481C271.382 69.3939 271.536 69.6159 271.687 69.8503C271.989 70.3191 272.24 70.8172 272.479 71.3208C272.699 71.786 272.87 72.2736 273.004 72.7708C273.076 73.0359 273.143 73.307 273.184 73.5789C273.186 73.5989 273.191 73.6329 273.192 73.6408C273.197 73.7089 273.195 73.7766 273.197 73.845C273.201 73.9682 273.22 74.0198 273.203 74.0887C273.066 74.644 273.831 75.2134 274.239 74.6956C274.465 74.4093 274.62 74.0975 274.602 73.7223C274.586 73.4058 274.514 73.0882 274.439 72.781Z" fill="#FF6573"/>
<path d="M251.938 83.4701C251.896 83.2064 251.57 82.8829 251.367 82.7207C251.096 82.5048 250.838 82.2798 250.556 82.0774C250.116 81.7606 249.657 81.3455 249.257 80.9175C248.85 80.4819 248.517 80.0229 248.175 79.5348C247.814 79.0182 247.542 78.4515 247.178 77.9393C246.953 77.6219 246.324 77.6844 246.365 78.1611C246.483 79.5474 247.353 80.8536 248.24 81.88C248.671 82.3784 249.15 82.8292 249.668 83.2349C249.973 83.4737 250.282 83.6538 250.636 83.8116C250.952 83.953 251.437 84.0744 251.761 83.9078C251.925 83.8233 251.964 83.635 251.938 83.4701Z" fill="#FF6573"/>
<path d="M278.953 66.794C278.713 65.9771 278.361 65.1493 277.945 64.408C277.533 63.6747 277.056 62.9827 276.533 62.3248C276.271 61.9957 275.994 61.7094 275.67 61.4424C275.508 61.3098 275.076 61.0975 274.916 61.3579C274.765 61.6017 274.885 61.8851 275.016 62.1042C275.196 62.406 275.381 62.6973 275.575 62.9901C275.976 63.5949 276.332 64.23 276.64 64.8874C276.931 65.5086 277.201 66.1375 277.415 66.7905C277.623 67.427 277.625 68.0255 277.697 68.6796C277.736 69.0451 278.107 69.3504 278.467 69.1243C279.269 68.6183 279.191 67.6022 278.953 66.794Z" fill="#FF6573"/>
<path d="M266.553 74.6807C266.444 73.9538 266.135 73.2386 265.844 72.5695C265.313 71.349 264.525 70.0049 263.428 69.2281C263.111 69.0034 262.664 69.376 262.777 69.7318C262.962 70.3149 263.237 70.8564 263.435 71.4355C263.638 72.0277 263.793 72.6411 263.906 73.2571C264.005 73.7942 264.019 74.3116 264.07 74.9555C264.099 75.321 264.127 75.6833 264.197 76.0441C264.228 76.2072 264.26 76.3653 264.313 76.5219C264.349 76.6569 264.408 76.7786 264.49 76.8874C264.669 77.1218 264.713 77.1793 264.624 77.0599C264.948 77.482 265.642 77.7536 266.061 77.2462C266.4 76.837 266.553 76.4897 266.618 75.9634C266.672 75.5205 266.619 75.1215 266.553 74.6807Z" fill="#FFB6BF"/>
<path d="M249.126 75.2571C249.105 75.0969 249.036 74.9626 248.965 74.8194C248.917 74.7238 248.876 74.6211 248.82 74.5299C248.715 74.3542 248.567 74.1931 248.443 74.03C248.283 73.8188 248.129 73.605 247.944 73.4158C247.865 73.336 247.79 73.2492 247.707 73.175C247.587 73.0682 247.456 73.0301 247.304 72.9966C247.159 72.9649 246.987 73.0392 246.952 73.1976C246.928 73.3067 246.895 73.4167 246.911 73.5287C246.926 73.6467 246.969 73.7499 247.01 73.8608C247.095 74.0867 247.187 74.3023 247.298 74.5158C247.394 74.6997 247.491 74.8836 247.587 75.0679C247.702 75.2867 247.869 75.473 248.022 75.666C248.194 75.883 248.524 76.0529 248.799 75.976C248.91 75.9449 248.97 75.8857 249.035 75.8012C249.158 75.6407 249.151 75.4469 249.126 75.2571Z" fill="#FFB6BF"/>
<path d="M266.403 59.6657C266.083 59.4364 265.745 59.2313 265.394 59.053C265.179 58.9438 264.961 58.852 264.73 58.7822C264.475 58.7048 264.217 58.6147 263.953 58.7045C263.642 58.8098 263.494 59.1457 263.654 59.4428C263.778 59.6713 263.988 59.7752 264.196 59.9107C264.358 60.0163 264.516 60.1222 264.681 60.2228C264.846 60.3234 265.006 60.4302 265.163 60.5425C265.202 60.5707 265.241 60.5994 265.28 60.6282C265.291 60.6364 265.316 60.656 265.333 60.6695C265.396 60.7191 265.457 60.769 265.518 60.8203C266.13 61.3389 266.67 62.0162 267.442 62.292C267.702 62.3847 267.994 62.1418 267.985 61.8757C267.952 60.9083 267.131 60.1864 266.403 59.6657Z" fill="#FFB6BF"/>
<path d="M211.116 152.185C180.777 152.185 150.435 152.185 120.094 152.185C117.751 152.185 116.186 153.49 116.595 155.099C120.174 169.142 123.753 183.185 127.332 197.228C127.742 198.837 129.506 200.14 131.272 200.14C154.161 200.14 177.05 200.14 199.939 200.14C201.706 200.14 203.469 198.837 203.879 197.228C207.456 183.185 211.036 169.142 214.613 155.099C215.026 153.49 213.459 152.185 211.116 152.185ZM133.301 193.186C133.301 193.41 133.172 193.593 133.016 193.593H131.198C131.039 193.593 130.914 193.41 130.914 193.186V179.314H133.301V193.186ZM133.301 176.817H130.914V162.944C130.914 162.72 131.04 162.537 131.198 162.537H133.016C133.172 162.537 133.301 162.72 133.301 162.944V176.817ZM137.768 193.186C137.768 193.41 137.642 193.593 137.482 193.593H135.665C135.509 193.593 135.38 193.41 135.38 193.186V179.314H137.768V193.186ZM137.768 176.817H135.38V162.944C135.38 162.72 135.507 162.537 135.665 162.537H137.482C137.641 162.537 137.768 162.72 137.768 162.944V176.817ZM142.233 193.186C142.233 193.41 142.104 193.593 141.949 193.593H140.131C139.975 193.593 139.847 193.41 139.847 193.186V179.314H142.234L142.233 193.186ZM142.233 176.817H139.846V162.944C139.846 162.72 139.972 162.537 140.13 162.537H141.948C142.104 162.537 142.232 162.72 142.232 162.944V176.817H142.233ZM151.166 193.186C151.166 193.41 151.039 193.593 150.882 193.593H149.063C148.907 193.593 148.781 193.41 148.781 193.186V179.314H151.166V193.186ZM151.166 176.817H148.781V162.944C148.781 162.72 148.907 162.537 149.063 162.537H150.882C151.039 162.537 151.166 162.72 151.166 162.944V176.817ZM155.632 193.186C155.632 193.41 155.504 193.593 155.346 193.593H153.529C153.372 193.593 153.244 193.41 153.244 193.186V179.314H155.632V193.186ZM155.632 176.817H153.244V162.944C153.244 162.72 153.37 162.537 153.529 162.537H155.346C155.504 162.537 155.632 162.72 155.632 162.944V176.817ZM160.098 193.186C160.098 193.41 159.97 193.593 159.815 193.593H157.994C157.839 193.593 157.712 193.41 157.712 193.186V179.314H160.098V193.186ZM160.098 176.817H157.712V162.944C157.712 162.72 157.838 162.537 157.994 162.537H159.815C159.971 162.537 160.098 162.72 160.098 162.944V176.817ZM164.566 193.186C164.566 193.41 164.437 193.593 164.281 193.593H162.462C162.304 193.593 162.178 193.41 162.178 193.186V179.314H164.566V193.186ZM164.566 176.817H162.178V162.944C162.178 162.72 162.304 162.537 162.462 162.537H164.281C164.437 162.537 164.566 162.72 164.566 162.944V176.817ZM169.032 193.186C169.032 193.41 168.903 193.593 168.745 193.593H166.928C166.771 193.593 166.642 193.41 166.642 193.186V179.314H169.031V193.186H169.032ZM169.032 176.817H166.644V162.944C166.644 162.72 166.771 162.537 166.929 162.537H168.747C168.905 162.537 169.033 162.72 169.033 162.944V176.817H169.032ZM173.498 193.186C173.498 193.41 173.369 193.593 173.211 193.593H171.394C171.236 193.593 171.11 193.41 171.11 193.186V179.314H173.498V193.186ZM173.498 176.817H171.11V162.944C171.11 162.72 171.237 162.537 171.394 162.537H173.211C173.369 162.537 173.498 162.72 173.498 162.944V176.817ZM177.965 193.186C177.965 193.41 177.838 193.593 177.68 193.593H175.862C175.706 193.593 175.578 193.41 175.578 193.186V179.314H177.965V193.186ZM177.965 176.817H175.578V162.944C175.578 162.72 175.704 162.537 175.862 162.537H177.68C177.838 162.537 177.965 162.72 177.965 162.944V176.817ZM182.43 193.186C182.43 193.41 182.303 193.593 182.146 193.593H180.327C180.169 193.593 180.043 193.41 180.043 193.186V179.314H182.43V193.186ZM182.43 176.817H180.043V162.944C180.043 162.72 180.169 162.537 180.327 162.537H182.146C182.303 162.537 182.43 162.72 182.43 162.944V176.817ZM191.363 193.186C191.363 193.41 191.236 193.593 191.079 193.593H189.26C189.104 193.593 188.978 193.41 188.978 193.186V179.314H191.363V193.186ZM191.363 176.817H188.978V162.944C188.978 162.72 189.104 162.537 189.26 162.537H191.079C191.236 162.537 191.363 162.72 191.363 162.944V176.817ZM195.831 193.186C195.831 193.41 195.702 193.593 195.545 193.593H193.728C193.571 193.593 193.444 193.41 193.444 193.186V179.314H195.831V193.186ZM195.831 176.817H193.444V162.944C193.444 162.72 193.571 162.537 193.728 162.537H195.545C195.702 162.537 195.831 162.72 195.831 162.944V176.817ZM200.295 193.186C200.295 193.41 200.168 193.593 200.012 193.593H198.192C198.036 193.593 197.91 193.41 197.91 193.186V179.314H200.295V193.186ZM200.295 176.817H197.91V162.944C197.91 162.72 198.036 162.537 198.192 162.537H200.012C200.168 162.537 200.295 162.72 200.295 162.944V176.817Z" fill="#FF725E"/>
<path d="M220.267 154.64C220.267 155.36 219.734 155.944 219.077 155.944H112.134C111.477 155.944 110.946 155.36 110.946 154.64V149.854C110.946 149.135 111.478 148.551 112.134 148.551H219.077C219.734 148.551 220.267 149.135 220.267 149.854V154.64Z" fill="#FF725E"/>
<path d="M218.111 155.93C218.111 156.1 194.786 156.239 166.019 156.239C137.242 156.239 113.922 156.1 113.922 155.93C113.922 155.759 137.242 155.62 166.019 155.62C194.786 155.62 218.111 155.759 218.111 155.93Z" fill="#263238"/>
<g opacity="0.3">
<path d="M118.886 155.93C134.036 158.571 147.513 159.775 162.939 159.915C179.37 160.064 197.578 159.223 213.606 155.93H118.886Z" fill="black"/>
</g>
<path d="M167.368 154.373C165.982 154.965 164.382 154.312 163.795 152.917L147.592 114.436C147.004 113.041 147.653 111.432 149.04 110.842C150.426 110.25 152.026 110.903 152.613 112.298L168.816 150.779C169.404 152.173 168.755 153.782 167.368 154.373Z" fill="#263238"/>
<path d="M166.247 153.749C167.307 153.749 168.167 152.884 168.167 151.818C168.167 150.751 167.307 149.886 166.247 149.886C165.187 149.886 164.327 150.751 164.327 151.818C164.327 152.884 165.187 153.749 166.247 153.749Z" fill="#455A64"/>
</svg>
