<svg width="18" height="18" viewBox="0 0 18 18" fill="none" xmlns="http://www.w3.org/2000/svg">
<g clip-path="url(#clip0_129_59)">
<path d="M8.65823 1.55916C10.9716 1.55916 11.2456 1.5693 12.1553 1.60989C13.0009 1.64709 13.4575 1.78914 13.7618 1.90752C14.1643 2.06309 14.4552 2.25249 14.7562 2.5535C15.0606 2.85789 15.2466 3.14537 15.4022 3.54784C15.5206 3.85223 15.6626 4.3122 15.6998 5.15435C15.7404 6.06752 15.7505 6.34148 15.7505 8.65146C15.7505 10.9648 15.7404 11.2388 15.6998 12.1486C15.6626 12.9941 15.5206 13.4507 15.4022 13.7551C15.2466 14.1576 15.0572 14.4484 14.7562 14.7494C14.4518 15.0538 14.1643 15.2398 13.7618 15.3954C13.4575 15.5138 12.9975 15.6558 12.1553 15.693C11.2422 15.7336 10.9682 15.7438 8.65823 15.7438C6.34486 15.7438 6.07091 15.7336 5.16112 15.693C4.31559 15.6558 3.859 15.5138 3.55461 15.3954C3.15214 15.2398 2.86127 15.0504 2.56027 14.7494C2.25587 14.445 2.06986 14.1576 1.91428 13.7551C1.79591 13.4507 1.65386 12.9907 1.61665 12.1486C1.57607 11.2354 1.56592 10.9615 1.56592 8.65146C1.56592 6.33809 1.57607 6.06414 1.61665 5.15435C1.65386 4.30882 1.79591 3.85223 1.91428 3.54784C2.06986 3.14537 2.25926 2.85451 2.56027 2.5535C2.86466 2.24911 3.15214 2.06309 3.55461 1.90752C3.859 1.78914 4.31897 1.64709 5.16112 1.60989C6.07091 1.5693 6.34486 1.55916 8.65823 1.55916ZM8.65823 0C6.30765 0 6.01341 0.0101464 5.09009 0.0507318C4.17015 0.0913172 3.5377 0.24013 2.98979 0.453204C2.41822 0.676424 1.93457 0.970668 1.45431 1.45431C0.970669 1.93457 0.676424 2.41822 0.453204 2.98641C0.240131 3.5377 0.0913173 4.16677 0.0507318 5.08671C0.0101464 6.01341 0 6.30765 0 8.65823C0 11.0088 0.0101464 11.303 0.0507318 12.2264C0.0913173 13.1463 0.240131 13.7788 0.453204 14.3267C0.676424 14.8982 0.970669 15.3819 1.45431 15.8621C1.93457 16.3424 2.41822 16.64 2.98641 16.8599C3.5377 17.0729 4.16677 17.2218 5.08671 17.2623C6.01003 17.3029 6.30427 17.3131 8.65485 17.3131C11.0054 17.3131 11.2997 17.3029 12.223 17.2623C13.1429 17.2218 13.7754 17.0729 14.3233 16.8599C14.8915 16.64 15.3751 16.3424 15.8554 15.8621C16.3356 15.3819 16.6333 14.8982 16.8531 14.33C17.0662 13.7788 17.215 13.1497 17.2556 12.2297C17.2962 11.3064 17.3063 11.0122 17.3063 8.66161C17.3063 6.31104 17.2962 6.01679 17.2556 5.09347C17.215 4.17354 17.0662 3.54108 16.8531 2.99318C16.64 2.41822 16.3458 1.93457 15.8621 1.45431C15.3819 0.974051 14.8982 0.676424 14.33 0.456586C13.7788 0.243513 13.1497 0.0946994 12.2297 0.0541139C11.303 0.0101464 11.0088 0 8.65823 0Z" fill="white"/>
<path d="M8.65818 4.21074C6.20276 4.21074 4.21069 6.20281 4.21069 8.65823C4.21069 11.1136 6.20276 13.1057 8.65818 13.1057C11.1136 13.1057 13.1057 11.1136 13.1057 8.65823C13.1057 6.20281 11.1136 4.21074 8.65818 4.21074ZM8.65818 11.5432C7.0652 11.5432 5.77323 10.2512 5.77323 8.65823C5.77323 7.06525 7.0652 5.77328 8.65818 5.77328C10.2512 5.77328 11.5431 7.06525 11.5431 8.65823C11.5431 10.2512 10.2512 11.5432 8.65818 11.5432Z" fill="white"/>
<path d="M14.3198 4.03484C14.3198 4.6098 13.8531 5.07315 13.2815 5.07315C12.7065 5.07315 12.2432 4.60642 12.2432 4.03484C12.2432 3.45988 12.7099 2.99653 13.2815 2.99653C13.8531 2.99653 14.3198 3.46326 14.3198 4.03484Z" fill="white"/>
</g>
<defs>
<clipPath id="clip0_129_59">
<rect width="17.3165" height="17.3165" fill="white"/>
</clipPath>
</defs>
</svg>
