<svg width="40" height="26" viewBox="0 0 40 26" fill="none" xmlns="http://www.w3.org/2000/svg">
<path d="M10.0145 24.434C10.0145 25.5899 11.5382 26.2257 12.5523 25.4936L20.0304 20.0943C20.6029 19.6809 21.4266 19.6809 21.9985 20.0943L29.4766 25.4936C30.4907 26.2257 32.0144 25.5899 32.0144 24.434C32.0144 24.0235 31.8056 23.6346 31.4453 23.3744L21.9985 16.554C21.426 16.1406 20.6024 16.1406 20.0304 16.554L10.5836 23.3744C10.2233 23.6346 10.0145 24.0235 10.0145 24.434Z" fill="white"/>
<path d="M0.00372314 14.5606C0.102637 15.9346 1.70076 16.3016 3.5037 15L18.0037 5.00006C19.0215 4.26503 21.4869 4.26503 22.5037 5.00006L36.0037 15.0001C37.8066 16.3016 39.0038 14.5605 39.0038 14.5605C39.0038 14.5605 39.1324 13.1394 38.4918 12.6767L21.6971 0.551331C20.6792 -0.1837 19.2149 -0.1837 18.1981 0.551331L1.40329 12.6767C0.762705 13.1394 -0.0620846 13.6464 0.00372314 14.5606Z" fill="white"/>
</svg>
