<svg width="1439" height="1382" viewBox="0 0 1439 1382" fill="none" xmlns="http://www.w3.org/2000/svg">
<g opacity="0.7">
<g opacity="0.6">
<path d="M148.932 825.607C133.488 825.607 133.464 848.64 148.932 848.64C164.4 848.64 164.4 825.607 148.932 825.607Z" fill="white"/>
</g>
<g opacity="0.6">
<path d="M552.592 908C537.148 908 537.124 931.033 552.592 931.033C568.06 931.033 568.06 908 552.592 908Z" fill="white"/>
</g>
<g opacity="0.6">
<path d="M996.132 765.72C980.688 765.72 980.664 788.753 996.132 788.753C1011.6 788.753 1011.6 765.72 996.132 765.72Z" fill="white"/>
</g>
<g opacity="0.6">
<path d="M1296.13 599.88C1280.69 599.88 1280.66 622.913 1296.13 622.913C1311.6 622.913 1311.6 599.88 1296.13 599.88Z" fill="white"/>
</g>
<g opacity="0.6">
<path d="M893.592 902C878.148 902 878.124 925.033 893.592 925.033C909.06 925.033 909.06 902 893.592 902Z" fill="white"/>
</g>
<g opacity="0.6">
<path d="M609.732 831.941C599.7 831.941 599.676 846.913 609.732 846.913C619.788 846.913 619.788 831.941 609.732 831.941Z" fill="white"/>
</g>
<g opacity="0.6">
<path d="M423.533 909C413.501 909 413.477 923.972 423.533 923.972C433.589 923.972 433.589 909 423.533 909Z" fill="white"/>
</g>
<g opacity="0.6">
<path d="M675.533 821C665.501 821 665.477 835.972 675.533 835.972C685.589 835.972 685.589 821 675.533 821Z" fill="white"/>
</g>
<g opacity="0.6">
<path d="M998.532 944.804C988.5 944.804 988.476 959.776 998.532 959.776C1008.59 959.776 1008.59 944.804 998.532 944.804Z" fill="white"/>
</g>
<g opacity="0.6">
<path d="M1367.53 708C1357.5 708 1357.48 722.972 1367.53 722.972C1377.59 722.972 1377.59 708 1367.53 708Z" fill="white"/>
</g>
<g opacity="0.6">
<path d="M757.796 542C750.08 542 750.056 553.517 757.796 553.517C765.536 553.517 765.536 542 757.796 542Z" fill="white"/>
</g>
<g opacity="0.6">
<path d="M818.532 769.175C810.816 769.175 810.792 780.692 818.532 780.692C826.272 780.692 826.272 769.175 818.532 769.175Z" fill="white"/>
</g>
<g opacity="0.6">
<path d="M67.3319 642.492C59.6159 642.492 59.5919 654.008 67.3319 654.008C75.0719 654.008 75.0719 642.492 67.3319 642.492Z" fill="white"/>
</g>
<g opacity="0.6">
<path d="M1320.13 458.225C1312.42 458.225 1312.39 469.742 1320.13 469.742C1327.87 469.742 1327.87 458.225 1320.13 458.225Z" fill="white"/>
</g>
<g opacity="0.6">
<path d="M91.796 757C84.08 757 84.056 768.517 91.796 768.517C99.536 768.517 99.536 757 91.796 757Z" fill="white"/>
</g>
<g opacity="0.6">
<path d="M67.796 922C60.08 922 60.056 933.517 67.796 933.517C75.536 933.517 75.536 922 67.796 922Z" fill="white"/>
</g>
<g opacity="0.6">
<path d="M1375.33 859.005C1367.62 859.005 1367.59 870.522 1375.33 870.522C1383.07 870.522 1383.07 859.005 1375.33 859.005Z" fill="white"/>
</g>
<g opacity="0.6">
<path d="M720.9 184.405C705.456 184.405 705.432 207.438 720.9 207.438C736.368 207.438 736.368 184.405 720.9 184.405Z" fill="white"/>
</g>
<g opacity="0.6">
<path d="M592.572 340.456C582.54 340.456 582.516 355.427 592.572 355.427C602.628 355.427 602.628 340.456 592.572 340.456Z" fill="white"/>
</g>
<g opacity="0.6">
<path d="M250.368 234.111C242.652 234.111 242.628 245.627 250.368 245.627C258.108 245.627 258.108 234.111 250.368 234.111Z" fill="white"/>
</g>
<g opacity="0.6">
<path d="M969.372 254.656C961.656 254.656 961.632 266.173 969.372 266.173C977.112 266.173 977.112 254.656 969.372 254.656Z" fill="white"/>
</g>
<g opacity="0.4">
<path d="M1091.75 865.765C1086.9 865.028 1082.28 867.205 1079.81 870.948C1078.66 866.664 1074.96 863.22 1070.11 862.495C1063.6 861.504 1057.49 865.777 1056.46 872.019C1053.67 888.949 1074.72 901.87 1074.72 901.87C1074.72 901.87 1099.01 895.075 1101.68 878.871C1102.72 872.618 1098.26 866.756 1091.76 865.765H1091.75Z" fill="#8DC6CC"/>
<g opacity="0.1">
<path d="M1099.72 877.236C1098.28 881.946 1094.63 886.208 1091.28 889.801C1086.79 894.615 1081.42 898.576 1075.51 901.617C1079.71 900.281 1099.3 893.313 1101.68 878.86C1102.28 875.209 1101.02 871.697 1098.56 869.209C1099.87 871.697 1100.59 874.368 1099.72 877.236Z" fill="#2D2D2D"/>
</g>
</g>
<path d="M360.444 786.427C359.868 785.598 358.86 785.137 357.84 785.287L338.28 787.717L325.104 773.632C324.42 772.895 323.352 772.596 322.356 772.861C321.36 773.125 320.616 773.909 320.424 774.888L316.788 793.487L298.764 801.157C297.816 801.56 297.192 802.447 297.156 803.437C297.12 804.428 297.66 805.361 298.572 805.833L315.876 814.896L317.904 833.715C318.012 834.705 318.696 835.546 319.656 835.891C319.944 835.995 320.256 836.053 320.556 836.053C321.252 836.064 321.948 835.822 322.464 835.339L336.792 822.336L356.076 826.298C357.096 826.505 358.128 826.137 358.776 825.365C359.412 824.593 359.544 823.534 359.1 822.636L350.652 805.533L360.54 789.157C361.056 788.293 361.02 787.233 360.456 786.404L360.444 786.427Z" fill="#FFAFBF"/>
<g opacity="0.1">
<path d="M359.112 822.647L350.664 805.545L360.552 789.168C361.068 788.304 361.032 787.245 360.468 786.416C359.928 785.644 359.016 785.206 358.068 785.264C358.476 791.091 351.216 796.596 347.904 800.523C345.264 803.656 344.424 806.167 346.728 809.771C348.792 813.008 350.64 816.382 352.068 819.929C352.2 820.263 352.332 820.885 352.512 821.426C352.44 821.426 352.368 821.449 352.296 821.461C350.364 821.714 348.42 821.864 346.464 821.944C344.22 822.037 341.976 822.037 339.732 821.944C337.632 821.852 335.592 821.714 333.636 822.624C330.264 824.19 327.684 827.611 325.2 830.202C323.376 832.091 321.6 834.002 319.824 835.937C320.076 836.006 320.328 836.052 320.58 836.064C321.276 836.075 321.972 835.834 322.488 835.35L336.816 822.348L356.1 826.309C356.94 826.482 357.78 826.263 358.416 825.745C358.836 825.296 359.148 824.766 359.34 824.19C359.424 823.672 359.364 823.142 359.124 822.647H359.112Z" fill="#2D2D2D"/>
</g>
<path d="M784.831 332.986C784.771 332.284 784.303 331.662 783.607 331.42L770.539 326.537L767.323 313.431C767.155 312.74 766.591 312.21 765.883 312.049C765.163 311.888 764.419 312.13 763.951 312.683L755.071 323.105L741.091 321.988C740.359 321.93 739.651 322.276 739.279 322.875C738.895 323.485 738.907 324.234 739.315 324.833L746.899 336.154L741.475 348.569C741.187 349.225 741.319 349.962 741.799 350.503C741.943 350.665 742.111 350.791 742.303 350.895C742.735 351.125 743.251 351.206 743.755 351.079L757.327 347.659L767.959 356.446C768.523 356.907 769.303 357.022 769.975 356.745C770.647 356.469 771.103 355.847 771.151 355.144L771.955 341.705L783.943 334.714C784.567 334.345 784.927 333.666 784.867 332.963L784.831 332.986Z" fill="#FFAFBF"/>
<g opacity="0.1">
<path d="M771.115 355.156L771.919 341.716L783.907 334.725C784.531 334.357 784.891 333.677 784.831 332.975C784.771 332.318 784.363 331.743 783.739 331.466C781.927 335.232 775.435 336.292 771.967 337.662C769.207 338.756 767.791 340.046 767.947 343.052C768.091 345.747 768.031 348.465 767.671 351.148C767.635 351.402 767.491 351.828 767.419 352.231C767.371 352.208 767.323 352.196 767.275 352.173C765.979 351.69 764.707 351.148 763.459 350.561C762.031 349.881 760.627 349.144 759.259 348.35C757.975 347.601 756.763 346.853 755.215 346.783C752.551 346.657 749.731 347.947 747.259 348.741C745.459 349.329 743.659 349.939 741.871 350.561C742.003 350.688 742.135 350.803 742.291 350.883C742.723 351.114 743.239 351.194 743.743 351.068L757.315 347.647L767.947 356.434C768.403 356.814 769.015 356.953 769.591 356.837C770.011 356.699 770.395 356.469 770.719 356.17C770.959 355.882 771.103 355.525 771.127 355.133L771.115 355.156Z" fill="#2D2D2D"/>
</g>
<g opacity="0.8">
<path d="M111.314 94.1569V302.754C111.314 304.296 114.914 304.296 114.914 302.754V94.1569C114.914 92.6144 111.314 92.6144 111.314 94.1569Z" fill="#8DC6CC"/>
</g>
<g opacity="0.8">
<path d="M578 113.412V284.588C578 286.471 581.6 286.471 581.6 284.588V113.412C581.6 111.529 578 111.529 578 113.412Z" fill="#8DC6CC"/>
</g>
<g opacity="0.8">
<path d="M313 93.8837V389.965C313 391.144 316.6 391.144 316.6 389.965V93.8837C316.6 92.7054 313 92.7054 313 93.8837Z" fill="#8DC6CC"/>
</g>
<g opacity="0.8">
<path d="M924 94.7691V540.231C924 542.59 928 542.59 928 540.231V94.7691C928 92.4103 924 92.4103 924 94.7691Z" fill="#8DC6CC"/>
</g>
<g opacity="0.8">
<path d="M1055.81 93.8198V182.166C1055.81 183.259 1059 183.259 1059 182.166V93.8198C1059 92.7267 1055.81 92.7267 1055.81 93.8198Z" fill="#8DC6CC"/>
</g>
<g opacity="0.8">
<path d="M1326.31 94.2733V392.456C1326.31 394.153 1329.91 394.153 1329.91 392.456V94.2733C1329.91 92.5756 1326.31 92.5756 1326.31 94.2733Z" fill="#8DC6CC"/>
</g>
<g opacity="0.8">
<path d="M720.068 157.217V544.439C720.068 546.062 727 546.062 727 544.439V157.217C727 155.594 720.068 155.594 720.068 157.217Z" fill="#8DC6CC"/>
</g>
<path d="M1372.89 324.574L1289.7 358.295C1300.45 387.686 1296.94 420.243 1288.33 450.279C1285.87 458.859 1282.99 467.438 1282.44 476.318C1281.89 485.209 1283.97 494.652 1290.27 501.182C1296.37 507.505 1305.59 510.257 1314.54 510.948C1331.52 512.273 1349.2 506.71 1361.25 495.148C1376.57 480.429 1381.2 458.674 1390.29 439.787C1398.7 422.316 1411.69 404.845 1408.53 385.854C1404.64 362.499 1377.73 347.769 1372.89 324.574Z" fill="#FFAFBF"/>
<path d="M1328.32 480.164C1318.99 475.915 1309.15 473.45 1298.87 472.759C1293.07 472.368 1287.71 473.013 1282.59 474.406C1282.53 475.039 1282.47 475.684 1282.43 476.318C1281.88 485.209 1283.95 494.652 1290.25 501.182C1296.36 507.505 1305.58 510.257 1314.53 510.948C1328.87 512.066 1343.7 508.254 1355.22 500.088C1347.87 491.773 1338.76 484.921 1328.32 480.164Z" fill="#FF7B9E"/>
<path d="M1356.91 386.073C1356.76 397.06 1363.35 407.057 1370.38 415.199C1376.94 422.811 1384.32 429.468 1392.51 435.353C1400.77 419.356 1411.42 403.245 1408.53 385.854C1406.02 370.791 1393.93 359.308 1384.37 346.836C1381.26 349.957 1378.27 353.205 1375.2 356.326C1366.67 364.986 1357.09 373.278 1356.91 386.073Z" fill="#FF7B9E"/>
<g opacity="0.1">
<path d="M1343.08 357.558C1354.91 350.59 1365.83 342.172 1375.52 332.613C1374.38 330.033 1373.46 327.373 1372.87 324.586L1359.81 329.883C1353.18 335.722 1346.04 341.009 1338.41 345.673C1324.97 353.884 1308.57 362.925 1292.07 360.287C1291.48 360.195 1290.91 360.172 1290.37 360.207C1291.81 364.387 1292.97 368.637 1293.87 372.933C1311.58 374.107 1328.15 366.345 1343.09 357.546L1343.08 357.558Z" fill="#2D2D2D"/>
</g>
<path d="M1368.51 312.908C1365.39 314.232 1363.48 318.586 1360.12 317.975C1358.91 317.756 1357.92 316.87 1356.78 316.409C1352.92 314.82 1348.94 318.171 1346.36 321.35C1343.78 324.528 1340.43 328.213 1336.31 327.453C1333.76 326.981 1331.66 324.782 1329.05 324.805C1323.71 324.839 1322.63 333.235 1317.53 334.732C1315.08 335.457 1312.49 334.317 1309.94 334.052C1304.98 333.534 1299.9 336.759 1298.43 341.377C1297.89 343.07 1297.72 345.005 1296.41 346.237C1292.84 349.6 1285.49 344.13 1282.25 347.792C1281.41 348.748 1281.2 350.049 1281.27 351.327C1280.24 355.773 1282.26 360.368 1286.15 363.097C1291.3 366.702 1297.95 366.564 1303.8 365.124C1312.01 363.098 1319.66 359.424 1326.9 355.07C1330.12 353.711 1333.3 352.295 1336.47 350.878C1344.04 347.504 1351.61 344.118 1359.18 340.744C1364.12 338.544 1369.18 336.252 1372.97 332.486C1376.76 328.72 1379.09 323.089 1377.39 318.044C1376.18 314.463 1372.04 311.434 1368.51 312.931V312.908ZM1294.79 363.789C1295.2 363.8 1295.61 363.8 1296.02 363.789C1296.02 363.812 1296.03 363.846 1296.04 363.869C1295.62 363.858 1295.21 363.835 1294.79 363.789Z" fill="#FF7B9E"/>
<path d="M1296.41 346.226C1295.76 346.824 1295.01 347.147 1294.17 347.285C1297.53 353.251 1301.14 359.09 1304.97 364.79C1306.49 364.387 1308 363.927 1309.49 363.42C1305.26 357.178 1301.31 350.775 1297.64 344.199C1297.37 344.959 1297.01 345.673 1296.42 346.237L1296.41 346.226Z" fill="#F9E6E4"/>
<path d="M1317.53 334.72C1316.69 334.962 1315.84 334.997 1314.97 334.916C1317.15 342.644 1319.33 350.383 1321.5 358.111C1322.88 357.374 1324.25 356.602 1325.6 355.819C1323.53 348.471 1321.45 341.124 1319.39 333.776C1318.83 334.191 1318.21 334.525 1317.53 334.732V334.72Z" fill="#F9E6E4"/>
<path d="M1340.03 326.97C1338.87 327.476 1337.63 327.695 1336.31 327.442C1335.96 327.373 1335.63 327.281 1335.29 327.165C1337.63 334.133 1338.95 341.377 1339.11 348.748C1339.11 349.059 1339.11 349.381 1339.11 349.692C1340.62 349.013 1342.14 348.333 1343.65 347.665C1343.65 347.561 1343.65 347.458 1343.65 347.366C1343.4 340.433 1342.15 333.58 1340.04 326.981L1340.03 326.97Z" fill="#F9E6E4"/>
<path d="M1365.32 315.303C1364.09 316.478 1362.9 317.641 1361.49 317.941C1363.69 324.448 1364.8 331.277 1364.8 338.095C1366.35 337.3 1367.84 336.448 1369.25 335.48C1368.99 328.64 1367.67 321.845 1365.32 315.292V315.303Z" fill="#F9E6E4"/>
<path d="M862.924 479.676C846.556 474.344 816.364 470.901 745.024 498.391C742.96 497.469 740.884 496.594 738.736 495.765C727.072 491.262 715.564 486.206 703.252 483.028C697.324 481.496 691.216 480.229 685.144 479.146C680.044 478.237 674.884 478.087 669.64 479.054C662.392 480.39 652.636 484.882 652.324 492.552C652.204 495.35 653.608 497.896 654.952 500.28C656.452 502.951 658.252 505.6 660.496 507.811C665.02 512.291 671.068 515.62 676.228 519.489C678.94 521.516 681.364 523.797 684.028 525.858C684.676 526.353 685.312 526.837 685.96 527.309C667.54 538.722 655.36 549.076 648.496 555.617C645.148 553.844 641.608 552.22 638.044 550.861C631.144 548.212 623.608 545.506 616.18 544.227C609.052 542.995 601.684 541.774 594.448 541.267C592.324 541.118 589.912 541.29 587.74 541.981C580.912 543.018 577.384 548.051 582.28 560.742C595.228 594.313 622.168 614.755 644.98 620.226C697.768 632.882 801.544 572.731 840.964 542.097C880.384 511.462 879.424 485.066 862.924 479.688V479.676Z" fill="#8DC6CC"/>
<path d="M738.604 549.237C719.656 559.141 715.288 569.863 706.372 601.085C697.468 632.307 703.912 650.733 727.756 636.13C751.6 621.527 787.984 566.19 781.78 553.659C775.576 541.129 755.068 540.634 738.604 549.237Z" fill="#63BAC6"/>
<g opacity="0.05">
<path d="M766.744 515.528C767.404 517.681 765.964 519.317 763.384 518.914C761.416 518.603 760.204 516.081 760.372 514.399C760.792 510.265 753.868 509.482 753.448 513.628C752.86 519.513 757.204 525.651 764.08 525.305C767.392 525.133 770.488 524.062 772.42 521.39C774.352 518.718 774.184 515.816 773.296 512.96C772.084 509.009 765.544 511.612 766.756 515.528H766.744Z" fill="#2D2D2D"/>
</g>
<g opacity="0.05">
<path d="M745.264 520.883C743.608 517.094 737.056 519.651 738.724 523.451C739.264 524.672 739.948 525.985 740.02 527.344C740.104 528.887 738.82 529.198 737.32 529.382C735.88 529.567 734.296 529.624 733.756 528.231C733.264 526.918 733.444 524.937 734.008 523.647C735.712 519.743 729.304 517.359 727.6 521.275C726.136 524.614 726.016 529.025 727.9 532.123C729.784 535.233 733.576 536.12 737.32 535.832C741.04 535.544 744.94 533.851 746.464 530.465C747.892 527.286 746.548 523.774 745.276 520.872L745.264 520.883Z" fill="#2D2D2D"/>
</g>
<g opacity="0.05">
<path d="M718.756 531.386C716.14 528.104 710.5 532.146 713.116 535.44C714.316 536.949 714.736 541.694 711.868 541.866C710.5 541.947 709.552 541.659 708.94 540.657C708.604 540.104 708.364 539.264 708.304 538.607C708.208 538.181 708.232 537.743 708.388 537.317C708.388 537.283 708.388 537.26 708.4 537.225C710.38 533.989 705.268 530.638 702.592 533.862C700.264 536.661 701.236 541.083 702.7 543.916C704.356 547.13 708.328 548.535 712.12 548.281C716.38 547.993 719.2 545.586 720.448 541.878C721.552 538.584 720.892 534.081 718.756 531.386Z" fill="#2D2D2D"/>
</g>
<path d="M766.828 505.324C766.684 505.255 766.54 505.186 766.396 505.117C761.62 503.101 756.148 505.474 754.312 510.103C752.488 514.71 755.164 519.616 760.048 521.044C765.496 522.634 772.828 518.741 772.396 512.925C772.132 509.424 769.96 506.314 766.828 505.324Z" fill="white"/>
<path d="M734.572 515.47C732.904 515.735 731.44 516.495 730.24 517.555C728.884 518.257 727.78 519.386 727.18 520.987C726.952 521.401 726.748 521.827 726.592 522.277C725.884 524.292 726.064 526.48 726.988 528.288C727.396 529.67 728.176 530.914 729.364 531.847C731.884 533.805 735.52 533.759 738.46 532.296C740.176 531.444 741.472 530.223 742.372 528.772C747.46 523.279 742.756 514.192 734.584 515.47H734.572Z" fill="white"/>
<path d="M715.048 530.361C713.056 528.611 710.116 527.839 707.308 528.196C706.78 528.265 706.3 528.369 705.856 528.519C704.944 528.749 704.032 529.187 703.216 529.832C702.016 530.442 701.032 531.34 700.408 532.768C699.748 534.277 699.676 536.062 700.252 537.594C700.408 538.676 700.756 539.736 701.296 540.692C701.968 542.868 703.36 544.642 705.748 545.448C708.628 546.416 711.952 545.759 714.352 543.905C718.828 540.438 719.02 533.874 715.036 530.361H715.048Z" fill="white"/>
<g opacity="0.05">
<path d="M794.44 509.067C804.22 512.257 816.052 512.626 826.3 509.954C832.036 508.457 837.784 506.695 843.304 504.553C846.244 503.401 848.884 501.881 851.404 500.176C851.704 500.142 852.004 500.073 852.292 499.946C854.956 498.794 857.26 496.629 859.204 494.383C862.696 491.504 865.528 488.199 868.06 484.548C868.348 484.133 868.648 483.673 868.936 483.189C867.292 481.623 865.264 480.437 862.912 479.677C861.7 479.285 860.404 478.893 859.024 478.536C855.652 483.558 852.172 488.671 849.016 493.831C845.8 496.065 842.644 497.93 838.744 499.439C834.364 501.144 829.708 502.422 825.16 503.666C807.604 508.48 786.16 502.963 779.128 486.886C779.08 486.782 779.02 486.702 778.972 486.61C776.812 487.266 774.616 487.945 772.36 488.683C772.396 488.936 772.468 489.189 772.588 489.454C776.308 497.965 784.924 505.981 794.428 509.079L794.44 509.067Z" fill="#2D2D2D"/>
</g>
<path d="M790.024 501.005C804.748 508.445 823.468 509.977 838.816 501.477C846.004 497.493 852.148 491.481 857.5 485.561C859.312 483.558 860.608 481.404 861.34 479.17C847.012 474.874 822.568 472.502 772.408 488.659C774.832 491.066 777.424 493.381 780.136 495.5C783.184 497.873 786.568 499.266 790.024 501.017V501.005Z" fill="white"/>
<path d="M700.024 512.822C706.096 509.378 712.552 506.614 718.888 503.643C724.264 501.121 729.868 498.575 735.58 496.813C736.624 496.491 737.632 496.111 738.64 495.719C727.012 491.216 715.54 486.195 703.276 483.028C697.348 481.496 691.24 480.229 685.168 479.147C680.068 478.237 674.908 478.087 669.664 479.055C662.416 480.391 652.66 484.882 652.348 492.552C652.228 495.351 653.632 497.896 654.976 500.28C656.476 502.952 658.276 505.601 660.52 507.812C665.044 512.292 671.092 515.62 676.252 519.49C678.04 520.826 679.708 522.277 681.4 523.705C681.46 523.67 681.496 523.624 681.556 523.601C687.796 520.135 693.82 516.369 700.036 512.833L700.024 512.822Z" fill="#8DC6CC"/>
<g opacity="0.05">
<path d="M722.069 507.674C727.469 505.163 733 502.952 738.664 501.086C741.052 500.303 743.284 499.266 745.504 498.207C745.348 498.265 745.192 498.322 745.024 498.391C742.96 497.47 740.884 496.595 738.736 495.765C738.7 495.754 738.664 495.731 738.628 495.719C737.632 496.122 736.613 496.491 735.569 496.813C729.857 498.576 724.252 501.121 718.876 503.643C712.54 506.614 706.084 509.378 700.012 512.822C693.796 516.357 687.772 520.135 681.532 523.59C681.472 523.624 681.424 523.659 681.376 523.693C682.252 524.43 683.128 525.156 684.028 525.847C684.544 526.25 685.072 526.642 685.588 527.022C691.144 523.901 696.508 520.526 702.076 517.405C708.544 513.778 715.324 510.783 722.056 507.651L722.069 507.674Z" fill="#2D2D2D"/>
</g>
<path d="M613.684 561.065C613.684 560.742 613.48 560.454 613.18 560.328L607.396 557.771L606.316 551.748C606.256 551.437 606.016 551.172 605.704 551.08C605.38 550.988 605.032 551.08 604.816 551.31L600.484 555.802L594.172 554.926C593.836 554.88 593.512 555.018 593.32 555.283C593.128 555.548 593.116 555.894 593.272 556.17L596.38 561.502L593.56 566.984C593.416 567.272 593.452 567.618 593.656 567.871C593.716 567.952 593.788 568.009 593.872 568.067C594.064 568.182 594.292 568.228 594.52 568.194L600.772 566.996L605.344 571.257C605.584 571.487 605.932 571.556 606.244 571.441C606.556 571.338 606.784 571.061 606.82 570.75L607.564 564.681L613.204 561.825C613.504 561.675 613.684 561.376 613.672 561.053L613.684 561.065Z" fill="#FFAFBF"/>
<g opacity="0.1">
<path d="M606.832 570.762L607.576 564.692L613.216 561.836C613.516 561.687 613.696 561.387 613.684 561.065C613.684 560.765 613.504 560.489 613.228 560.351C612.292 562.009 609.328 562.32 607.708 562.85C606.424 563.276 605.74 563.817 605.728 565.188C605.716 566.42 605.608 567.641 605.368 568.85C605.344 568.965 605.272 569.161 605.224 569.334C605.2 569.334 605.176 569.311 605.164 569.311C604.588 569.057 604.036 568.781 603.484 568.481C602.848 568.136 602.236 567.767 601.648 567.364C601.084 566.996 600.556 566.616 599.86 566.547C598.66 566.42 597.34 566.927 596.188 567.226C595.348 567.445 594.52 567.675 593.692 567.906C593.752 567.963 593.812 568.021 593.872 568.067C594.064 568.182 594.292 568.228 594.52 568.194L600.772 566.996L605.344 571.257C605.548 571.441 605.812 571.522 606.076 571.487C606.268 571.43 606.448 571.338 606.604 571.211C606.724 571.084 606.796 570.923 606.82 570.75L606.832 570.762Z" fill="#2D2D2D"/>
</g>
<path d="M47.642 341.838C46.85 343.427 -11.662 457.603 13.13 472.172C37.934 486.74 97.886 505.697 119.546 493.132C141.194 480.567 151.946 363.144 149.414 356.026C146.87 348.909 55.394 326.325 47.642 341.838Z" fill="#FFAFBF"/>
<g opacity="0.1">
<path d="M99.8181 375.063C115.922 376.86 133.502 376.411 149.366 371.643C149.714 365.988 149.846 361.543 149.738 358.79C135.098 364.238 117.71 364.963 102.662 363.282C84.8181 361.289 62.9661 356.948 51.3021 342.632C50.5581 341.722 49.6341 340.974 48.6141 340.479C48.2181 340.893 47.8941 341.342 47.6421 341.826C47.5101 342.103 45.6621 345.707 42.8301 351.558C57.0261 366.875 79.0821 372.725 99.8181 375.052V375.063Z" fill="#2D2D2D"/>
</g>
<g opacity="0.1">
<path d="M55.982 401.229C57.614 394.043 59.606 386.661 57.722 379.347C57.218 377.39 54.038 376.537 52.706 378.23C35.102 400.527 24.686 427.291 22.754 455.208C22.682 456.175 23.054 456.866 23.63 457.292C23.846 459.63 26.714 461.162 28.718 459.193C39.206 448.851 45.77 435.768 50.306 422.155C52.598 415.279 54.386 408.266 55.982 401.218V401.229ZM47.57 410.523C47.498 410.419 47.414 410.304 47.33 410.212C47.774 408.98 48.206 407.736 48.614 406.492C48.278 407.84 47.93 409.187 47.57 410.523ZM31.478 446.662C31.73 446.513 31.958 446.317 32.15 446.064C31.898 446.421 31.634 446.778 31.37 447.135C31.406 446.973 31.442 446.812 31.478 446.662ZM32.486 445.465C32.546 445.315 32.606 445.165 32.666 445.015C32.714 445.039 32.774 445.062 32.834 445.085C32.642 445.373 32.438 445.66 32.246 445.937C32.342 445.799 32.426 445.637 32.498 445.465H32.486Z" fill="#2D2D2D"/>
</g>
<g opacity="0.1">
<path d="M144.722 400.745C144.53 427.153 134.414 453.618 116.102 473.439C109.598 480.475 102.062 486.729 93.4941 491.289C89.4021 492.902 85.2141 494.307 80.9661 495.562C96.7581 498.142 111.074 498.05 119.546 493.132C133.742 484.886 143.258 431.576 147.41 393.824C145.73 395.678 144.746 398.131 144.734 400.757L144.722 400.745Z" fill="#2D2D2D"/>
</g>
<path d="M151.754 347.331C151.334 342.287 148.442 337.657 144.554 334.329C140.438 330.805 135.35 328.605 130.19 326.866C128.126 326.163 125.714 325.622 124.022 324.229C122.018 322.57 122.954 320.198 123.758 318.159C127.442 308.831 129.818 296.393 122.498 287.986C119.078 284.059 113.594 282.665 108.914 285.452C108.698 285.579 108.494 285.717 108.29 285.855C101.714 287.894 97.9461 297.222 96.8541 303.061C96.0741 307.242 97.0701 311.975 95.4981 315.983C94.7301 317.929 93.0861 319.069 91.2021 319.921C89.7501 319.829 88.2861 319.507 86.8941 319.173C81.8181 317.952 76.9941 317.169 71.8101 318.355C67.1421 319.426 62.7021 321.695 59.2701 324.931C57.5781 326.521 56.1261 328.317 54.9501 330.286C54.9021 330.379 54.8541 330.471 54.8061 330.563C53.6541 332.118 52.7541 333.926 52.9341 335.814C53.1741 338.429 55.5021 339.857 57.5661 341.227C62.0661 344.233 67.1061 346.525 72.2541 348.287C83.3901 352.099 95.3181 353.792 106.958 355.508C113.234 356.441 119.534 357.258 125.834 357.961C131.882 358.64 138.206 359.47 144.266 358.422C149.942 357.443 152.162 352.421 151.742 347.331H151.754Z" fill="white"/>
<g opacity="0.05">
<path d="M117.446 303.05C116.498 310.109 113.522 317.388 115.514 324.54C117.686 332.394 124.538 334.179 131.138 337.646C137.558 341.008 142.694 345.903 146.402 351.938C147.362 353.493 148.658 354.402 150.062 354.794C151.454 352.721 151.994 350.037 151.766 347.331C151.346 342.287 148.454 337.657 144.566 334.329C140.45 330.805 135.362 328.605 130.202 326.866C128.138 326.163 125.726 325.622 124.034 324.229C122.03 322.57 122.966 320.198 123.77 318.159C127.454 308.831 129.83 296.393 122.51 287.986C121.07 286.327 119.258 285.13 117.29 284.496C118.178 290.635 118.274 296.888 117.446 303.05Z" fill="#2D2D2D"/>
</g>
<path d="M70.6701 364.756C57.0741 359.447 41.9181 351.408 42.7821 342.114C43.6461 332.82 47.8341 327.856 55.0581 329.826C62.2821 331.795 76.7061 348.483 110.222 346.905C143.738 345.327 152.198 344.164 154.478 347.412C156.758 350.659 162.098 359.7 152.582 366.587C143.066 373.474 113.402 374.315 98.9901 371.77C84.5781 369.224 70.6821 364.744 70.6821 364.744L70.6701 364.756Z" fill="#8DC6CC"/>
<path d="M62.2822 339.661C59.9782 343.634 58.1182 347.78 56.7502 352.145C56.1982 353.907 59.0182 354.84 59.5702 353.078C60.8662 348.955 62.5702 345.028 64.7542 341.262C65.6782 339.661 63.2182 338.049 62.2822 339.661Z" fill="#B2DBDB"/>
<path d="M74.2462 345.039C72.9022 349.266 71.8702 353.55 71.1262 357.903C70.8142 359.723 73.7902 359.884 74.1022 358.088C74.7982 353.988 75.7942 349.957 77.0662 345.984C77.6302 344.222 74.8102 343.289 74.2462 345.051V345.039Z" fill="#B2DBDB"/>
<path d="M87.35 348.84C86.75 352.94 86.15 357.051 85.538 361.151C85.274 362.971 88.25 363.144 88.514 361.335C89.114 357.235 89.714 353.124 90.326 349.024C90.59 347.204 87.614 347.032 87.35 348.84Z" fill="#B2DBDB"/>
<path d="M105.134 351.834C105.158 350.003 102.182 349.807 102.158 351.65C102.11 356.187 101.894 360.714 101.51 365.228C101.354 367.059 104.33 367.243 104.486 365.412C104.87 360.886 105.074 356.36 105.134 351.834Z" fill="#B2DBDB"/>
<path d="M121.346 364.629C121.022 360.771 121.022 356.913 121.298 353.043C121.43 351.201 118.454 351.028 118.322 352.859C118.034 356.982 118.082 361.082 118.43 365.205C118.586 367.036 121.502 366.437 121.346 364.618V364.629Z" fill="#B2DBDB"/>
<path d="M130.634 354.091C130.082 357.719 129.53 361.358 128.978 364.986C128.702 366.806 131.678 366.979 131.954 365.17C132.506 361.543 133.058 357.903 133.61 354.276C133.886 352.456 130.91 352.283 130.634 354.091Z" fill="#B2DBDB"/>
<path d="M146.87 352.928C146.786 351.109 143.81 350.901 143.894 352.744C144.074 356.913 143.774 361.024 142.982 365.124C142.634 366.932 145.61 367.094 145.958 365.309C146.75 361.209 147.062 357.097 146.87 352.928Z" fill="#B2DBDB"/>
<path d="M1037.24 246.088C1044.59 253.159 1052.09 260.092 1059.7 266.899C1062.88 269.743 1068.56 268.396 1070.95 265.321C1073.78 261.67 1072.49 257.374 1069.31 254.518C1065.95 251.501 1062.61 248.461 1059.31 245.386C1056.91 242.334 1054.44 239.351 1051.91 236.403L1051.88 236.38C1051.58 235.953 1051.3 235.516 1051.01 235.09C1050.29 233.95 1049.57 232.821 1048.85 231.681C1048.2 230.656 1047.54 229.608 1046.89 228.548C1045.5 226.164 1044.19 223.734 1042.94 221.258C1042.16 219.519 1041.49 217.734 1041.04 215.914C1038.28 204.893 1045.67 195.772 1055.38 190.739C1066.03 185.223 1078.99 183.714 1089.55 190.163C1098.08 195.369 1103.81 203.315 1108.68 211.665C1110.77 216.605 1112.82 221.569 1114.92 226.51C1118.83 235.712 1133.64 229.677 1129.73 220.464C1123.18 205.02 1117.86 187.238 1106.52 174.282C1096.2 162.477 1081.42 156.961 1065.53 159.794C1035.53 165.137 1005.94 193.86 1019.52 224.725C1023.26 233.247 1030.58 239.673 1037.26 246.1L1037.24 246.088Z" fill="#8DC6CC"/>
<g opacity="0.1">
<path d="M1059.7 266.899C1060.16 267.313 1060.68 267.624 1061.23 267.878C1064.56 264.296 1068 260.783 1071.59 257.409C1071.04 256.349 1070.26 255.371 1069.31 254.518C1066.81 252.284 1064.34 250.027 1061.88 247.758C1058.06 251.351 1054.38 255.06 1050.83 258.849C1053.77 261.555 1056.72 264.238 1059.7 266.91V266.899Z" fill="#2D2D2D"/>
</g>
<g opacity="0.1">
<path d="M1114.91 226.498C1115.22 227.224 1115.6 227.846 1116.04 228.399C1120.64 226.694 1125.4 225.324 1130.3 224.345C1130.46 223.147 1130.3 221.834 1129.72 220.452C1128.46 217.492 1127.24 214.44 1126.03 211.354C1120.68 212.483 1115.5 214.037 1110.47 215.938C1111.94 219.462 1113.42 222.974 1114.91 226.487V226.498Z" fill="#2D2D2D"/>
</g>
<path d="M1119.14 339.35C1129.15 341.435 1141.52 340.053 1150.69 335.676C1160.17 331.15 1168.19 322.766 1173.1 313.841C1177.97 304.973 1178.8 294.596 1174.84 285.268C1170.11 274.131 1160.41 266.046 1150.46 259.24C1144.92 255.451 1139.21 251.869 1133.99 247.654C1129.58 244.107 1125.79 240.065 1122.47 235.596C1122.46 235.447 1122.43 235.285 1122.41 235.136C1121.36 229.516 1116.26 226.13 1110.4 226.475C1104.77 226.821 1099.12 229.677 1094.33 232.337C1089.18 235.205 1084.6 238.879 1080.59 243.094C1077.05 246.825 1072.68 251.858 1074.66 257.271C1075.49 259.517 1077.31 261.336 1078.68 263.282C1080.42 265.747 1081.91 268.327 1083.18 271.033C1085.6 276.216 1087.07 281.605 1087.94 287.226C1089.64 298.166 1089.9 309.533 1094.7 319.783C1099.43 329.872 1107.8 336.989 1119.13 339.35H1119.14Z" fill="#FFAFBF"/>
<g opacity="0.1">
<path d="M1109.11 319.334C1105.43 314.255 1104.04 308.681 1103.02 302.646C1099.69 282.884 1092.36 262.488 1074.95 250.844C1074.11 252.883 1073.84 255.048 1074.66 257.271C1075.49 259.517 1077.31 261.336 1078.68 263.282C1080.42 265.747 1081.91 268.327 1083.18 271.033C1085.6 276.216 1087.07 281.605 1087.94 287.226C1089.64 298.166 1089.9 309.533 1094.7 319.783C1099.43 329.872 1107.8 336.989 1119.13 339.35C1124.38 340.444 1130.28 340.571 1136.03 339.822C1131.11 337.738 1126.52 334.778 1122.32 331.657C1117.51 328.075 1112.62 324.16 1109.11 319.323V319.334Z" fill="#2D2D2D"/>
</g>
<path d="M1042.86 290.404C1045.88 293.272 1051.33 293.721 1053.85 290.554C1078.96 258.86 1112.89 233.5 1154.7 227.443C1158.79 226.844 1160.86 221.846 1159.61 218.01C1158.16 213.565 1153.85 211.619 1149.74 212.206C1105.52 218.609 1068.59 245.789 1042.02 279.325C1039.51 282.481 1039.5 287.214 1042.86 290.404Z" fill="#FFAFBF"/>
<path d="M1013.5 537.415C1014.2 525.392 1014.61 513.196 1012.86 501.242C1011.06 488.965 1006.82 473.694 991.963 472.945C991.915 472.945 991.867 472.922 991.819 472.911V472.922C991.255 472.911 990.679 472.899 990.079 472.922C989.107 472.726 988.123 472.611 987.103 472.6C985.279 472.577 983.311 472.968 981.739 473.913C979.567 474.811 977.551 476.204 975.919 477.978C970.135 484.266 970.255 493.065 968.707 500.862C967.003 509.465 963.547 518.021 956.587 523.964C944.155 534.571 925.747 535.354 912.571 525.519C905.491 520.221 901.219 512.655 899.587 504.247C897.991 496.025 899.131 488.02 898.975 479.775C898.915 476.273 898.027 473.049 896.359 470.4C894.535 465.16 888.367 461.555 882.571 461.359C881.911 461.336 881.275 461.359 880.639 461.417C877.351 461.325 874.063 461.901 871.579 463.352C868.759 464.273 866.575 466.392 864.883 469.018C864.787 469.122 864.691 469.237 864.607 469.363C864.475 469.548 864.343 469.732 864.211 469.928C863.707 470.262 863.263 470.745 862.963 471.436C862.831 471.747 862.699 472.047 862.579 472.358C862.435 472.577 862.303 472.807 862.159 473.026C861.451 473.648 861.079 474.385 860.971 475.122C858.919 478.934 857.443 482.976 856.567 487.203C853.087 496.209 849.895 505.319 847.015 514.52C842.611 528.594 837.751 543.324 837.199 558.099C836.275 582.687 851.335 603.671 873.247 615.452C885.703 622.144 899.923 625.587 914.047 626.935C927.247 628.19 940.939 628.098 954.007 625.794C965.719 623.721 977.431 619.656 986.623 612.193C986.779 612.067 986.923 611.928 987.079 611.802C989.095 610.408 991.027 608.899 992.815 607.218C1002.07 598.523 1006.66 587.041 1009.4 575.098C1012.23 562.752 1012.76 550.003 1013.49 537.427L1013.5 537.415Z" fill="#FF7B9E"/>
<g opacity="0.1">
<path d="M879.655 472.669C887.155 480.35 884.647 493.767 886.675 503.591C889.375 516.593 895.171 526.843 905.731 535.538C916.735 544.602 935.155 549.542 949.831 544.867C963.163 540.617 972.871 530.851 977.563 518.655C982.939 504.662 979.663 485.302 988.447 472.692C988.015 472.646 987.571 472.611 987.127 472.611C985.303 472.588 983.335 472.98 981.763 473.924C979.591 474.822 977.575 476.216 975.943 477.989C970.159 484.277 970.279 493.076 968.731 500.873C967.027 509.476 963.571 518.033 956.611 523.975C944.179 534.582 925.771 535.365 912.595 525.53C905.515 520.233 901.243 512.666 899.611 504.259C898.015 496.036 899.155 488.032 898.999 479.786C898.939 476.285 898.051 473.06 896.383 470.411C894.559 465.171 888.391 461.567 882.595 461.371C882.403 461.371 882.223 461.371 882.031 461.371C881.707 461.544 881.467 461.993 881.083 461.97C876.199 461.751 876.703 469.663 879.655 472.692V472.669Z" fill="#2D2D2D"/>
</g>
<path d="M1086.2 503.902C1079.47 499.387 1069.77 498.996 1064.01 493.168C1058.83 487.928 1058.55 479.625 1054.95 473.463C1051.52 467.578 1045.35 463.605 1038.32 462.891C1037.86 462.845 1037.37 462.822 1036.87 462.799C1032.94 457.858 1025.8 455.877 1019.56 455.486C1004.44 454.553 990.103 461.521 980.155 472.174C975.223 477.46 971.359 483.805 969.115 490.577C966.259 499.192 965.875 508.866 960.847 516.72C951.691 531.035 927.667 537.922 915.091 523.607C903.511 510.443 905.143 489.955 899.371 474.339C896.347 466.15 890.599 459.091 883.399 453.632C879.919 450.994 875.911 449.186 872.191 446.906C873.691 445.628 874.951 444.084 875.839 442.23C878.455 436.748 876.343 429.147 870.463 426.418C863.887 423.366 857.239 427.616 856.243 434.203C855.691 437.842 856.759 441.274 858.691 444.28C856.015 444.28 853.267 443.739 850.807 443.094C840.979 440.549 827.539 436.414 826.435 424.99C825.991 420.383 818.575 421.397 819.019 426.003C819.751 433.593 824.851 439.65 831.487 443.497C838.915 447.793 849.151 451.213 857.875 451.432C860.155 451.49 862.507 451.236 864.739 450.649C865.339 451.11 865.951 451.547 866.575 451.95C873.967 456.741 881.275 459.897 886.231 467.394C891.079 474.73 893.311 483.379 895.219 491.763C898.687 507.034 902.035 526.693 917.827 534.928C931.879 542.241 949.891 538.129 961.027 527.799C966.847 522.398 970.231 515.73 972.271 508.267C974.563 499.848 975.739 491.291 980.503 483.725C988.435 471.114 1003.47 461.394 1019.26 462.661C1021.54 462.845 1024.59 463.294 1027.17 464.388C1024.21 465.609 1021.77 467.59 1020.96 470.573C1019.22 476.918 1025.97 482.562 1032.28 480.65C1037.23 479.153 1039.7 474.845 1039.63 470.354C1047.3 472.22 1049.88 479.878 1052.3 486.857C1055.08 494.85 1059.6 500.435 1067.76 503.879C1074.58 506.758 1089.58 509.741 1087.05 519.772C1085.91 524.263 1093.36 525.139 1094.49 520.682C1096.21 513.887 1091.83 507.656 1086.2 503.89V503.902ZM864.127 433.754C866.335 430.875 869.143 434.272 869.455 436.437C869.779 438.683 868.519 440.595 866.743 441.942C866.611 442.034 866.479 442.115 866.347 442.207C863.923 439.593 862.135 436.345 864.127 433.742V433.754ZM1031.67 472.692C1030.29 474.281 1027.35 473.786 1029.03 471.678C1029.62 470.941 1030.88 470.515 1032.24 470.262C1032.3 471.091 1032.19 472.104 1031.68 472.692H1031.67Z" fill="#FFAFBF"/>
<path d="M1015.22 559.712C1016.25 558.882 1017.28 557.685 1018.09 556.671C1020.22 553.976 1021.54 550.775 1022.23 547.481C1023.43 541.723 1021.78 536.344 1019 531.3C1018.29 530.01 1016.98 528.237 1016.78 527.073C1017.09 527.304 1018.76 524.747 1018.98 524.459C1022.54 519.795 1024.66 514.693 1024.42 508.843C1024.21 503.361 1021.52 498.339 1016.92 495.034C1015.16 493.767 1013.12 492.754 1010.97 491.89C1011.84 495.011 1012.42 498.213 1012.87 501.23C1014.62 513.184 1014.21 525.38 1013.52 537.404C1012.78 549.98 1012.24 562.729 1009.42 575.075C1006.69 587.018 1002.09 598.5 992.839 607.195C991.051 608.876 989.119 610.385 987.103 611.779C986.947 611.905 986.803 612.043 986.647 612.17C977.455 619.633 965.743 623.71 954.031 625.771C940.963 628.075 927.259 628.178 914.071 626.911C899.947 625.564 885.715 622.12 873.271 615.429C851.359 603.648 836.299 582.664 837.223 558.076C837.775 543.3 842.635 528.559 847.039 514.497C849.919 505.295 853.111 496.186 856.591 487.18C857.467 482.953 858.943 478.911 860.995 475.099C861.103 474.362 861.475 473.625 862.183 473.003C862.315 472.784 862.459 472.554 862.603 472.335C862.735 472.024 862.855 471.724 862.987 471.413C863.287 470.722 863.719 470.239 864.235 469.905C864.367 469.72 864.499 469.525 864.631 469.34C864.727 469.214 864.811 469.099 864.907 468.995C865.615 467.901 866.407 466.899 867.295 466.024C866.767 466.024 866.227 466.058 865.651 466.15C854.755 467.878 844.603 474.062 846.187 486.04C846.331 487.157 846.523 488.458 846.823 489.656C841.447 492.189 837.583 496.174 836.527 501.979C835.687 506.608 836.899 511.134 838.495 515.476C839.083 517.065 839.971 518.747 839.899 520.325C839.827 520.417 839.659 520.636 839.407 521.004C839.023 521.488 838.615 521.96 838.183 522.409C838.027 522.582 837.907 522.72 837.799 522.824C837.139 523.469 836.443 524.068 835.771 524.701C834.283 526.083 832.747 527.465 831.415 528.985C828.343 532.486 826.519 536.724 826.663 541.32C826.819 546.168 829.243 549.992 832.231 553.734C832.363 553.907 833.299 554.702 833.527 554.99C833.527 555.024 833.527 555.047 833.515 555.082C833.479 555.07 833.419 555.047 833.335 555.001C833.407 555.036 833.455 555.07 833.503 555.105C833.503 555.116 833.503 555.14 833.503 555.151C833.299 555.635 833.071 556.107 832.819 556.568C833.131 555.946 831.847 557.961 831.811 558.007C831.343 558.652 830.863 559.286 830.395 559.93C829.075 561.739 827.839 563.535 826.711 565.458C824.599 569.063 823.387 573.198 824.011 577.367C824.743 582.307 827.911 586.154 831.787 589.275C833.035 590.288 834.739 591.141 835.171 592.05C834.967 591.855 835.027 594.423 835.015 595.045C834.667 605.456 838.555 615.487 849.259 619.852C851.539 620.785 854.095 621.429 856.555 621.671C858.211 621.833 858.091 621.671 858.979 622.339C860.455 623.456 861.439 625.518 862.687 626.888C864.583 628.973 866.743 630.977 869.107 632.589C878.683 639.119 888.739 639.81 900.055 638.808C904.567 638.405 907.315 639.845 911.479 641.756C916.447 644.037 921.559 645.591 927.115 645.234C936.067 644.647 942.871 638.232 950.107 635.388C952.615 634.409 956.815 634.558 960.415 634.582C966.115 634.616 971.443 634.075 976.507 631.311C981.355 628.662 984.667 624.689 985.951 619.46C986.071 618.976 986.215 618.458 986.335 617.94C986.491 617.94 986.611 617.94 986.659 617.94C997.675 618.055 1007.76 611.537 1009.15 600.435C1009.45 598.074 1009.14 595.678 1008.75 593.34C1008.73 593.191 1008.62 592.799 1008.51 592.315C1009.4 591.935 1010.26 591.521 1010.59 591.406C1012.8 590.599 1014.94 589.528 1016.76 588.066C1026.39 580.303 1021.34 567.036 1015.2 559.677L1015.22 559.712ZM986.623 615.971C986.611 614.427 987.571 614.738 986.623 615.971V615.971ZM1014.81 560.034C1014.9 559.977 1014.98 559.907 1015.06 559.85C1014.94 560.575 1013.48 560.978 1014.81 560.034Z" fill="#FFAFBF"/>
<g opacity="0.1">
<path d="M978.655 579.739C964.771 591.509 949.387 602.358 933.751 611.871C924.523 617.491 914.755 622.316 904.483 625.679C907.663 626.209 910.867 626.635 914.059 626.934C927.259 628.19 940.951 628.098 954.019 625.794C965.731 623.721 977.443 619.656 986.635 612.193C986.791 612.066 986.935 611.928 987.091 611.802C989.107 610.408 991.039 608.899 992.827 607.218C1002.08 598.523 1006.68 587.041 1009.41 575.098C1012.24 562.752 1012.77 550.003 1013.5 537.427C1014.2 525.404 1014.61 513.207 1012.86 501.253C1012.29 497.407 1011.49 493.272 1010.19 489.379C1013.05 522.501 1005.56 556.948 978.643 579.751L978.655 579.739Z" fill="#2D2D2D"/>
</g>
<path d="M659.845 289.013C653.361 279.502 643.063 273.612 634.623 265.937C632.958 264.422 631.37 262.846 629.846 261.207C628.82 258.687 628.074 256.053 627.479 253.398C625.232 243.338 624.637 232.914 619.915 223.497C612.804 209.351 598.075 203.823 582.935 204.103C580.46 203.926 577.996 203.968 575.586 204.3C575.402 204.32 575.219 204.362 575.035 204.393C573.5 204.445 571.966 204.6 570.453 204.86C565.59 205.689 561.278 207.629 557.377 210.222C543.296 217.513 533.721 231.255 534.456 247.299C534.953 258.054 540.594 265.823 548.613 272.844C553.378 277.013 555.767 281.266 554.643 287.602C553.908 291.751 551.909 295.62 549.639 299.281C547.575 301.479 545.414 303.533 543.253 305.4C527.788 318.768 507.126 326.049 486.313 324.939C483.308 324.784 481.795 327.273 482.022 329.482C481.968 330.084 482.087 330.685 482.444 331.235C484.562 334.585 487.393 337.489 490.754 339.75C488.809 338.713 485.664 341.171 485.664 343.546C485.664 346.076 487.717 347.953 489.641 349.551C492.786 352.164 495.941 354.778 499.097 357.402C497.292 357.568 496.179 359.777 496.633 361.353C496.633 361.374 496.644 361.395 496.654 361.415C494.72 363.324 494.082 366.166 496.46 368.821C509.947 383.88 530.447 390.466 550.58 392.156C571.836 393.94 593.579 390.476 612.739 381.339C646.186 365.408 685.273 326.319 659.824 289.013H659.845Z" fill="#FFAFBF"/>
<g opacity="0.1">
<path d="M616.241 323.664C615.517 322.741 613.993 323.301 613.679 324.255C613.344 325.271 612.923 326.236 612.447 327.159C610.762 328.103 609.249 329.161 607.736 330.447C607.325 330.799 607.195 331.214 607.239 331.587C607.044 331.847 606.882 332.116 606.731 332.407C606.601 332.324 606.45 332.251 606.288 332.21C605.888 331.899 605.337 331.805 604.742 332.168C603.575 332.873 602.397 333.579 601.23 334.284C599.22 335.352 597.275 336.514 595.373 337.81C595.157 337.955 594.995 338.142 594.887 338.339C593.947 338.899 593.017 339.459 592.077 340.009C589.343 341.326 586.663 342.726 584.048 344.24C583.194 344.572 582.351 344.915 581.508 345.288C579.001 346.18 576.494 347.072 573.997 347.964C573.695 347.507 573.144 347.196 572.431 347.29C568.767 347.767 565.212 348.493 561.667 349.468C561.635 349.468 561.613 349.488 561.581 349.499C559.862 349.82 558.144 350.121 556.415 350.411C555.399 350.411 554.394 350.401 553.378 350.391C549.52 350.038 545.684 349.582 541.848 349.022C541.372 348.949 540.994 349.125 540.735 349.405C540.605 349.385 540.464 349.364 540.335 349.343C540.14 349.312 539.957 349.322 539.794 349.374C536.552 347.663 533.591 345.537 531.03 342.944C529.679 341.575 527.464 343.597 528.826 344.966C531.906 348.088 535.515 350.577 539.481 352.538C539.654 352.724 539.881 352.869 540.184 352.942C540.281 352.963 540.378 352.984 540.464 353.004C554.07 359.331 571.469 359.517 585.474 356.562C598.442 353.824 629.857 341.036 616.241 323.664Z" fill="#2D2D2D"/>
</g>
<path d="M660.894 227.034C659.024 223.746 653.134 224.223 650.022 224.513C640.21 225.426 631.608 226.878 622.152 225.26C621.471 225.001 620.779 224.721 620.077 224.399C619.764 224.513 619.45 224.659 619.234 224.866C618.251 225.8 618.067 227.905 617.97 229.129C617.678 233.101 618.694 237.26 620.109 240.973C621.363 244.25 623.103 246.501 625.826 247.787C627.307 247.216 628.755 246.594 630.16 245.92C632.451 245.515 634.688 245.007 636.806 244.395C641.906 242.933 665.984 235.984 660.894 227.044V227.034Z" fill="#FF7B9E"/>
<path d="M613.507 323.052C603.532 332.593 591.385 339.739 577.996 343.94C565.568 347.839 549.942 350.245 537.039 347.051C531.571 345.703 526.848 340.455 531.592 335.622C533.624 333.548 536.499 332.355 539.103 331.1C543.177 329.14 547.089 326.941 550.774 324.4C568.075 327.283 585.593 321.994 598.14 310.212C599.544 308.895 597.199 307.028 595.794 308.335C584.729 318.727 569.394 323.633 554.146 321.921C554.286 321.807 554.438 321.703 554.578 321.589C563.666 314.361 570.831 305.275 575.781 295.008C576.602 293.296 573.846 292.041 573.025 293.763C565.752 308.853 553.551 320.884 538.076 328.351C533.862 330.384 528.588 332.562 526.881 337.178C525.022 342.177 528.577 346.854 533.224 348.897C539.189 351.521 546.981 351.283 553.4 351.075C560.954 350.837 568.475 349.654 575.748 347.663C590.932 343.504 604.678 335.611 615.841 324.929C617.235 323.601 614.89 321.724 613.507 323.052Z" fill="#FF7B9E"/>
<path d="M592.336 231.172C590.294 231.981 589.116 234.107 589.883 236.161L590.002 236.472C590.726 238.39 593.168 239.625 595.2 238.826C597.243 238.017 598.42 235.891 597.653 233.837L597.534 233.526C596.81 231.608 594.368 230.373 592.336 231.172Z" fill="#514F50"/>
<path d="M571.036 283.921C580.384 282.987 589.613 281.431 598.604 278.787C607.563 276.163 616.251 272.761 624.767 269.027C627.75 267.721 630.603 266.289 633.402 264.765C632.18 263.603 630.992 262.421 629.857 261.207C629.349 259.963 628.917 258.697 628.528 257.401C626.388 258.552 624.194 259.641 621.947 260.647C613.236 264.526 604.353 268.052 595.135 270.656C586.555 273.072 577.726 274.566 568.832 275.385C564.293 275.8 559.744 275.821 555.194 275.468C553.713 275.354 552.233 275.115 550.752 274.898C553.324 277.656 554.816 280.581 554.924 284.221C555.637 284.273 556.361 284.335 557.074 284.377C561.743 284.616 566.39 284.377 571.036 283.921Z" fill="#FF7B9E"/>
<path d="M644.273 257.235C643.203 255.773 642.123 254.321 641.009 252.89C639.259 250.629 637.065 247.496 633.931 246.926C629.533 246.117 628.16 251.375 627.815 256.084C627.415 256.997 627.361 258.189 627.555 259.361C627.317 260.118 627.317 260.917 627.804 261.861C627.804 261.913 627.804 261.964 627.804 262.006C627.836 262.39 628.085 262.649 628.387 262.773C629.976 264.817 632.58 266.009 635.109 266.621C638.524 267.441 649.331 267.617 647.148 261.456C646.618 259.963 645.202 258.542 644.262 257.245L644.273 257.235Z" fill="#FFAFBF"/>
<path d="M625.405 261.788C620.628 260.813 606.547 259.465 610.373 267.918C612.091 271.724 614.803 275.136 618.099 277.791C620.25 279.534 623.989 282.738 626.896 280.56C629.76 278.424 628.96 273.466 628.474 270.552C628.193 268.882 627.566 264.775 625.934 262.805C626.096 262.39 625.977 261.892 625.394 261.778L625.405 261.788Z" fill="#FFAFBF"/>
<path d="M627.879 257.899C625.848 258.2 622.725 260.388 622.076 262.359C621.72 263.437 622.4 264.111 623.081 264.9C623.308 265.159 623.535 265.408 623.751 265.667C624.41 266.683 625.275 267.617 625.837 268.239C626.107 268.54 626.377 268.758 626.647 268.924C626.691 268.975 626.745 269.027 626.788 269.079C627.069 269.401 627.447 269.421 627.739 269.276C628.938 269.338 630.106 268.405 631.229 267.409C633.153 265.708 634.201 264.111 632.796 261.736C631.824 260.098 630.17 257.577 627.869 257.92L627.879 257.899Z" fill="#F993B3"/>
<path d="M113.964 192.467C113.388 191.292 112.176 190.509 110.82 190.497L84.9719 189.967L70.7759 169.237C70.0319 168.155 68.7119 167.568 67.3679 167.729C66.0239 167.89 64.8959 168.765 64.4399 169.998L55.9319 193.422L30.9959 199.975C29.6879 200.321 28.7039 201.346 28.4399 202.624C28.1879 203.903 28.7039 205.204 29.7839 205.999L50.3759 221.005L49.1639 245.789C49.1039 247.09 49.8119 248.311 50.9999 248.933C51.3599 249.117 51.7439 249.244 52.1279 249.313C53.0279 249.463 53.9759 249.267 54.7559 248.749L75.9959 234.595L100.176 243.359C101.448 243.819 102.876 243.543 103.86 242.656C104.844 241.769 105.228 240.422 104.832 239.178L97.3679 215.419L113.532 196.048C114.384 195.035 114.552 193.641 113.976 192.467H113.964Z" fill="#FFAFBF"/>
<g opacity="0.1">
<path d="M104.82 239.167L97.3558 215.408L113.52 196.037C114.372 195.023 114.54 193.63 113.964 192.455C113.424 191.361 112.332 190.612 111.084 190.509C110.424 198.133 99.8878 203.903 94.7878 208.383C90.7198 211.953 89.1238 215.051 91.3678 220.153C93.3838 224.748 95.0878 229.47 96.2158 234.33C96.3238 234.79 96.3598 235.62 96.4798 236.357C96.3838 236.357 96.2878 236.357 96.1918 236.357C93.6358 236.311 91.0798 236.149 88.5358 235.884C85.6078 235.585 82.7038 235.147 79.8118 234.606C77.0998 234.099 74.4958 233.535 71.7718 234.341C67.0798 235.735 63.0358 239.685 59.2798 242.564C56.5318 244.672 53.8318 246.814 51.1438 248.99C51.4558 249.129 51.7678 249.244 52.0918 249.29C52.9918 249.44 53.9398 249.244 54.7198 248.725L75.9598 234.571L100.14 243.336C101.196 243.716 102.336 243.589 103.26 243.036C103.896 242.53 104.4 241.908 104.772 241.194C104.988 240.549 105.012 239.835 104.796 239.155L104.82 239.167Z" fill="#2D2D2D"/>
</g>
<path d="M1411.22 137.542C1410.53 136.805 1409.46 136.482 1408.47 136.759L1389.46 141.78L1374.36 129.607C1373.57 128.973 1372.48 128.824 1371.53 129.215C1370.58 129.618 1369.96 130.494 1369.91 131.484L1369.02 150.383L1352.3 160.391C1351.42 160.921 1350.93 161.877 1351.04 162.855C1351.14 163.846 1351.82 164.687 1352.79 165.032L1371.24 171.689L1376 190.058C1376.25 191.025 1377.04 191.762 1378.05 191.981C1378.35 192.05 1378.66 192.062 1378.96 192.016C1379.66 191.935 1380.3 191.601 1380.75 191.06L1393.05 176.272L1412.72 177.608C1413.76 177.677 1414.73 177.182 1415.25 176.33C1415.76 175.478 1415.74 174.407 1415.16 173.577L1404.3 157.777L1411.71 140.237C1412.09 139.315 1411.91 138.267 1411.22 137.53V137.542Z" fill="#FFAFBF"/>
<g opacity="0.1">
<path d="M1415.15 173.589L1404.29 157.788L1411.7 140.248C1412.08 139.327 1411.9 138.279 1411.2 137.542C1410.57 136.851 1409.6 136.528 1408.66 136.724C1409.91 142.436 1403.52 148.863 1400.82 153.193C1398.66 156.648 1398.21 159.251 1401 162.51C1403.52 165.447 1405.84 168.533 1407.77 171.861C1407.95 172.172 1408.17 172.771 1408.43 173.29C1408.36 173.313 1408.29 173.336 1408.22 173.347C1406.33 173.854 1404.44 174.268 1402.52 174.602C1400.31 174.994 1398.09 175.293 1395.86 175.501C1393.77 175.697 1391.73 175.835 1389.92 176.986C1386.8 178.99 1384.74 182.722 1382.66 185.612C1381.13 187.731 1379.64 189.862 1378.17 192.016C1378.42 192.05 1378.68 192.062 1378.94 192.039C1379.63 191.958 1380.28 191.624 1380.72 191.083L1393.02 176.295L1412.69 177.631C1413.54 177.689 1414.36 177.355 1414.9 176.768C1415.25 176.261 1415.48 175.708 1415.58 175.098C1415.6 174.579 1415.45 174.05 1415.14 173.6L1415.15 173.589Z" fill="#2D2D2D"/>
</g>
<path d="M433.705 156.481C433.705 156.481 433.705 156.471 433.705 156.461C433.37 156.119 433.025 155.757 432.669 155.396C432.669 155.396 432.648 155.376 432.648 155.366C432.627 155.346 432.596 155.336 432.575 155.315C432.544 155.295 432.512 155.265 432.481 155.245C431.622 154.944 430.754 154.652 429.874 154.411C429.906 154.431 429.927 154.441 429.948 154.462C428.21 153.979 426.451 153.598 424.672 153.366C416.779 152.342 408.865 151.317 400.962 150.343C397.288 149.891 393.614 149.519 389.929 149.278C389.186 149.227 388.443 149.197 387.7 149.157C387.721 149.157 387.731 149.157 387.752 149.157C387.532 149.147 387.302 149.137 387.082 149.127C386.946 149.127 386.799 149.107 386.663 149.107C386.59 149.107 386.517 149.107 386.443 149.107C386.245 149.107 386.035 149.097 385.836 149.087C385.198 149.067 384.549 149.047 383.91 149.027C383.774 149.027 383.628 149.027 383.492 149.016C383.324 149.016 383.157 149.017 382.989 149.006C382.864 149.006 382.748 149.006 382.623 149.006C381.932 149.006 381.251 149.006 380.561 149.006C380.466 149.006 380.362 149.006 380.267 149.006C380.048 149.006 379.817 149.006 379.598 149.006C379.545 149.006 379.503 149.006 379.451 149.006C378.394 149.027 377.347 149.057 376.29 149.107C372.846 149.278 369.454 149.217 366.01 149.187C365.34 149.187 364.66 149.197 363.99 149.238C363.969 149.238 363.948 149.238 363.927 149.238C363.77 149.238 363.603 149.258 363.446 149.268C363.226 149.278 363.006 149.298 362.776 149.308C362.577 149.318 362.378 149.328 362.169 149.348C362.169 149.348 362.169 149.348 362.158 149.348C361.509 149.388 360.871 149.438 360.222 149.479C360.201 149.479 360.18 149.479 360.148 149.479C359.73 149.509 359.311 149.519 358.882 149.539C358.432 149.559 357.982 149.589 357.531 149.589C346.362 151.89 345.818 154.04 343.567 158.259C340.699 163.624 339.768 191.683 310.133 201.106C280.499 210.529 269.539 168.526 254.141 175.157C244.658 179.235 237.56 182.611 232.452 185.785C229.27 187.654 226.308 189.874 223.366 192.145C217.494 196.675 211.087 200.744 204.744 204.632C201.562 206.581 198.411 208.51 195.449 210.77C193.847 211.986 191.439 213.161 190.466 214.98C189.262 217.22 190.696 220.364 191.345 222.504C192.57 226.543 194.088 230.491 195.522 234.459C198.076 241.542 200.777 248.855 203.99 255.687C206.011 259.986 209.015 262.006 213.935 261.795C224.622 261.332 234.399 256.189 244.082 251.397C257.397 285.795 267.425 332.198 268.587 346.644C270.01 364.356 295.374 343.711 320.633 369.841C345.881 395.971 345.609 397.799 371.213 391.31C396.817 384.82 389.04 350.874 397.56 337.613C406.081 324.352 426.336 321.589 432.083 310.9C437.411 300.995 408.698 254.602 400.638 209.082C407.683 207.385 414.769 205.948 421.94 204.662C428.273 203.527 434.103 203.175 435.14 194.385C436.165 185.705 436.27 176.282 435.475 167.12C435.475 166.969 435.495 166.828 435.495 166.668C435.495 164.729 435.579 162.277 435.433 159.907C435.223 159.183 435.045 158.46 434.857 157.757C434.501 157.305 434.114 156.883 433.705 156.451V156.481Z" fill="#AFE4E8"/>
<path d="M321.261 209.715C334.293 204.23 342.364 192.285 347.514 179.004C351.031 169.923 354.192 160.087 355.543 150.041C353.92 150.423 352.559 150.795 351.418 151.186C350.225 158.48 348.079 165.593 345.755 172.474C341.369 185.444 334.638 198.464 322.454 204.692C296.557 217.943 270.638 196.706 254.068 175.207C252.843 175.729 251.66 176.252 250.519 176.754C267.519 199.056 293.919 221.228 321.261 209.715Z" fill="#8DC6CC"/>
<path d="M320.256 352.371C312.667 346.152 304.167 343.711 294.966 342.174C289.575 341.27 284.121 340.285 278.73 340.958C275.15 341.4 271.696 342.415 268.21 343.309C268.367 344.555 268.493 345.7 268.566 346.665C268.587 346.906 268.629 347.107 268.65 347.338C272.764 346.273 276.846 344.987 281.106 344.736C285.681 344.464 290.475 345.409 295.018 346.182C307.014 348.212 315.462 352.783 324.663 361.553C332.587 369.098 339.946 376.803 345.452 386.477C346.907 389.039 348.299 391.611 349.754 394.133C351.199 394.414 352.706 394.534 354.349 394.484C350.874 388.808 347.985 382.67 344.112 377.185C337.559 367.922 328.881 359.463 320.235 352.371H320.256Z" fill="#8DC6CC"/>
<path d="M389.73 342.626C393.698 333.645 398.921 323.86 406.207 317.521C413.419 311.242 422.589 304.812 432.146 303.054C431.884 301.849 431.528 300.533 431.12 299.146C421.353 300.894 412.55 307.183 404.971 313.341C396.377 320.334 390.285 331.254 385.878 341.631C381.859 351.115 380.278 361.503 380.173 372.021C380.121 376.853 380.393 381.706 380.822 386.548C382.277 385.332 383.523 383.956 384.612 382.459C384.277 377.476 383.984 373.106 383.994 372.152C384.099 361.894 385.658 351.808 389.72 342.626H389.73Z" fill="#8DC6CC"/>
<path d="M201.153 223.448C199.552 219.36 197.102 214.738 196.202 210.238C195.951 210.419 195.7 210.599 195.448 210.79C194.621 211.413 193.585 212.036 192.643 212.729C193.533 215.743 194.883 218.676 196.014 221.57C198.338 227.527 200.62 233.485 203.048 239.402C206.136 246.936 209.433 254.561 213.306 261.795C213.516 261.795 213.715 261.815 213.945 261.795C215.243 261.734 216.531 261.614 217.797 261.423C213.704 254.009 210.25 246.143 207.057 238.367C205.026 233.414 203.111 228.421 201.164 223.438L201.153 223.448Z" fill="#8DC6CC"/>
<path d="M429.885 182.932C430.188 173.8 430.68 163.734 429.351 154.331C427.917 153.949 426.483 153.648 425.028 153.437C426.598 162.981 426.043 173.509 425.729 182.832C425.562 187.855 425.373 192.888 425.164 197.911C425.08 199.92 425.028 202.03 424.923 204.15C426.399 203.879 427.791 203.557 429.068 203.075C429.11 202.351 429.142 201.638 429.194 200.935C429.571 194.948 429.696 188.93 429.895 182.932H429.885Z" fill="#8DC6CC"/>
<g opacity="0.05">
<path d="M371.077 349.357C365.686 346.675 360.483 343.731 354.967 341.29C344.74 336.779 335.12 331.967 325.814 325.869C316.77 319.942 309.558 315.16 301.644 308.158C293.354 300.824 287.22 293.149 281.305 284.007C275.286 274.694 269.456 265.482 264.777 255.466C259.867 244.947 256.329 234.168 253.388 222.996C250.028 210.258 246.479 197.55 243.276 184.771C242.92 183.364 242.585 181.958 242.25 180.541C238.398 182.4 235.142 184.128 232.452 185.796C229.27 187.664 226.308 189.884 223.366 192.155C217.494 196.686 211.087 200.754 204.744 204.642C201.562 206.591 198.411 208.52 195.449 210.78C193.847 211.996 191.439 213.171 190.466 214.99C189.262 217.23 190.696 220.374 191.345 222.514C192.57 226.553 194.088 230.501 195.522 234.469C198.076 241.552 200.777 248.865 203.99 255.697C206.011 259.996 209.015 262.016 213.935 261.805C224.622 261.343 234.399 256.199 244.082 251.407C257.397 285.805 267.425 332.208 268.587 346.655C270.01 364.366 295.374 343.721 320.633 369.851C345.881 395.981 345.609 397.81 371.213 391.32C387.867 387.1 390.4 371.258 392.473 357.052C389.678 356.138 386.873 355.204 384.088 354.259C379.441 352.692 375.107 351.346 371.087 349.347L371.077 349.357Z" fill="#2D2D2D"/>
</g>
<path d="M383.722 229.838C383.073 227.648 382.497 225.196 381.743 222.916C381.618 222.394 381.492 221.861 381.367 221.339C380.351 217.35 378.666 217.702 374.95 218.245C369.454 219.058 364.095 220.525 358.725 221.851C354.381 222.926 349.838 224.292 345.713 225.96C342.416 227.296 344.667 232.239 345.399 235.002C347.409 242.586 349.9 252.02 355.365 258.409C357.333 261.001 359.897 263.583 362.504 264.527C366.942 266.135 372.019 264.517 376.091 262.809C379.639 261.322 384.549 258.72 385.962 254.732C386.705 252.622 386.37 249.639 386.286 247.419C386.182 244.897 385.993 242.365 385.47 239.884C385.313 236.498 384.653 233.002 383.722 229.828V229.838Z" fill="#8DC6CC"/>
<g opacity="0.4">
<path d="M226.438 920.017C221.53 920.178 217.427 923.149 215.735 927.272C213.755 923.276 209.447 920.57 204.551 920.731C197.963 920.938 192.803 926.236 193.019 932.559C193.619 949.684 216.827 958.563 216.827 958.563C216.827 958.563 239.338 947.484 238.774 931.096C238.558 924.773 233.039 919.821 226.451 920.028L226.438 920.017Z" fill="#8DC6CC"/>
<g opacity="0.1">
<path d="M236.519 929.841C236.039 934.724 233.291 939.572 230.711 943.718C227.255 949.258 222.755 954.129 217.559 958.172C221.411 956.099 239.279 945.711 238.775 931.073C238.643 927.388 236.711 924.163 233.819 922.159C235.583 924.37 236.831 926.858 236.531 929.841H236.519Z" fill="#2D2D2D"/>
</g>
</g>
<g opacity="0.4">
<path d="M167.484 720.149C164.472 721.68 162.84 724.744 163.092 727.807C160.584 725.884 157.032 725.458 154.02 726.99C149.976 729.051 148.428 733.865 150.564 737.746C156.372 748.272 173.688 747.04 173.688 747.04C173.688 747.04 184.248 733.543 178.692 723.465C176.544 719.584 171.528 718.099 167.484 720.149Z" fill="#8DC6CC"/>
<g opacity="0.1">
<path d="M176.892 723.35C178.14 726.54 177.96 730.376 177.66 733.715C177.252 738.184 175.992 742.549 174.024 746.591C175.776 744.173 183.648 732.46 178.692 723.466C177.444 721.197 175.212 719.746 172.764 719.343C174.576 720.206 176.136 721.404 176.892 723.35Z" fill="#2D2D2D"/>
</g>
</g>
<g opacity="0.4">
<path d="M78.377 709.103C75.089 708.251 71.717 709.414 69.725 711.821C69.269 708.781 66.977 706.132 63.677 705.28C59.249 704.128 54.701 706.639 53.501 710.888C50.261 722.382 63.797 732.827 63.797 732.827C63.797 732.827 81.113 729.879 84.221 718.869C85.421 714.62 82.805 710.255 78.377 709.103Z" fill="#8DC6CC"/>
<g opacity="0.1">
<path d="M82.9851 717.614C81.6291 720.77 78.7731 723.453 76.1691 725.699C72.6891 728.705 68.6691 731.054 64.3491 732.724C67.3491 732.102 81.4371 728.693 84.2091 718.881C84.9051 716.405 84.3051 713.883 82.8051 711.982C83.5131 713.802 83.8011 715.691 82.9731 717.614H82.9851Z" fill="#2D2D2D"/>
</g>
</g>
<g opacity="0.4">
<path d="M721.027 909.925C717.619 909.729 714.571 911.526 713.119 914.267C712.027 911.376 709.231 909.234 705.823 909.026C701.251 908.762 697.315 912.101 697.039 916.489C696.283 928.374 711.739 935.987 711.739 935.987C711.739 935.987 728.071 929.745 728.803 918.355C729.079 913.967 725.599 910.19 721.027 909.925Z" fill="#8DC6CC"/>
<g opacity="0.1">
<path d="M727.327 917.364C726.655 920.716 724.435 923.894 722.359 926.601C719.587 930.217 716.143 933.303 712.267 935.78C715.075 934.593 728.155 928.524 728.803 918.366C728.971 915.81 727.843 913.46 725.983 911.882C727.051 913.518 727.747 915.326 727.339 917.364H727.327Z" fill="#2D2D2D"/>
</g>
</g>
<path d="M1242.38 906.788C1241.98 906.201 1241.26 905.89 1240.52 905.993L1226.63 907.859L1217.15 897.932C1216.66 897.413 1215.89 897.206 1215.18 897.402C1214.47 897.598 1213.94 898.162 1213.81 898.853L1211.36 912.109L1198.6 917.694C1197.92 917.982 1197.49 918.616 1197.47 919.318C1197.44 920.021 1197.84 920.677 1198.49 921.011L1210.87 927.334L1212.46 940.705C1212.54 941.407 1213.03 941.995 1213.72 942.236C1213.92 942.305 1214.14 942.34 1214.35 942.34C1214.84 942.34 1215.34 942.167 1215.71 941.822L1225.8 932.47L1239.54 935.154C1240.27 935.292 1241 935.027 1241.45 934.474C1241.89 933.921 1241.98 933.161 1241.65 932.528L1235.51 920.424L1242.42 908.711C1242.78 908.101 1242.74 907.341 1242.34 906.754L1242.38 906.788Z" fill="#FFAFBF"/>
<g opacity="0.1">
<path d="M1241.7 932.562L1235.56 920.458L1242.47 908.746C1242.83 908.135 1242.79 907.375 1242.38 906.788C1242 906.247 1241.34 905.936 1240.67 905.982C1241 910.116 1235.88 914.089 1233.55 916.911C1231.69 919.157 1231.13 920.953 1232.78 923.499C1234.28 925.79 1235.62 928.174 1236.66 930.685C1236.76 930.927 1236.85 931.364 1236.98 931.744C1236.94 931.744 1236.88 931.756 1236.83 931.767C1235.46 931.952 1234.07 932.078 1232.69 932.148C1231.09 932.228 1229.5 932.24 1227.9 932.194C1226.4 932.148 1224.96 932.055 1223.57 932.723C1221.18 933.864 1219.37 936.317 1217.62 938.171C1216.33 939.53 1215.08 940.9 1213.84 942.294C1214.02 942.34 1214.2 942.374 1214.38 942.374C1214.87 942.374 1215.36 942.202 1215.73 941.856L1225.82 932.505L1239.56 935.188C1240.16 935.303 1240.76 935.142 1241.21 934.773C1241.51 934.451 1241.72 934.071 1241.86 933.656C1241.92 933.288 1241.86 932.908 1241.69 932.562H1241.7Z" fill="#2D2D2D"/>
</g>
<g opacity="0.4">
<path d="M1228.7 257.144C1225.42 256.292 1222.04 257.455 1220.05 259.862C1219.6 256.822 1217.3 254.173 1214 253.321C1209.58 252.169 1205.03 254.68 1203.83 258.929C1200.59 270.423 1214.12 280.868 1214.12 280.868C1214.12 280.868 1231.44 277.92 1234.55 266.91C1235.75 262.661 1233.13 258.296 1228.7 257.144Z" fill="#8DC6CC"/>
<g opacity="0.1">
<path d="M1233.31 265.643C1231.96 268.799 1229.1 271.482 1226.5 273.728C1223.02 276.734 1219 279.083 1214.68 280.753C1217.68 280.131 1231.76 276.722 1234.54 266.91C1235.23 264.434 1234.63 261.912 1233.13 260.012C1233.84 261.831 1234.13 263.72 1233.3 265.643H1233.31Z" fill="#2D2D2D"/>
</g>
</g>
<path d="M722.133 434.745C719.781 430.115 715.929 425.831 710.997 423.597C705.717 421.201 699.716 421.431 694.052 422.019C692.72 422.157 691.424 422.353 690.152 422.595C687.944 418.506 684.776 414.971 680.6 412.552C675.512 409.592 669.008 407.738 663.044 408.13C660.86 408.268 658.701 408.706 656.613 409.385C656.241 408.867 655.868 408.36 655.472 407.865C652.82 404.56 649.868 401.646 646.172 399.423C642.908 397.465 639.14 396.049 635.348 395.45C619.868 392.974 602.588 400.92 595.28 414.337C593.888 416.894 593.073 419.531 592.713 422.203C591.285 422.618 589.88 423.124 588.536 423.712C581.144 426.959 574.089 432.441 570.129 439.34C565.869 446.757 565.988 455.878 570.308 463.191C574.412 470.135 582.752 474.788 590.672 476.516C595.268 477.518 600.165 477.978 604.857 477.402C606.861 477.149 608.888 476.769 610.844 476.205C614.324 477.806 617.997 479.026 621.741 480.086C624.441 480.857 627.248 481.065 630.032 481.226C632.996 481.399 635.912 481.33 638.828 480.777C645.14 479.579 650.672 476.573 655.352 472.358C655.916 471.84 656.469 471.299 656.985 470.723C657.405 470.919 657.837 471.114 658.269 471.287C662.913 473.107 668.18 473.821 673.136 474.397C683.528 475.606 693.8 474.247 703.352 470.101C708.068 468.051 712.509 465.609 715.953 461.82C718.905 458.573 721.041 454.657 722.541 450.626C724.521 445.271 724.808 439.973 722.156 434.756L722.133 434.745Z" fill="white"/>
<path d="M840.132 680.745C837.78 676.115 833.928 671.831 828.996 669.597C823.716 667.201 817.716 667.431 812.052 668.019C810.72 668.157 809.424 668.353 808.152 668.595C805.944 664.506 802.776 660.971 798.6 658.552C793.512 655.592 787.008 653.738 781.044 654.13C778.86 654.268 776.7 654.706 774.612 655.385C774.24 654.867 773.868 654.36 773.472 653.865C770.82 650.56 767.868 647.646 764.172 645.423C760.908 643.465 757.14 642.049 753.348 641.45C737.868 638.974 720.588 646.92 713.28 660.337C711.888 662.894 711.072 665.531 710.712 668.203C709.284 668.618 707.88 669.124 706.536 669.712C699.144 672.959 692.088 678.441 688.128 685.34C683.868 692.757 683.988 701.878 688.308 709.191C692.412 716.135 700.752 720.788 708.672 722.516C713.268 723.518 718.164 723.978 722.856 723.402C724.86 723.149 726.888 722.769 728.844 722.205C732.324 723.806 735.996 725.026 739.74 726.086C742.44 726.857 745.248 727.065 748.032 727.226C750.996 727.399 753.912 727.33 756.828 726.777C763.14 725.579 768.672 722.573 773.352 718.358C773.916 717.84 774.468 717.299 774.984 716.723C775.404 716.919 775.836 717.114 776.268 717.287C780.912 719.107 786.18 719.821 791.136 720.397C801.528 721.606 811.8 720.247 821.352 716.101C826.068 714.051 830.508 711.609 833.952 707.82C836.904 704.573 839.04 700.657 840.54 696.626C842.52 691.271 842.808 685.973 840.156 680.756L840.132 680.745Z" fill="white"/>
</g>
</svg>
