<svg width="132" height="161" viewBox="0 0 132 161" fill="none" xmlns="http://www.w3.org/2000/svg">
<path d="M31.2056 53.9715C42.9543 43.7171 60.7484 40.4092 75.778 45.371C87.6995 49.3405 97.3731 57.9393 104.63 67.6975C111.884 77.6194 116.722 88.7008 121.56 99.7805C123.806 104.908 126.225 110.366 126.743 115.989C127.261 121.611 125.879 127.73 121.733 131.7C113.958 138.977 101.174 136.165 90.8077 133.023C80.6157 129.88 70.5948 126.573 60.4028 123.43C46.4081 118.966 19.4587 112.185 14.9666 96.3089C11.3383 82.912 21.1865 62.5703 31.2056 53.9715ZM10.82 133.684C14.2755 135.669 19.2859 133.684 21.1865 130.211C23.087 126.407 21.532 121.28 17.9037 119.132C6.67337 112.35 2.52677 128.888 10.82 133.684ZM114.303 57.9393C117.759 59.924 122.769 57.9393 124.67 54.4677C126.57 50.6636 125.015 45.5364 121.387 43.3863C110.158 36.6052 106.012 53.1445 114.303 57.9393Z" fill="#E4CDD1"/>
<mask id="mask0_118_20" style="mask-type:luminance" maskUnits="userSpaceOnUse" x="2" y="45" width="130" height="97">
<path d="M2.5343 45.7125H131.151V141.628H2.5343V45.7125Z" fill="white"/>
</mask>
<g mask="url(#mask0_118_20)">
<path d="M92.379 141.75C89.7877 141.75 87.0253 141.585 84.0884 141.089C65.605 138.284 47.8109 131.35 32.61 120.949C32.2645 120.619 32.0917 120.124 32.4372 119.794C32.7827 119.463 33.301 119.298 33.6465 119.629C48.6747 129.865 66.2961 136.799 84.4339 139.44C94.6249 140.924 101.881 139.77 106.545 135.808C114.318 129.039 112.072 116.824 110 110.055C105.854 96.1882 98.4256 83.1456 88.7529 72.0858C80.806 63.1706 67.8491 51.7807 50.7478 48.3137C34.6831 45.1768 18.1001 50.625 9.63491 61.8499C4.97044 67.9584 3.24286 76.3783 4.79768 84.3013C6.17975 91.2353 10.1532 96.8486 15.6814 100.314C16.027 100.479 16.1997 101.139 16.027 101.47C15.8542 101.8 15.1632 101.965 14.8177 101.8C8.77112 98.1694 4.62492 92.0608 3.24286 84.7966C1.51704 76.5434 3.41562 67.6282 8.25285 61.1895C17.0635 49.4693 34.3376 43.691 51.0934 46.9929C68.5402 50.4599 81.8426 62.1801 89.9604 71.2604C99.8076 82.4852 107.236 95.6929 111.555 109.724C113.627 116.824 116.045 129.865 107.582 137.129C103.954 140.264 98.9439 141.75 92.379 141.75ZM21.2097 140.924C23.6266 140.264 25.6997 138.615 26.7362 136.468C28.8093 132.341 27.2545 126.728 23.1101 124.251C19.1366 121.94 16.3725 122.435 14.6449 123.261C12.0535 124.581 10.4987 127.553 10.3259 131.02C10.1532 134.983 12.0535 138.45 15.1632 140.264C16.1997 140.924 17.409 141.254 18.7911 141.254C19.6549 141.254 20.3459 141.089 21.2097 140.924ZM22.2463 125.737C25.5269 127.718 26.909 132.341 25.1814 135.808C24.3176 137.459 22.5918 138.78 20.6914 139.44C18.9639 139.935 17.409 139.77 16.1997 138.945C13.0901 137.129 12.2263 133.827 12.2263 131.185C12.399 128.214 13.6084 125.902 15.5087 124.747C16.1997 124.416 16.8908 124.251 17.7545 124.251C19.1366 124.251 20.5187 124.747 22.2463 125.737ZM124.683 65.3169C127.102 64.6565 129.175 63.0055 130.211 60.8593C132.284 56.7319 130.73 51.1203 126.583 48.6438C122.61 46.3325 119.846 46.8278 118.118 47.6533C115.527 48.974 113.972 51.9458 113.799 55.4128C113.627 59.3734 115.527 62.8404 118.637 64.6565C119.673 65.3169 120.882 65.6471 122.264 65.6471C123.128 65.6471 123.992 65.482 124.683 65.3169ZM125.72 50.1297C129.002 52.1109 130.384 56.7319 128.657 60.1989C127.793 61.8499 126.065 63.1706 124.165 63.831C122.437 64.3263 120.882 64.1612 119.673 63.3357C116.563 61.5197 115.7 58.2177 115.7 55.5779C115.872 52.6062 117.082 50.2948 118.982 49.1391C119.673 48.8089 120.364 48.6438 121.228 48.6438C122.61 48.6438 124.165 49.1391 125.72 50.1297Z" fill="#FF98A9"/>
</g>
<path fill-rule="evenodd" clip-rule="evenodd" d="M28.4054 119.561C33.698 130.081 37.9953 145.951 33.4351 160.943C44.7668 147.893 29.8419 121.266 28.4054 119.561ZM77.1773 42.4249C82.0093 48.7002 74.7948 55.0933 70.2328 55.0933C74.2866 56.0167 81.3634 51.4956 80.1245 44.709C79.7804 42.7999 78.6068 41.0709 77.465 39.9238L77.495 39.6311L78.3774 37.7507C79.9198 23.587 59.6158 10.7251 50.31 11.3862L50.2942 11.3643L50.3806 11.0212L50.4689 9.41995L50.2942 7.82546C49.7877 3.44735 43.0038 -0.342088 38.7542 0.0245766C33.4404 0.485431 30.5708 1.71325 28.8501 4.48174C26.5753 8.14167 27.2318 11.7528 28.6066 16.0149C26.5312 15.9493 23.9546 14.3481 24.447 12.5248C22.8569 14.7618 24.9411 17.4462 28.2695 17.8835C27.6289 18.4016 26.8647 18.7178 24.9993 20.2147C10.6304 31.3072 28.9807 46.9241 21.1397 57.623C19.7208 59.5673 18.4096 59.4058 16.846 59.1519C18.2508 60.309 18.662 60.7094 20.6103 60.2233C21.2438 60.0652 21.8633 59.1905 22.3698 58.8928C19.4491 67.4758 13.2105 69.8407 7.99023 75.3474C4.25063 79.2932 -1.75498 83.4342 0.488081 89.4572C7.94434 109.466 24.9746 133.119 24.964 152.059C24.964 154.786 24.1222 157.603 23.0263 160.377C26.6106 158.722 26.9212 156.108 27.5001 152.357C30.3025 134.273 0.452785 92.1669 4.57888 84.3441C9.17264 75.6215 20.5821 73.6789 22.3963 58.8727C31.8309 47.2201 12.9264 32.3786 26.5418 21.8613C27.9713 20.7597 29.5807 20.3039 30.6467 19.3065C33.9822 17.5505 34.2804 14.4692 33.3574 12.6106C33.4245 13.3692 32.9427 15.189 31.8097 16.5548C31.7691 15.4834 31.1038 14.8779 30.9396 14.491C28.1001 7.71782 30.7296 5.35804 34.3828 3.71814C39.7654 1.29445 45.8892 3.88297 47.384 8.69335C48.1941 11.2869 47.5111 13.9141 44.1809 14.9216C43.7715 15.0427 46.9216 14.3027 48.4799 14.1126C46.1328 16.2218 41.4667 17.3503 38.9765 17.0173C41.1366 18.5513 49.3006 17.5202 51.3954 14.7837C51.5754 14.8207 51.7236 14.8375 51.8366 14.8392C60.83 15.1705 76.1008 24.3136 75.9225 37.4951C75.8872 40.1744 63.4701 36.7096 60.5741 34.846C55.4721 31.5578 52.7137 30.1988 51.5295 25.8021L51.3019 25.8728C51.7554 31.3274 55.5109 33.6081 59.4888 35.9325C55.4085 36.3244 49.5635 43.1733 45.7957 40.4149C40.2436 36.3463 37.4006 29.6908 37.8982 23.841L37.6265 23.8057C36.9717 28.4294 37.8594 33.4231 41.7773 39.4781C41.7543 39.4831 41.7155 39.4882 41.7155 39.4882C38.3553 39.981 37.5276 44.1405 37.4341 46.8383C37.2841 51.2988 35.4487 52.7436 26.1941 56.4305L26.1482 56.7366C27.6907 57.1537 28.6278 56.084 30.202 55.7375C28.7213 59.0139 28.5395 62.8976 31.342 65.3314L31.6067 65.1144C29.7661 60.8052 31.1761 57.5204 33.6733 54.4727C36.4617 53.0666 37.217 53.0178 38.9553 50.7993C39.4548 51.5293 39.9595 52.2575 40.2348 53.0464L40.5207 53.08C40.8807 51.4351 39.5977 49.9112 39.2359 48.3655C38.283 44.3339 41.1119 40.9683 45.2786 43.5181C48.1535 45.2707 50.7248 43.9723 53.972 41.2912C57.4892 38.3899 57.6057 37.9273 62.3018 38.844C63.7313 39.1215 63.7049 40.0113 62.2612 40.4402C51.4678 43.6527 49.0465 53.9008 52.8884 60.3326L53.2008 60.3746C50.3559 54.1699 53.2308 42.2634 69.4599 41.1634C72.8641 40.9347 74.4366 41.2912 74.3025 43.0304C74.0271 46.5557 73.7042 47.1074 71.7153 50.0828C69.8199 52.9286 66.6309 52.9589 64.7249 55.9999C63.449 58.0384 61.8712 62.2433 61.4971 65.1547C61.3541 66.248 61.5994 69.7061 59.1287 70.0089C57.2686 69.9601 57.2175 69.9836 55.5144 70.209L54.7662 70.4344C52.606 71.8237 51.8013 74.6779 51.5807 75.3524C46.3534 73.5695 37.1817 70.5925 39.123 63.9336C36.7458 68.4514 38.3853 71.8842 42.8097 74.1364C48.2752 76.9015 53.5485 78.1899 59.0476 81.5319C65.7608 85.6123 68.8298 90.5606 72.7918 103.572C76.542 115.894 82.0358 128.362 84.48 133.94L84.8295 133.95C81.2222 123.762 77.772 113.642 75.416 103.942C78.2079 102.205 81.1287 100.079 84.3424 99.3757C100.526 95.8302 114.926 115.248 102.566 126.497C97.7795 130.848 90.6462 132.041 84.5877 130.297L84.4447 130.571C87.0743 131.859 89.898 132.529 92.7005 132.544C90.108 139.176 91.7263 145.882 87.0937 150.8C85.4807 152.509 82.657 153.681 80.5392 152.221C68.0304 143.611 53.6367 117.433 47.4511 107.533C49.4029 112.359 57.5775 133.716 73.4836 149.691C73.473 152.544 75.4002 158.981 78.0756 160.377C77.7615 157.882 77.0555 155.61 77.2338 153.329C79.6639 155.977 84.5365 156.323 85.2742 155.738C93.3199 149.388 91.5427 140.758 93.2793 132.539C97.2413 132.436 101.126 131.015 104.302 128.182C114.362 119.206 109.18 102.834 97.416 98.6104C95.5082 97.9259 92.9669 95.0447 95.4518 93.9985C92.8858 92.9742 91.7369 96.5921 92.4234 97.613C91.7475 97.5794 91.0504 97.7156 90.3692 97.6231C82.0781 96.4844 77.9415 100.553 75.2413 103.323C71.6288 93.8286 69.6557 85.545 62.1112 80.5496C57.5051 77.5019 55.6997 76.999 52.9555 75.7729C53.132 74.8445 54.5491 71.5192 56.4515 71.2501C60.35 70.7035 62.4907 72.2273 62.773 68.2849C63.0289 64.7158 63.9007 59.86 65.8473 57.4312C66.5762 58.2318 66.945 58.6961 69.5022 59.4311C67.3439 58.0384 67.1603 57.5607 66.9962 56.1614C67.5803 55.5525 69.091 54.0976 69.7987 53.6014C72.5659 51.6722 73.4677 52.0187 75.0878 48.9643L76.1484 46.4145L77.1314 42.847L77.1773 42.4249Z" fill="#4BB9BA"/>
</svg>
