<svg width="234" height="123" viewBox="0 0 234 123" fill="none" xmlns="http://www.w3.org/2000/svg">
<path d="M78.9518 14.9534C93.3582 2.37926 115.178 -1.67689 133.607 4.40734C148.225 9.27473 160.087 19.8187 168.985 31.7843C177.881 43.9507 183.813 57.5389 189.745 71.1249C192.5 77.412 195.466 84.1046 196.101 91.0001C196.737 97.8935 195.042 105.397 189.957 110.265C180.424 119.188 164.748 115.741 152.037 111.887C139.539 108.034 127.251 103.978 114.754 100.124C97.5933 94.6506 64.5476 86.3355 59.0393 66.868C54.5902 50.4406 66.6662 25.4973 78.9518 14.9534ZM53.9546 112.698C58.1918 115.132 64.3357 112.698 66.6662 108.439C68.9966 103.775 67.0899 97.4879 62.6409 94.8534C48.87 86.5383 43.7854 106.817 53.9546 112.698ZM180.847 19.8187C185.085 22.2524 191.228 19.8187 193.559 15.5618C195.889 10.8972 193.983 4.61015 189.534 1.97365C175.765 -6.34147 170.68 13.9393 180.847 19.8187Z" fill="#E4CDD1"/>
<mask id="mask0_118_98" style="mask-type:luminance" maskUnits="userSpaceOnUse" x="43" y="4" width="159" height="119">
<path d="M43.7944 4.82605H201.506V122.439H43.7944V4.82605Z" fill="white"/>
</mask>
<g mask="url(#mask0_118_98)">
<path d="M153.963 122.588C150.786 122.588 147.398 122.386 143.797 121.778C121.132 118.339 99.3131 109.836 80.6735 97.0824C80.2498 96.6775 80.038 96.0702 80.4617 95.6653C80.8853 95.2604 81.5209 95.0579 81.9445 95.4628C100.372 108.014 121.98 116.517 144.221 119.756C156.717 121.576 165.614 120.161 171.334 115.302C180.864 107.002 178.111 92.0234 175.571 83.7232C170.487 66.72 161.377 50.727 149.517 37.1653C139.772 26.2334 123.884 12.2669 102.914 8.01557C83.2156 4.16914 62.8812 10.8498 52.5012 24.6139C46.7815 32.1043 44.6631 42.4289 46.5697 52.1441C48.2644 60.6467 53.1367 67.5298 59.9155 71.779C60.3392 71.9815 60.551 72.7912 60.3392 73.1961C60.1273 73.601 59.28 73.8035 58.8563 73.601C51.442 69.1493 46.3578 61.6589 44.6631 52.7514C42.5469 42.6313 44.875 31.6994 50.8065 23.8041C61.6102 9.43267 82.7919 2.34715 103.338 6.39602C124.732 10.6473 141.043 25.0187 150.997 36.1531C163.072 49.9172 172.181 66.1127 177.477 83.3183C180.017 92.0234 182.983 108.014 172.605 116.922C168.156 120.766 162.013 122.588 153.963 122.588ZM66.6943 121.576C69.6579 120.766 72.2 118.744 73.471 116.112C76.0131 111.051 74.1065 104.168 69.0246 101.131C64.1523 98.297 60.7629 98.9044 58.6445 99.9166C55.4669 101.536 53.5604 105.18 53.3485 109.431C53.1367 114.29 55.4669 118.541 59.28 120.766C60.551 121.576 62.0339 121.981 63.7286 121.981C64.7878 121.981 65.6351 121.778 66.6943 121.576ZM67.9654 102.953C71.9881 105.383 73.6828 111.051 71.5645 115.302C70.5053 117.327 68.389 118.946 66.0588 119.756C63.9404 120.363 62.0339 120.161 60.551 119.149C56.7379 116.922 55.6787 112.873 55.6787 109.634C55.8906 105.99 57.3734 103.156 59.7037 101.739C60.551 101.334 61.3984 101.131 62.4576 101.131C64.1523 101.131 65.847 101.739 67.9654 102.953ZM193.575 28.8652C196.54 28.0554 199.083 26.031 200.354 23.3992C202.896 18.3381 200.989 11.4571 195.905 8.42045C191.033 5.58625 187.643 6.19358 185.525 7.20579C182.347 8.82534 180.441 12.4693 180.229 16.7206C180.017 21.5772 182.347 25.8285 186.16 28.0554C187.431 28.8652 188.914 29.2701 190.609 29.2701C191.668 29.2701 192.727 29.0676 193.575 28.8652ZM194.846 10.2424C198.871 12.6718 200.565 18.3381 198.447 22.5894C197.388 24.6139 195.269 26.2334 192.939 27.0432C190.821 27.6505 188.914 27.4481 187.431 26.4358C183.618 24.209 182.559 20.1601 182.559 16.9231C182.771 13.2791 184.254 10.4449 186.584 9.02778C187.431 8.6229 188.279 8.42045 189.338 8.42045C191.033 8.42045 192.939 9.02778 194.846 10.2424Z" fill="#FF98A9"/>
</g>
<mask id="mask1_118_98" style="mask-type:luminance" maskUnits="userSpaceOnUse" x="0" y="4" width="234" height="108">
<path d="M0 4.54233H234V111.075H0V4.54233Z" fill="white"/>
</mask>
<g mask="url(#mask1_118_98)">
<mask id="mask2_118_98" style="mask-type:luminance" maskUnits="userSpaceOnUse" x="-1" y="1" width="236" height="115">
<path d="M-0.855225 8.77872L231.011 1.44937L234.722 108.642L2.85595 115.975L-0.855225 8.77872Z" fill="white"/>
</mask>
<g mask="url(#mask2_118_98)">
<mask id="mask3_118_98" style="mask-type:luminance" maskUnits="userSpaceOnUse" x="-1" y="1" width="236" height="115">
<path d="M-0.855225 8.77872L231.011 1.44937L234.722 108.642L2.85595 115.975L-0.855225 8.77872Z" fill="white"/>
</mask>
<g mask="url(#mask3_118_98)">
<mask id="mask4_118_98" style="mask-type:luminance" maskUnits="userSpaceOnUse" x="-1" y="1" width="236" height="115">
<path d="M-0.855225 8.77872L231.011 1.44937L234.722 108.642L2.85595 115.975L-0.855225 8.77872Z" fill="white"/>
</mask>
<g mask="url(#mask4_118_98)">
<path d="M151.519 109.789C153.202 109.148 154.739 108.136 155.602 106.568C157.65 108.574 160.965 108.177 163.064 106.4C165.853 104.034 165.696 99.7114 164.751 96.5735C163.754 93.2744 161.765 90.3126 159.949 87.3846C159.533 86.7136 158.87 85.9675 158.604 85.2327C158.309 84.4267 158.137 84.9403 158.553 84.2617C158.713 83.9993 159.471 83.6806 159.741 83.5119C161.385 82.4847 163.08 81.5361 164.825 80.6701C178.748 73.8281 195.001 73.7757 209.199 67.526C216.707 64.2194 224.467 59.8255 233.011 59.8743C225.028 59.4019 217.539 62.9635 210.399 65.839C202.557 69.0032 194.672 70.8514 186.324 72.3773C178.325 73.8431 170.29 75.5902 163.009 79.2005C158.521 81.4312 154.429 84.3179 150.255 87.0322C144.343 90.8787 138.259 94.8377 131.609 97.4208C133.736 95.0814 127.671 89.3191 126.019 87.9357C127.278 89.0155 128.365 90.2376 129.279 91.5985C130.036 92.7383 132.049 95.0851 131.578 96.566C131.174 97.8332 128.891 98.3655 127.694 98.7817C125.595 99.5127 123.257 100.143 121.009 100.019C116.71 99.7752 114.642 95.0664 115.894 91.4373C117.247 87.4971 122.453 85.079 126.019 87.9357C122.614 85.1577 117.71 87.0885 115.76 90.6013C113.889 93.9754 115.191 99.7114 119.526 100.682C116.164 100.428 114.246 97.0834 113.893 94.1629C113.489 90.7925 115.188 87.797 117.169 85.1502C120.574 80.5914 124.673 76.9886 129.887 74.4805C135.395 71.8299 140.715 69.2019 145.407 65.3291C150.573 61.0702 157.984 55.2892 156.662 47.9299C156.791 49.2758 156.673 50.5992 156.305 51.9001C155.94 53.2047 155.344 54.4044 154.528 55.5029C153.096 53.216 151.695 50.9103 150.267 48.6234C147.788 44.6382 144.151 41.429 141.888 37.3126C142.394 40.3306 144.218 42.9624 145.983 45.4405C147.725 47.8811 149.298 50.4305 151.071 52.8561C149.275 53.126 147.254 53.2272 145.618 52.335C144.555 51.7539 143.673 50.8466 142.633 50.213C140.095 48.6684 137.031 47.5062 134.006 47.345C131.099 47.1875 128.13 47.405 125.219 47.4425C130.856 48.6759 136.246 48.2935 141.44 51.1428C142.143 51.5289 143.653 52.155 144.069 52.8598C144.52 53.6134 144.249 55.1017 144.139 55.949C143.857 58.131 142.931 59.953 141.782 61.8163C141.256 62.5811 140.864 63.4058 140.605 64.2906C140.334 65.4191 140.926 66.8999 140.322 67.661C139.612 68.5608 137.513 69.2468 136.478 69.7605C135.156 70.4165 133.814 71.0314 132.464 71.635C130.013 72.7372 127.345 73.6744 125.097 75.1403C123.238 69.9666 119.095 64.598 120.24 58.8695C120.817 55.9753 121.739 53.2722 121.951 50.2917C122.065 48.6647 122.131 48.8671 123.296 47.7312C124.465 46.6814 125.442 45.4855 126.227 44.1471C121.625 48.0948 115.258 52.35 109.456 54.3594C107.361 55.0868 105.239 54.933 103.367 56.4252C102.504 57.1112 101.841 57.9435 101.379 58.9183C101.006 59.7131 101.222 60.8003 100.896 61.4863C100.598 62.1199 98.5853 63.1809 97.9459 63.2146C97.0946 63.2559 96.2786 62.3899 95.4391 61.9737C94.831 61.6738 94.1955 61.4489 93.5286 61.2989C92.8656 61.1489 92.1908 61.0815 91.5082 61.0889C90.8256 61.0964 90.1508 61.1827 89.4918 61.3514C88.8288 61.5163 88.2011 61.7563 87.6009 62.0712C88.2168 60.3841 88.4247 58.5471 88.9347 56.8226C89.3976 55.2705 89.9704 53.6584 89.8213 52.0163C89.7429 51.1128 89.1348 50.2692 89.2093 49.467C89.2721 48.7809 89.888 47.8699 90.194 47.2513C90.7628 46.0966 91.4141 44.9869 92.1516 43.9221C94.2935 40.8592 97.4673 38.9584 100.68 37.0314C104.121 34.9732 107.573 32.9225 111.053 30.928C114.199 29.121 117.479 27.4714 120.499 25.4657C123.622 23.3887 126.145 20.6782 128.757 18.0613C133.904 12.9027 139.914 9.23612 147.607 9.00743C145.359 8.77874 143.127 8.89871 140.919 9.36359C143.39 6.41685 147.588 6.39811 151.146 6.50683C155.234 6.61555 159.306 6.93047 163.362 7.44784C168.023 8.06268 172.668 8.89871 177.308 9.62602C184.79 10.8032 192.381 11.583 199.815 12.9814C204.64 13.8887 209.344 15.2946 214.02 16.7229C218.582 18.1138 223.537 20.172 228.374 20.3033C224.322 19.7184 220.403 17.7652 216.629 16.3218C212.239 14.5747 207.767 13.0564 203.208 11.7667C197.987 10.3683 192.53 9.7235 187.183 8.88371C181.333 7.96145 175.484 7.06169 169.619 6.25939C162.205 5.24716 153.594 3.935 146.164 5.48335C144.453 5.86949 142.955 6.6343 141.664 7.77775C141.099 8.25763 140.632 8.97369 140.036 9.39733C139.275 9.93719 138.039 10.0759 137.113 10.4058C133.096 11.8417 130.052 14.3835 126.992 17.1728C123.606 20.2545 120.389 23.0963 116.337 25.3757C112.638 27.4527 108.954 29.5184 105.325 31.7153C101.571 33.9947 97.6124 36.1954 94.2661 39.0109C92.693 40.3493 91.418 41.9052 90.4372 43.686C89.9782 44.4995 90.0371 44.5857 89.2642 44.8069C88.2913 45.0881 86.5338 44.7057 85.506 44.7132C84.3958 44.7169 83.8152 44.7244 82.8305 44.297C81.9988 43.9371 81.2888 43.3898 80.4061 43.1086C78.1033 42.3738 75.5808 42.6662 73.2897 43.2998C68.8371 44.5295 64.4983 46.7452 60.4262 48.8334C58.2097 49.9693 55.2949 48.9233 52.8587 48.6122C50.5049 48.2973 48.1354 48.1885 45.7619 48.2898C43.3297 48.3985 40.9131 48.7471 38.4769 48.7734C35.7896 48.7996 33.1926 48.2973 30.5681 47.8136C25.527 46.8801 20.5958 45.5905 15.7666 43.9334C10.9609 42.3026 5.39413 41.2678 0.290283 41.7852C10.0664 42.46 18.5755 47.4162 28.0456 49.3395C32.9533 50.3367 37.4844 50.8728 42.4823 50.2468C45.0323 49.8719 47.594 49.6507 50.1675 49.5869C52.9803 49.5757 55.797 49.9243 58.6059 49.7931C57.9782 50.1305 57.3545 50.4792 56.7385 50.8391C60.3046 49.2158 63.9569 47.7462 67.6367 46.3703C71.4498 44.9381 76.1339 42.8424 80.2452 44.432C83.062 45.523 87.444 48.4997 88.2443 51.4652C88.664 53.0173 88.0834 54.6706 87.648 56.1552C87.0713 58.1235 86.9536 60.3316 86.1298 62.2137C86.2475 60.714 85.812 58.8245 84.0545 58.3747C86.0474 58.9707 86.475 61.8275 85.4472 63.3871C84.4586 64.883 82.7089 65.0817 81.0848 64.688C78.9036 64.1557 77.8993 62.4723 78.6172 60.3729C79.3469 58.2434 82.0106 57.8985 84.0545 58.3747C81.9321 57.8198 79.1154 58.116 78.1543 60.2267C77.2755 62.1649 77.7188 64.5006 80.0099 65.2541C77.6364 64.868 76.946 62.6635 76.2045 60.7853C75.2042 58.2547 74.5451 55.4392 75.4239 52.7811C74.9923 53.7708 74.7569 54.8056 74.7099 55.8741C73.8782 55.5816 73.1838 55.1092 72.6228 54.4532C72.0658 53.7971 71.7205 53.0473 71.5871 52.2112C71.5871 52.8673 71.7166 53.4972 71.9755 54.1083C72.2344 54.7156 72.6032 55.2517 73.0857 55.7203C73.6232 56.2415 74.4196 56.5301 74.7295 57.1C75.3729 58.2772 75.314 60.3841 75.7887 61.7225C75.926 62.1124 76.3811 62.791 76.3536 63.2109C76.3183 63.717 75.3689 64.9992 75.1257 65.4678C74.8942 65.9177 74.7177 66.4276 74.4509 66.8587C73.886 67.766 74.2469 67.5673 73.1917 67.796C71.5675 68.0396 69.9591 67.9534 68.3742 67.541C65.6516 66.8475 63.7254 64.8117 62.2308 62.6373C63.9726 67.8222 68.586 69.3743 73.8429 68.8045C72.9759 71.9086 71.8578 74.9229 70.4809 77.8509C69.2294 80.6814 68.382 83.958 71.4734 86.05C68.3114 85.109 65.3103 83.8343 62.4701 82.2147C63.5097 83.2532 62.627 82.8446 61.6619 82.8933C60.8577 82.9345 60.0535 82.9758 59.2493 83.0133C57.8174 83.0845 56.3815 83.1595 54.9457 83.2195C52.9685 83.3057 50.9795 83.4144 49.0023 83.3357C43.0472 83.1032 37.5197 82.4509 31.5646 83.1782C21.5962 84.4004 11.7729 84.3404 1.77318 84.7191C10.6039 85.8663 19.5052 86.3799 28.3869 85.4914C33.0631 85.0265 37.5825 84.4304 42.3018 84.6628C46.2013 84.8578 49.9792 84.9815 53.863 84.5241C55.9147 84.2842 57.9625 83.9993 59.9986 83.6768C60.8891 83.5344 62.1248 83.0845 62.9957 83.167C64.0236 83.2645 64.9416 84.2392 65.9027 84.7978C69.7198 87.0097 73.8821 87.9957 78.2523 88.6031C79.7313 88.8093 80.7317 89.5703 82.1714 90.0464C84.0309 90.7288 85.9415 90.905 87.9069 90.5826C89.7507 90.2152 91.6181 89.4616 92.6263 87.872C93.0931 87.066 93.4266 86.2112 93.6306 85.3077C93.9954 83.8905 93.7522 83.8493 95.1448 83.5081C97.0907 83.0358 98.6403 81.6449 99.8132 80.1528C100.135 79.7629 100.421 79.3505 100.676 78.9156C101.288 77.7984 100.986 77.0598 101.273 75.9576C101.473 75.1928 100.872 75.6914 101.547 75.1441C101.998 74.7766 102.983 74.6717 103.56 74.3905C104.611 73.8881 105.549 73.2358 106.369 72.4298C108.126 70.6602 108.42 68.2346 108.299 65.8802C115.093 66.0452 117.702 58.5771 114.905 53.5197C117.212 52.5299 119.307 51.2327 121.19 49.6244C120.656 52.7661 119.405 55.6416 118.691 58.7121C117.851 62.3224 119.067 66.0039 120.629 69.2731C121.413 70.9152 122.276 72.516 123.01 74.1806C123.379 75.0128 123.814 75.5977 123.422 76.2688C122.983 77.0223 121.347 77.9033 120.692 78.4957C117.871 81.0375 115.097 84.018 113.32 87.3359C110.656 92.3109 111.363 101.11 118.177 102.669C121.813 103.502 125.799 101.957 129.146 100.739C130.695 100.18 132.382 99.1903 133.991 98.8792C134.909 98.703 134.41 98.6542 135.215 99.1228C135.658 99.4453 136.074 99.7939 136.466 100.173C138.663 101.935 140.934 103.61 142.707 105.796C144.995 108.612 147.364 111.348 151.519 109.789ZM141.589 64.1669C142.154 62.8173 143.253 61.7375 143.935 60.4441C145.101 58.2659 145.536 55.964 145.238 53.5347C146.089 53.8833 146.976 54.052 147.902 54.037C148.816 54.0445 150.491 53.2872 151.299 53.4859C151.919 53.6396 152.527 54.7193 152.994 55.2667C153.511 55.8741 153.774 56.0015 153.676 56.6126C153.621 56.965 152.597 57.8235 152.393 58.0335C148.996 61.4264 145.273 64.4481 141.221 67.0986C141.079 66.0939 141.205 65.1154 141.589 64.1669ZM86.3651 46.7789C85.9336 46.4265 85.4903 46.0853 85.0352 45.7592C86.4671 45.8379 87.899 45.8154 89.327 45.8979C88.9269 46.7939 88.5738 47.7124 88.2717 48.6459C87.695 47.9711 87.0595 47.3488 86.3651 46.7789ZM75.1257 68.0134C75.5572 66.6862 76.1104 65.4078 76.7891 64.1782C78.217 66.6937 81.7831 66.765 84.231 65.7265C83.8309 66.5513 83.7956 67.3911 84.1172 68.2458C83.568 68.0209 81.481 67.0611 81.2534 67.1399C79.1115 67.0274 76.4478 66.8175 74.9413 68.737C75.0119 68.497 75.0708 68.2571 75.1257 68.0134ZM75.0433 76.2575C74.2783 76.2838 73.5055 77.371 73.2623 77.9483C73.5565 76.6512 73.3682 75.2415 73.6467 74.0006C73.9606 74.8404 74.4235 75.5939 75.0433 76.2575ZM70.4338 81.5736C70.8614 79.1368 72.5051 77.2698 73.2191 74.9791C73.2858 76.9061 72.3639 81.7461 70.371 82.3234L70.4338 81.5736ZM72.0579 85.3264C71.4302 84.8803 70.9712 84.3067 70.6849 83.6131C70.3436 82.3797 70.4612 83.122 71.1948 82.3872C72.0932 81.5586 72.6699 80.5577 72.9288 79.3917C72.815 81.9785 74.9413 84.4379 76.64 86.2449C75.0943 86.3986 73.3211 86.3012 72.0579 85.3264ZM78.0248 87.6996C77.0205 87.5046 76.0201 87.2834 75.0237 87.0397C75.4435 87.0397 76.7734 86.6836 77.1696 86.8073C77.3618 86.8673 78.2367 87.7258 78.0248 87.6996ZM92.6851 85.0452C89.4133 94.3278 76.8087 87.021 74.1803 80.9888C73.7919 80.0928 73.2976 76.7299 75.1492 76.6062C75.9731 76.5499 78.0719 78.4957 78.421 79.328C79.2527 81.2812 77.4834 83.4744 75.5376 81.6674C74.2587 80.4752 75.1336 78.0945 76.946 77.9033C74.0743 78.0496 73.5251 82.3309 76.4438 83.0283C79.5744 83.7706 79.6332 80.2877 78.2013 78.5857C82.9717 81.2025 87.5499 83.2869 93.097 83.6506C92.9833 84.123 92.846 84.5879 92.6812 85.049L92.6851 85.0452ZM100.582 76.6587C100.464 78.4657 98.6795 80.2652 97.2594 81.2812C94.8153 83.032 92.1045 82.4134 89.3192 81.8773C86.4593 81.3262 84.0427 79.8603 81.4614 78.6269C79.3743 77.6334 76.8911 76.6324 75.5886 74.6717C73.8625 72.0736 75.2002 69.0069 78.3033 68.2159C80.6415 67.6235 83.6504 68.8344 85.6904 69.8804C87.903 71.0164 89.786 72.5347 91.7907 73.9594C94.2465 75.7102 97.5536 75.9314 100.5 75.3915C100.578 75.8114 100.61 76.2313 100.582 76.6587ZM107.53 66.9974C107.102 71.335 103.705 73.8619 99.2758 74.2068C95.4352 74.5105 93.4383 73.2058 90.5432 71.2188C94.5603 70.0191 89.4839 63.0872 87.0046 67.2936C87.9383 65.839 88.7582 65.539 90.0881 66.8475C90.9982 67.7397 91.9672 69.2768 90.6961 70.2516C89.9782 70.7989 88.2992 70.8214 87.5342 70.5028C85.9532 69.8392 86.2357 68.5833 87.0046 67.2936C86.7064 67.736 86.4828 68.2046 86.3298 68.7107C82.956 66.5813 87.9069 62.671 90.2215 62.0787C93.1676 61.3289 96.9808 62.4236 98.9149 64.7705C98.6599 64.3956 98.3656 64.0544 98.0243 63.747C99.1895 63.4246 100.186 62.8397 101.022 62C101.39 63.2596 102.426 64.0469 103.571 64.643C104.427 65.0854 105.325 65.4116 106.274 65.6215C107.475 65.8952 107.628 65.6853 107.53 66.9974ZM114.313 55.2142C115.156 57.8798 114.36 61.6026 111.845 63.2821C109.844 64.6168 106.996 64.3581 104.878 63.4433C106.73 63.7545 109.342 62.8172 108.993 60.6391C108.82 59.5856 106.886 57.5274 105.623 58.1535C107.726 57.2649 109.95 61.7638 106.471 62.5698C105.56 62.7798 104.238 62.9747 103.815 62.1012C103.328 61.1002 104.776 58.817 105.521 58.2134C104.462 58.937 102.885 61.4076 103.36 62.6673C100.876 60.819 103.56 57.4374 105.455 56.3314C107.483 55.1542 110.303 54.6219 112.618 55.2442C112.253 55.0793 111.877 54.9443 111.488 54.8468C112.284 54.5656 113.073 54.2695 113.854 53.9545C114.03 54.3669 114.183 54.7868 114.313 55.2142ZM150.871 89.3154C152.833 88.022 154.802 86.7361 156.756 85.4314C158.584 89.1542 161.087 92.7495 162.346 96.6972C163.362 99.8764 163.79 105.196 159.306 106.021C158.627 106.209 157.976 106.145 157.344 105.841C155.649 105.065 156.438 101.871 156.085 100.203C155.234 96.2286 152.986 92.7795 150.506 89.5516L150.871 89.3154ZM146.862 107.202C145.607 106.19 144.771 104.754 143.649 103.607C142.527 102.474 141.311 101.44 140.012 100.495C138.816 99.6102 137.36 98.8604 136.289 97.8332C140.824 95.7075 145.085 93.0307 149.275 90.3426C151.632 93.9979 154.033 98.0244 154.155 102.433C154.198 104.154 153.825 105.744 152.335 106.835C150.754 107.989 148.498 108.514 146.862 107.202Z" fill="#4BB9BA"/>
</g>
</g>
</g>
</g>
</svg>
