<svg width="159" height="162" viewBox="0 0 159 162" fill="none" xmlns="http://www.w3.org/2000/svg">
<path d="M35.3226 53.4198C49.7966 40.7866 71.7184 36.7114 90.2346 42.8243C104.921 47.7145 116.839 58.308 125.779 70.3298C134.717 82.5534 140.677 96.2053 146.637 109.855C149.404 116.172 152.384 122.896 153.022 129.824C153.661 136.75 151.958 144.289 146.849 149.179C137.271 158.144 121.522 154.68 108.751 150.809C96.1945 146.938 83.8489 142.862 71.2927 138.991C54.0515 133.491 20.8507 125.137 15.3165 105.578C10.8465 89.0737 22.9792 64.0133 35.3226 53.4198ZM10.208 151.624C14.465 154.069 20.6378 151.624 22.9792 147.345C25.3206 142.659 23.4049 136.342 18.935 133.695C5.09947 125.341 -0.00903082 145.715 10.208 151.624ZM137.697 58.308C141.954 60.7531 148.127 58.308 150.468 54.0311C152.809 49.3446 150.894 43.028 146.424 40.3791C132.59 32.0249 127.482 52.401 137.697 58.308Z" fill="#E4CDD1"/>
<mask id="mask0_118_22" style="mask-type:luminance" maskUnits="userSpaceOnUse" x="0" y="43" width="159" height="119">
<path d="M0 43.2449H158.452V161.411H0V43.2449Z" fill="white"/>
</mask>
<g mask="url(#mask0_118_22)">
<path d="M110.686 161.56C107.494 161.56 104.091 161.357 100.472 160.747C77.7014 157.291 55.7796 148.748 37.0524 135.935C36.6268 135.528 36.4139 134.918 36.8396 134.511C37.2653 134.104 37.9038 133.901 38.3294 134.307C56.8438 146.918 78.5528 155.46 100.898 158.715C113.453 160.543 122.392 159.122 128.139 154.24C137.714 145.901 134.947 130.852 132.395 122.513C127.287 105.43 118.135 89.3614 106.219 75.7361C96.4286 64.7528 80.4661 50.7207 59.3978 46.4494C39.6064 42.5849 19.1766 49.2969 8.74775 63.1257C3.00125 70.6512 0.872918 81.0244 2.78842 90.7852C4.49109 99.3278 9.38626 106.243 16.1969 110.512C16.6226 110.716 16.8354 111.529 16.6226 111.936C16.4098 112.343 15.5584 112.546 15.1328 112.343C7.68359 107.87 2.57559 100.345 0.872918 91.3954C-1.25324 81.2277 1.08575 70.2445 7.04509 62.3121C17.8996 47.8732 39.1808 40.7544 59.8234 44.8222C81.3174 49.0935 97.7056 63.5324 107.707 74.7191C119.838 88.5479 128.99 104.819 134.311 122.106C136.863 130.852 139.842 146.918 129.416 155.867C124.946 159.73 118.774 161.56 110.686 161.56ZM23.0076 160.543C25.9851 159.73 28.5391 157.698 29.8161 155.054C32.3701 149.969 30.4546 143.053 25.3488 140.002C20.4536 137.155 17.0483 137.765 14.9199 138.782C11.7274 140.409 9.81192 144.07 9.59909 148.342C9.38625 153.223 11.7274 157.494 15.5584 159.73C16.8354 160.543 18.3253 160.95 20.0279 160.95C21.0921 160.95 21.9434 160.747 23.0076 160.543ZM24.2846 141.833C28.3263 144.274 30.0289 149.969 27.9006 154.24C26.8364 156.274 24.7103 157.901 22.3691 158.715C20.2408 159.325 18.3253 159.122 16.8354 158.105C13.0044 155.867 11.9403 151.799 11.9403 148.545C12.1531 144.884 13.6429 142.036 15.9841 140.613C16.8354 140.206 17.6868 140.002 18.7509 140.002C20.4536 140.002 22.1563 140.613 24.2846 141.833ZM150.484 67.3969C153.464 66.5834 156.018 64.5494 157.295 61.9053C159.849 56.8204 157.933 49.9071 152.825 46.8562C147.93 44.0087 144.525 44.6189 142.396 45.6358C139.204 47.263 137.288 50.9241 137.075 55.1954C136.863 60.0747 139.204 64.346 143.035 66.5834C144.312 67.3969 145.802 67.8037 147.504 67.8037C148.568 67.8037 149.633 67.6003 150.484 67.3969ZM151.761 48.6867C155.805 51.1275 157.507 56.8204 155.379 61.0917C154.315 63.1257 152.187 64.7528 149.845 65.5664C147.717 66.1766 145.802 65.9732 144.312 64.9562C140.481 62.7189 139.417 58.651 139.417 55.3988C139.629 51.7377 141.119 48.8901 143.46 47.4664C144.312 47.0596 145.163 46.8562 146.227 46.8562C147.93 46.8562 149.845 47.4664 151.761 48.6867Z" fill="#FF98A9"/>
</g>
<path d="M127.718 53.5253C126.869 54.5229 126.097 55.5748 125.407 56.681C125.074 57.2516 124.81 57.8494 124.619 58.4782C124.44 59.1031 124.343 59.7358 124.327 60.384C124.55 59.7979 124.822 59.2273 125.139 58.68C125.452 58.1482 125.821 57.6553 126.24 57.1973C127.052 56.2657 128.002 55.4079 128.92 54.5113C129.383 54.0649 129.846 53.6146 130.301 53.1605C130.785 52.6869 131.239 52.194 131.666 51.6739C132.49 50.6026 133.177 49.4575 133.725 48.2348C134.781 45.8438 135.492 43.3635 135.866 40.7939C136.26 38.2593 136.341 35.7169 136.105 33.1629C135.529 35.6393 134.984 38.0924 134.318 40.4912C133.689 42.8744 132.876 45.1956 131.885 47.4624C131.767 47.7458 131.621 48.0097 131.487 48.2814C131.357 48.5531 131.219 48.8287 131.065 49.0849C130.91 49.3411 130.772 49.6089 130.61 49.8651L130.114 50.6064C129.428 51.5419 128.506 52.5278 127.718 53.5253Z" fill="#48A9AA"/>
<path d="M121.548 71.9625C122.101 71.8887 122.621 71.7335 123.116 71.4889C123.693 71.1978 124.123 70.7747 124.408 70.2119C124.651 69.6879 124.765 69.1406 124.753 68.5662C124.737 68.0693 124.68 67.5764 124.582 67.0873C124.395 66.1596 124.136 65.2669 123.9 64.4013C123.656 63.5512 123.465 62.6895 123.323 61.8162C123.181 60.9428 123.071 60.054 123.019 59.1573C122.945 58.2529 122.945 57.3485 123.019 56.4442C122.621 57.302 122.361 58.1947 122.243 59.1263C122.105 60.0501 122.048 60.9778 122.076 61.9132C122.105 62.8564 122.222 63.788 122.426 64.7118C122.612 65.6201 122.848 66.5012 123.01 67.3551C123.173 68.2052 123.266 69.0436 123.01 69.6025C122.885 69.8975 122.681 70.1304 122.401 70.3012C122.06 70.5108 121.69 70.6661 121.296 70.7631C120.415 70.9649 119.521 71.062 118.612 71.0503C117.645 71.0387 116.686 71.0969 115.732 71.2328C116.682 71.3919 117.588 71.6248 118.543 71.8033C119.538 72.0129 120.541 72.0634 121.548 71.9625Z" fill="#48A9AA"/>
<path d="M116.658 72.1722C116.146 72.6691 115.756 73.2397 115.488 73.8879C115.366 74.2294 115.289 74.5827 115.257 74.9436L115.228 75.1882C115.208 75.227 115.228 75.2658 115.196 75.2969C115.155 75.3551 115.106 75.4055 115.045 75.4444C114.83 75.5686 114.603 75.6462 114.355 75.6773C114.054 75.7277 113.75 75.7588 113.445 75.7665C112.799 75.7782 112.149 75.751 111.504 75.6889C110.858 75.6346 110.208 75.5298 109.481 75.4638C108.782 75.4056 108.08 75.3823 107.377 75.4017C106.678 75.4172 105.984 75.4832 105.297 75.553L103.246 75.8092C104.599 76.2129 105.996 76.2944 107.328 76.473C108.002 76.5584 108.669 76.6399 109.322 76.7447L110.322 76.9116C110.671 76.9659 111.024 77.0086 111.382 77.0436C112.105 77.1095 112.828 77.1095 113.551 77.0436C113.932 77.0086 114.306 76.9388 114.672 76.834C115.106 76.7214 115.488 76.5157 115.809 76.2129C116.008 76.0227 116.13 75.7976 116.187 75.5375C116.207 75.4094 116.211 75.2813 116.207 75.1571C116.199 75.0795 116.187 75.0019 116.17 74.9242C116.126 74.6254 116.122 74.3265 116.154 74.0276C116.248 73.391 116.414 72.7739 116.658 72.1722Z" fill="#48A9AA"/>
<path d="M111.061 80.7077C111.508 80.2691 111.784 79.7451 111.894 79.1396C111.999 78.569 111.93 78.0217 111.691 77.4899C111.349 77.9635 111.114 78.4176 110.854 78.7825C110.622 79.1396 110.354 79.4656 110.054 79.7684C109.745 80.0595 109.412 80.3157 109.046 80.533C108.656 80.7931 108.197 80.9911 107.694 81.3132C108.246 81.5616 108.823 81.6315 109.424 81.5306C110.062 81.4219 110.606 81.1502 111.061 80.7077Z" fill="#48A9AA"/>
<path d="M101.268 77.684C101.013 77.1406 100.724 76.6089 100.42 76.0887C100.115 75.5686 99.7697 75.0757 99.4001 74.5943C98.6527 73.5852 97.7714 72.704 96.7478 71.951C96.1833 71.5435 95.5578 71.2446 94.8795 71.0505C94.1199 70.8293 93.3645 70.8487 92.6131 71.1049C92.2597 71.2291 91.9348 71.3999 91.6423 71.6289C91.3621 71.8346 91.1143 72.0714 90.899 72.3392C90.501 72.8438 90.1923 73.395 89.9852 73.9966C89.5831 75.1339 89.4775 76.2983 89.6602 77.49C89.8877 76.3915 90.2979 75.3629 90.8828 74.3964C91.4474 73.4881 92.2516 72.7157 93.0883 72.5565C93.9209 72.3974 94.7779 72.7661 95.574 73.4027C96.3985 74.0975 97.1296 74.8699 97.7592 75.7316C99.1077 77.4744 100.119 79.3803 100.789 81.4491C101.082 82.4583 101.248 83.5102 100.992 84.4767C100.866 84.9813 100.619 85.4199 100.241 85.7887C99.8225 86.1807 99.3432 86.4835 98.803 86.7008C99.4366 86.6775 100.03 86.5145 100.582 86.2117C101.167 85.8702 101.61 85.4083 101.914 84.8222C102.203 84.2399 102.373 83.6267 102.422 82.9862C102.467 82.3652 102.438 81.7441 102.341 81.1308C102.146 79.9353 101.788 78.7864 101.268 77.684Z" fill="#48A9AA"/>
<path d="M90.4321 83.2152C90.6271 83.4248 90.7855 83.6577 90.8992 83.9177C90.7327 83.3549 90.4402 82.862 90.0138 82.4428C89.5995 82.0158 89.1405 81.6393 88.6369 81.3132C87.6174 80.6805 86.5289 80.1876 85.3753 79.8305C83.0846 79.1435 80.7938 78.6816 78.5396 78.0722C77.4145 77.7616 76.2935 77.4511 75.205 77.0824C74.6444 76.9155 74.1205 76.6942 73.5843 76.4924C73.3163 76.3876 73.0604 76.2634 72.7923 76.1508C72.5283 76.0421 72.2643 75.9296 72.0125 75.7976L71.2448 75.4094L70.5137 74.9747C70.3919 74.8971 70.266 74.8311 70.1482 74.7535L69.8029 74.505C69.5755 74.3343 69.3318 74.1945 69.1165 73.9966C68.223 73.2707 67.4553 72.4362 66.8176 71.493C67.2888 72.5565 67.9468 73.5075 68.7794 74.342C69.6324 75.1649 70.5868 75.8675 71.6348 76.4497C73.7021 77.6374 75.997 78.371 78.2756 78.9998C79.425 79.2871 80.5745 79.5588 81.728 79.8072C82.8815 80.0556 84.0431 80.2808 85.156 80.5486C86.277 80.8242 87.3574 81.2084 88.3932 81.7092C88.9049 81.9692 89.3842 82.2797 89.8269 82.6368C90.0463 82.8115 90.2493 83.0056 90.4321 83.2152Z" fill="#48A9AA"/>
<path d="M90.172 79.679C89.8186 78.9338 89.5221 78.173 89.2784 77.3928C89.0063 76.5971 88.6814 75.8208 88.3077 75.0639C87.9299 74.2954 87.4791 73.5734 86.947 72.898C87.272 73.6821 87.5928 74.4429 87.8771 75.2192C88.1574 75.9993 88.4376 76.7679 88.7098 77.5636C88.9616 78.3787 89.315 79.155 89.7658 79.8925C90.2776 80.6727 91.0046 81.1424 91.955 81.2976C91.1671 80.9522 90.5741 80.4126 90.172 79.679Z" fill="#48A9AA"/>
<path d="M76.2607 80.1566C75.1884 79.947 74.1405 79.6675 73.1129 79.3143C72.0813 78.9649 71.078 78.5535 70.1073 78.0761C69.1122 77.5948 68.1618 77.0436 67.252 76.4303C67.9181 77.3425 68.7345 78.1032 69.7011 78.7165C70.6556 79.3453 71.6792 79.846 72.7758 80.2148C73.8684 80.5913 74.9935 80.8164 76.151 80.8941C77.3005 80.9794 78.4378 80.8941 79.5588 80.634C78.4256 80.502 77.337 80.3662 76.2607 80.1566Z" fill="#48A9AA"/>
<path d="M59.0437 94.8131C59.1777 94.619 59.3199 94.4327 59.4661 94.2542C59.7667 93.8932 60.0754 93.54 60.3962 93.1945C61.0298 92.492 61.6919 91.8321 62.3418 91.1373C62.6789 90.7802 62.9876 90.396 63.2678 89.9923C63.3978 89.7904 63.5562 89.5964 63.6699 89.3751L64.0314 88.7347C64.466 87.8691 64.8072 86.9724 65.0468 86.037C65.5017 84.1894 65.7048 82.3146 65.652 80.4127C65.6236 78.5495 65.4855 76.6903 65.2296 74.8427C65.0468 76.7019 65.0103 78.5573 64.8722 80.4127C64.7747 82.2409 64.5107 84.0419 64.072 85.8235C63.6537 87.5935 62.8738 89.2082 61.7406 90.6638C61.1436 91.3935 60.5465 92.1426 59.9982 92.9189C59.7342 93.311 59.4661 93.703 59.2305 94.1222C59.1127 94.3279 59.0031 94.5375 58.9056 94.7549C58.8609 94.8675 58.8244 94.98 58.7919 95.0965C58.7716 95.209 58.7228 95.3488 58.8081 95.4381C58.7472 95.3371 58.8081 95.2207 58.8609 95.1314C58.9137 95.0421 58.9828 94.9063 59.0437 94.8131Z" fill="#48A9AA"/>
<path d="M59.6892 90.5202C60.3025 89.4566 60.7737 88.3426 61.1108 87.1743C61.4439 86.0098 61.651 84.8299 61.7323 83.6266C61.8338 82.4272 61.7688 81.2356 61.5414 80.0517C61.3626 81.2356 61.1839 82.3884 60.9565 83.5334C60.729 84.6785 60.4772 85.808 60.1401 86.9181C59.9817 87.4732 59.8151 88.0243 59.608 88.5678C59.4009 89.1151 59.2059 89.6507 58.9866 90.1864C58.556 91.2809 57.9387 92.2746 57.1426 93.1596C57.7071 92.8646 58.1945 92.4842 58.6088 92.0184C58.8079 91.7817 59.0028 91.541 59.1897 91.2926C59.3724 91.0442 59.543 90.7841 59.6892 90.5202Z" fill="#48A9AA"/>
<path d="M70.6842 110.13C70.4243 109.815 70.2009 109.481 70.0059 109.124C69.8028 108.775 69.6079 108.422 69.4129 108.069C69.023 107.354 68.6168 106.648 68.1903 105.945C67.3333 104.536 66.3626 103.201 65.2781 101.943C64.1856 100.67 62.9914 99.4981 61.6917 98.4152C60.4448 97.3711 59.1978 96.3036 57.9265 95.2556C55.3758 93.1635 52.6748 91.1451 49.6773 89.5614C48.1745 88.7657 46.6108 88.102 44.9861 87.5702C43.3614 87.0695 41.7002 86.7473 40.0024 86.5998C41.5743 87.1238 43.1096 87.7371 44.6084 88.4397C46.0706 89.1577 47.484 89.9535 48.8528 90.8307C51.5579 92.6511 54.1492 94.6113 56.6227 96.7112C57.89 97.7437 59.1572 98.7956 60.4732 99.8048C61.7486 100.791 62.963 101.835 64.1165 102.941C65.2741 104.067 66.3667 105.247 67.3943 106.481C67.9304 107.098 68.43 107.715 68.9621 108.356C69.4616 109.012 70.0343 109.606 70.6842 110.13Z" fill="#48A9AA"/>
<path d="M93.8356 111.356C94.8997 111.573 95.9679 111.834 97.0727 112.031C98.1693 112.241 99.2782 112.392 100.391 112.49C101.528 112.567 102.666 112.559 103.803 112.462C104.924 112.315 106.033 112.097 107.125 111.814C108.206 111.523 109.27 111.197 110.281 110.832C111.288 110.494 112.324 110.281 113.388 110.199C114.461 110.102 115.557 110.13 116.67 110.13C115.59 109.831 114.489 109.633 113.368 109.543C112.799 109.501 112.231 109.501 111.658 109.543C111.089 109.598 110.529 109.691 109.973 109.819C108.876 110.056 107.844 110.362 106.788 110.572C105.748 110.805 104.696 110.983 103.636 111.112C101.541 111.333 99.3919 111.185 97.223 110.98C96.1385 110.875 95.0378 110.758 93.929 110.692C93.3685 110.661 92.8039 110.661 92.2434 110.692C91.6748 110.716 91.1305 110.836 90.6106 111.049C91.7072 110.91 92.7673 111.135 93.8356 111.356Z" fill="#48A9AA"/>
<path d="M71.9389 112.02L72.081 111.748C72.1257 111.663 72.1785 111.589 72.2394 111.515L72.3166 111.407C72.3491 111.372 72.3816 111.341 72.4181 111.31C72.6943 111.038 73.0071 110.824 73.3645 110.661C74.8511 109.994 76.6382 109.78 78.3725 109.66C79.2499 109.609 80.1231 109.609 81.0004 109.66C81.8899 109.695 82.7876 109.757 83.6852 109.807C84.5828 109.862 85.4804 109.935 86.374 110.029C86.8208 110.067 87.2716 110.118 87.7143 110.18C88.1652 110.227 88.6039 110.331 89.0263 110.491C88.6607 110.203 88.2586 109.986 87.8159 109.838C87.3854 109.664 86.9467 109.528 86.5202 109.4C85.6388 109.151 84.7412 108.946 83.8395 108.783C82.9378 108.62 82.028 108.472 81.106 108.402C80.1719 108.305 79.2377 108.286 78.2994 108.344C77.3571 108.395 76.427 108.526 75.5091 108.732C74.5505 108.938 73.6529 109.287 72.8202 109.78C72.3735 110.044 71.9998 110.382 71.6992 110.793C71.6586 110.844 71.6221 110.898 71.5896 110.952L71.5002 111.127C71.4393 111.24 71.3905 111.356 71.3459 111.473C71.2687 111.694 71.2078 111.919 71.1631 112.144C71.0778 112.61 71.0778 113.072 71.1631 113.534C71.2403 113.992 71.4393 114.395 71.7642 114.745C71.4393 113.926 71.4677 113.118 71.8455 112.323L71.9389 112.02Z" fill="#48A9AA"/>
<path d="M71.3381 118.417C71.2975 118.273 71.265 118.129 71.2488 117.982C71.2366 117.916 71.2285 117.846 71.2244 117.776C71.2285 117.718 71.2285 117.664 71.2244 117.605C71.2732 117.345 71.3585 117.097 71.4884 116.864C71.8174 116.301 72.1911 115.766 72.6013 115.257C72.8085 114.978 73.0237 114.694 73.2187 114.392C73.4299 114.085 73.5964 113.755 73.7102 113.406C73.0887 113.79 72.4876 114.201 71.9108 114.644C71.2935 115.117 70.7939 115.684 70.4121 116.344C70.2049 116.732 70.0953 117.144 70.0872 117.582C70.0872 117.699 70.1115 117.811 70.1318 117.932C70.1521 118.036 70.1806 118.137 70.2171 118.238C70.2781 118.432 70.3634 118.619 70.473 118.793C70.668 119.143 70.9401 119.43 71.2813 119.651C71.6265 119.876 72.0043 120.012 72.4145 120.055C71.8905 119.608 71.5331 119.061 71.3381 118.417Z" fill="#48A9AA"/>
<path d="M80.6433 125.539C80.7489 125.493 80.8586 125.458 80.9683 125.423C81.0739 125.384 81.1795 125.353 81.2932 125.334C81.5207 125.279 81.7522 125.248 81.9877 125.233C82.2233 125.205 82.4751 125.209 82.731 125.202C83.7464 125.186 84.8147 125.318 85.9072 125.345C87.0161 125.411 88.1168 125.349 89.2134 125.163C90.3304 124.969 91.3214 124.522 92.1866 123.824C91.2158 124.254 90.1964 124.483 89.1281 124.507C88.0802 124.526 87.0405 124.456 86.0047 124.301C84.9528 124.15 83.8886 123.991 82.7635 123.928C82.4751 123.909 82.1868 123.909 81.8984 123.928C81.5938 123.94 81.2932 123.975 80.9967 124.033C80.8383 124.06 80.688 124.103 80.5377 124.157C80.3875 124.208 80.2128 124.258 80.1072 124.305C79.8716 124.402 79.6279 124.491 79.3883 124.577C78.4744 124.945 77.524 125.147 76.5329 125.182C76.1065 125.186 75.7125 125.081 75.3469 124.872C75.2657 124.821 75.1885 124.759 75.1114 124.697C75.0342 124.639 74.9814 124.577 74.892 124.468L74.3884 123.882C73.7385 123.094 73.1374 122.333 72.9831 121.386C72.8775 120.916 72.9506 120.474 73.2064 120.055C73.3202 119.826 73.4461 119.589 73.5273 119.34C73.6207 119.092 73.6857 118.84 73.7182 118.576C73.4989 119.045 73.2146 119.472 72.8612 119.861C72.6744 120.078 72.5241 120.319 72.4225 120.583C72.3251 120.862 72.2763 121.149 72.2804 121.444C72.2966 122.011 72.4225 122.558 72.6622 123.078C72.8937 123.575 73.1658 124.045 73.4826 124.495L73.9416 125.143C74.031 125.268 74.1284 125.388 74.234 125.504C74.3518 125.621 74.4777 125.729 74.6158 125.83C75.1642 126.203 75.7775 126.409 76.4517 126.448C77.6377 126.471 78.775 126.265 79.8716 125.83C80.1275 125.745 80.3875 125.636 80.6433 125.539Z" fill="#48A9AA"/>
<path d="M110.046 126.176C110.619 126.09 111.138 125.982 111.683 125.889C112.227 125.792 112.759 125.691 113.303 125.578L119.778 124.398C117.56 124.262 115.342 124.309 113.133 124.538C112.036 124.615 110.919 124.794 109.851 124.899C108.791 125.027 107.723 125.085 106.654 125.074C104.485 125.066 102.325 124.934 100.176 124.681C98.0071 124.441 95.8301 124.126 93.6165 123.936C95.7041 124.681 97.8325 125.279 100.005 125.726C101.094 125.951 102.195 126.114 103.308 126.246C104.425 126.366 105.546 126.428 106.671 126.432C107.8 126.428 108.929 126.343 110.046 126.176Z" fill="#48A9AA"/>
<path d="M125.813 97.4719C125.261 95.7369 124.615 94.0329 123.868 92.3677C123.116 90.6521 122.133 89.0723 120.915 87.6206L120.427 87.0927C120.257 86.9181 120.066 86.7628 119.887 86.5998C119.518 86.2737 119.128 85.9749 118.709 85.7109C117.881 85.1869 116.991 84.7871 116.041 84.5076C114.14 83.9332 112.219 83.8594 110.273 84.2825C108.377 84.6784 106.691 85.4819 105.217 86.6891C108.389 84.8026 112.361 84.2825 115.683 85.4974C119.14 86.6308 121.134 89.7167 122.58 92.9073C123.315 94.5259 123.961 96.1794 124.522 97.8601L126.28 102.922C126.764 104.629 127.15 106.357 127.434 108.103C127.759 109.858 127.998 111.628 128.246 113.406C128.307 111.612 128.246 109.819 128.12 108.026C128.002 106.217 127.743 104.428 127.344 102.658C127.243 102.215 127.097 101.749 126.975 101.326L126.581 100.049L125.813 97.4719Z" fill="#48A9AA"/>
<path d="M130.849 104.338C130.52 103.651 130.147 102.992 129.724 102.355C129.306 101.718 128.851 101.109 128.356 100.523C127.864 99.929 127.304 99.3933 126.682 98.9198C127.442 100.247 128.221 101.509 129.042 102.766C129.452 103.384 129.875 104.005 130.301 104.622L130.947 105.549C131.174 105.856 131.369 106.174 131.532 106.512C131.528 106.124 131.451 105.751 131.304 105.39C131.174 105.033 131.02 104.68 130.849 104.338Z" fill="#48A9AA"/>
<path d="M127.86 114.298C127.283 115.335 126.638 116.352 125.968 117.361C124.623 119.383 123.185 121.386 121.776 123.404C120.366 125.427 118.961 127.496 117.82 129.708C119.652 127.965 121.398 126.184 123.063 124.317C124.741 122.438 126.284 120.466 127.686 118.393C128.388 117.338 129.018 116.247 129.57 115.113C130.094 114.015 130.63 112.92 131.15 111.795C131.699 110.654 132.141 109.477 132.482 108.266C132.645 107.645 132.73 107.013 132.738 106.372C132.738 105.743 132.653 105.126 132.482 104.517C132.373 107.024 131.024 109.012 129.745 111.108C129.095 112.14 128.457 113.208 127.86 114.298Z" fill="#48A9AA"/>
<path d="M149.302 114.419L150.008 111.76C150.122 111.317 150.244 110.875 150.37 110.436L150.553 109.78C150.613 109.551 150.666 109.299 150.723 109.062C151.17 107.102 151.17 105.142 150.723 103.182C150.264 101.256 149.464 99.4749 148.315 97.833C147.185 96.1484 145.744 94.7666 143.981 93.6836L143.278 93.3149C143.043 93.1985 142.852 93.1169 142.628 93.0083C142.21 92.8103 141.796 92.5968 141.381 92.3872C140.549 91.9564 139.724 91.51 138.908 91.0442C137.275 90.1088 135.654 89.1461 134.05 88.1525C132.446 87.1627 130.874 86.1224 129.314 85.0744C128.53 84.5504 127.767 84.007 127.003 83.4597C126.207 82.8852 125.358 82.3884 124.46 81.9692C123.559 81.5733 122.625 81.2628 121.658 81.0376C120.708 80.828 119.745 80.6805 118.774 80.5913C116.849 80.4011 114.936 80.3506 113.035 80.0479C113.961 80.2885 114.907 80.4826 115.858 80.6456C116.804 80.8086 117.759 80.9561 118.693 81.1153C119.627 81.2783 120.545 81.4918 121.451 81.7557C122.34 82.0313 123.193 82.3845 124.01 82.8154C124.814 83.254 125.569 83.7586 126.28 84.3292C127.015 84.9269 127.763 85.5169 128.522 86.0914C130.033 87.2442 131.593 88.3349 133.165 89.4062C134.741 90.4736 136.341 91.5139 137.99 92.4998C138.806 92.9889 139.639 93.4702 140.484 93.9359C140.914 94.165 141.337 94.3978 141.779 94.6152C141.995 94.7239 142.234 94.8365 142.429 94.9413L142.982 95.2518C144.48 96.2144 145.711 97.4254 146.678 98.8849C147.677 100.337 148.367 101.912 148.757 103.609C149.147 105.293 149.159 106.978 148.79 108.662C148.745 108.876 148.705 109.078 148.652 109.283L148.469 109.955C148.343 110.405 148.225 110.852 148.107 111.298C147.88 112.195 147.648 113.091 147.437 113.988C146.588 117.578 145.76 121.169 145.041 124.782C144.318 128.396 143.623 132.014 143.039 135.647C142.77 137.471 142.482 139.292 142.316 141.131C142.145 142.975 142.088 144.799 141.991 146.643L142.433 143.918C142.575 143.006 142.705 142.102 142.864 141.205C143.189 139.404 143.599 137.607 144.005 135.818C144.818 132.239 145.699 128.668 146.572 125.097C147.449 121.53 148.347 117.963 149.302 114.419Z" fill="#48A9AA"/>
<path d="M100.87 94.9024C100.565 96.7112 100.106 98.4812 99.493 100.22L99.2534 100.853L98.9813 101.47C98.9 101.683 98.7863 101.874 98.6888 102.075L98.5345 102.386L98.368 102.693C97.9131 103.539 97.4825 104.389 97.0723 105.243C96.6539 106.097 96.2722 106.962 95.8497 107.801C95.4314 108.639 95.0252 109.485 94.3022 110.137C94.7734 109.939 95.1836 109.66 95.537 109.299C95.8904 108.95 96.2193 108.581 96.524 108.193C97.121 107.416 97.6734 106.621 98.1893 105.817C98.7091 105.014 99.2087 104.206 99.7043 103.399C99.8302 103.205 99.952 102.995 100.074 102.782C100.2 102.568 100.33 102.343 100.431 102.114L100.756 101.435L101.024 100.744C101.682 98.8965 102.052 96.9984 102.137 95.046C102.182 94.0795 102.149 93.1169 102.044 92.1543C101.946 91.1878 101.69 90.2601 101.284 89.3712C101.365 90.3067 101.353 91.2421 101.256 92.1737C101.171 93.0742 101.024 93.9902 100.87 94.9024Z" fill="#48A9AA"/>
<path d="M103.571 86.2388C103.896 86.266 104.221 86.2466 104.542 86.1845C104.879 86.1263 105.188 86.006 105.472 85.8196C105.167 85.711 104.851 85.6333 104.53 85.579C104.225 85.5285 103.925 85.4975 103.624 85.4703C103.323 85.447 103.027 85.4354 102.722 85.4354C102.397 85.4276 102.072 85.447 101.748 85.4858C101.991 85.7265 102.272 85.905 102.596 86.0254C102.909 86.1418 103.234 86.2156 103.571 86.2388Z" fill="#48A9AA"/>
<path d="M77.8652 105.394C77.5322 105.111 77.1544 104.897 76.732 104.754C76.2934 104.595 75.8425 104.567 75.3835 104.668C75.7085 105.01 75.9725 105.274 76.2446 105.53C76.5167 105.786 76.7889 106.023 77.061 106.26C77.3291 106.496 77.6093 106.722 77.9018 106.951L78.8563 107.692C78.9456 107.242 78.8847 106.815 78.6654 106.407C78.4704 106.019 78.2023 105.681 77.8652 105.394Z" fill="#48A9AA"/>
<path d="M97.4181 39.0395C101.606 38.4651 105.663 37.4132 109.583 35.8839C113.494 34.3817 117.194 32.5031 120.687 30.2479C124.189 28.0315 127.361 25.4426 130.196 22.481C126.881 24.837 123.437 27.0029 119.859 28.9786C116.305 30.9272 112.629 32.6311 108.831 34.0984C105.042 35.5695 101.151 36.7261 97.1582 37.5684C93.125 38.4263 89.0471 38.7756 84.9204 38.6126C88.9658 39.5985 93.2712 39.5985 97.4181 39.0395Z" fill="#48A9AA"/>
<path d="M73.8606 55.439C71.7567 56.4559 69.5756 57.2827 67.3132 57.9154C65.0427 58.5675 62.7073 59.0604 60.3597 59.5844C57.9633 60.0541 55.6116 60.6713 53.3046 61.4437C52.1429 61.8551 51.0382 62.3791 49.9943 63.0157C48.9545 63.66 48.0528 64.448 47.2974 65.3834C49.0967 63.8114 51.3143 62.907 53.6092 62.3442C54.7546 62.0492 55.9203 61.8241 57.1022 61.6261C58.2841 61.432 59.4661 61.238 60.6643 61.0555C63.081 60.714 65.4733 60.252 67.8372 59.6659C70.2498 59.0643 72.5649 58.2259 74.7907 57.1546C75.9036 56.5918 76.9353 55.9901 77.9873 55.3885C79.0352 54.7869 80.0506 54.1503 81.0538 53.4671C83.0562 52.1358 84.9896 50.7113 86.8417 49.1936C88.71 47.6992 90.4809 46.0961 92.2315 44.5125C93.9821 42.9288 95.6758 41.283 97.467 39.7149C95.4036 40.9531 93.4987 42.3932 91.5857 43.8021C89.6686 45.2111 87.788 46.6473 85.8709 48.0214C83.9538 49.3915 81.9839 50.6996 79.9856 51.9417C79.4779 52.2522 78.9824 52.5589 78.4747 52.8694L76.9475 53.7621C75.9199 54.3366 74.8841 54.9344 73.8606 55.439Z" fill="#48A9AA"/>
<path d="M29.9253 80.3972C30.7661 79.8964 31.4728 79.2599 32.0496 78.4874C32.6182 77.7305 33.0894 76.9193 33.459 76.0576C33.6499 75.6345 33.8205 75.2037 33.9626 74.7612C34.0438 74.5322 34.117 74.3459 34.186 74.144C34.2591 73.9422 34.3525 73.7675 34.4338 73.5851C35.2339 72.0829 36.2575 70.7322 37.5044 69.5367C38.7635 68.2984 40.1038 67.1456 41.5295 66.086C44.4295 63.9395 47.4554 61.9754 50.6114 60.1899C53.7754 58.3773 57.0247 56.6888 60.2943 54.9615C56.6957 55.9707 53.2149 57.2749 49.8599 58.878C46.6431 60.3763 43.6091 62.1579 40.7578 64.2228C40.4735 63.2952 40.1607 62.3675 39.9048 61.4398C39.6408 60.4306 39.4337 59.3981 39.5839 58.4549C39.7424 57.4923 40.2298 56.7121 41.038 56.1143C41.8585 55.4972 42.7439 54.9926 43.7025 54.6005C44.2061 54.4104 44.6732 54.2124 45.2012 54.0222L46.7568 53.4439C47.7926 53.0596 48.8202 52.6443 49.8478 52.2212C51.8989 51.3711 53.9175 50.4434 55.8996 49.4381C59.8476 47.4197 63.6493 45.1723 67.2966 42.692C70.94 40.2467 74.437 37.6189 77.7839 34.8087C73.9578 36.9784 70.2089 39.2414 66.4478 41.4422C62.6907 43.643 58.8728 45.774 54.9979 47.7458C53.0565 48.7356 51.0906 49.6671 49.1085 50.5638C48.1175 51.0179 47.1102 51.4487 46.107 51.8874L44.596 52.5395C44.0965 52.7568 43.5684 53.0208 43.0567 53.2575C42.8008 53.3817 42.553 53.5331 42.3012 53.669C42.0453 53.8087 41.8016 53.9562 41.562 54.1192L40.8431 54.6161C40.6156 54.8101 40.3963 55.012 40.177 55.2061C39.9536 55.4001 39.7789 55.6563 39.5839 55.8814C39.4052 56.126 39.2428 56.3822 39.0965 56.6461C38.9706 56.9217 38.865 57.205 38.7716 57.4923L38.6944 57.9348C38.662 58.0823 38.6457 58.2259 38.6457 58.3734C38.662 59.5068 38.9178 60.5897 39.4174 61.6145C39.8236 62.5421 40.2826 63.4 40.7537 64.2694L40.315 64.5761C38.8082 65.7056 37.415 66.9516 36.1315 68.3101C35.4857 69.0049 34.8968 69.7385 34.3607 70.5109C33.788 71.295 33.3249 72.1334 32.9675 73.0223C32.8903 73.2513 32.7929 73.4725 32.736 73.7093L32.5532 74.3808C32.4476 74.7961 32.342 75.2153 32.208 75.619C32.0739 76.0266 31.9318 76.4264 31.7774 76.83C31.6109 77.2221 31.42 77.6025 31.2088 77.9751C30.7945 78.732 30.2543 79.3957 29.5882 79.9624C28.8734 80.5175 28.0935 80.9677 27.2446 81.3132C27.6955 81.2123 28.1544 81.1152 28.6053 80.9755C29.0683 80.8241 29.507 80.6339 29.9253 80.3972Z" fill="#48A9AA"/>
<mask id="mask1_118_22" style="mask-type:luminance" maskUnits="userSpaceOnUse" x="11" y="70" width="37" height="56">
<path d="M11.6926 70.542H47.488V125.194H11.6926V70.542Z" fill="white"/>
</mask>
<g mask="url(#mask1_118_22)">
<path d="M41.7937 78.2507L42.2324 77.8626L42.6386 77.4356C42.9026 77.1484 43.1869 76.8767 43.4306 76.5778C43.9302 75.9878 44.3891 75.3668 44.7994 74.7186C45.2177 74.0742 45.5914 73.4027 45.9245 72.7157C46.1072 72.3819 46.2494 72.0248 46.3834 71.6754L46.818 70.6352C46.1032 71.9588 45.2746 73.2125 44.3323 74.4003C43.8693 74.9864 43.3697 75.5414 42.8417 76.0732C42.5817 76.341 42.2852 76.5778 42.009 76.8262L41.5907 77.1988L41.1358 77.5327C40.8311 77.75 40.5549 77.9984 40.2341 78.1964L39.2877 78.798C38.6419 79.159 37.992 79.5355 37.2853 79.8383C36.5745 80.141 35.8922 80.4399 35.1936 80.7272C34.4949 81.0144 33.7639 81.255 33.0287 81.4879C31.5706 81.9654 30.084 82.3962 28.5934 82.8581L26.3554 83.5568C25.9777 83.681 25.5999 83.8246 25.2181 83.9566L24.6536 84.1584C24.4667 84.2322 24.2799 84.3176 24.0971 84.3952C21.0265 85.6373 18.4108 87.4771 16.254 89.907L15.5026 90.8346C15.263 91.1452 15.0559 91.4984 14.8325 91.8283C14.7228 91.9952 14.6091 92.1582 14.5075 92.3329L14.2232 92.8569C14.0445 93.2101 13.8333 93.5517 13.683 93.9166C13.35 94.6347 13.0697 95.3721 12.8382 96.1252C12.5945 96.8743 12.4036 97.6351 12.2655 98.4036C11.6928 101.478 11.8918 104.595 12.2899 107.568C12.4848 109.07 12.7448 110.557 13.0535 112.039C13.3621 113.518 13.748 115.001 14.1867 116.449C15.0315 119.348 16.1484 122.151 17.5253 124.856C16.5465 122.027 15.7585 119.15 15.1574 116.224C14.536 113.32 14.1054 110.394 13.8617 107.44C13.6505 104.486 13.5124 101.559 14.146 98.7724C14.2923 98.0737 14.4791 97.3867 14.7025 96.7074C14.9178 96.0242 15.1777 95.3566 15.4823 94.7045C15.6204 94.3824 15.8073 94.0874 15.9819 93.7768L16.2378 93.3072C16.3272 93.1558 16.4328 92.9967 16.5302 92.8608C16.7333 92.5658 16.9242 92.263 17.1354 91.9797L17.8178 91.149C18.0493 90.8696 18.293 90.6056 18.5529 90.3533C18.7926 90.0855 19.0525 89.8332 19.3287 89.6003C19.6008 89.3635 19.8689 89.1151 20.1492 88.8861L21.0306 88.234C22.2369 87.3878 23.5244 86.6659 24.8891 86.0681C25.0597 85.9905 25.2141 85.909 25.3968 85.8352L25.9208 85.6334C26.2742 85.4975 26.6153 85.3578 26.9768 85.2258L29.1661 84.4728C30.6364 83.9838 32.1189 83.4792 33.5851 82.928C35.0758 82.3807 36.5177 81.7325 37.9067 80.9833C38.6053 80.6029 39.2836 80.1915 39.9376 79.7451L40.8921 79.0387C41.2129 78.7864 41.4972 78.5069 41.7937 78.2507Z" fill="#48A9AA"/>
</g>
<path d="M85.2249 60.5664C83.6368 59.4989 81.9187 58.6799 80.0666 58.1132C78.2307 57.5815 76.2283 57.3253 74.3762 57.7639C76.204 57.989 77.9545 58.4859 79.6198 59.2467C81.2648 59.9725 82.8245 60.8342 84.307 61.8279C85.7976 62.8215 87.2029 63.9122 88.5149 65.1078C89.8593 66.3265 91.0778 67.6463 92.1744 69.0747C91.6058 67.3008 90.696 65.7094 89.449 64.2887C88.2265 62.8603 86.8171 61.6183 85.2249 60.5664Z" fill="#48A9AA"/>
<path d="M47.6544 70.8564C48.1581 69.199 48.7592 67.5687 49.405 65.9346C48.3896 67.4057 47.5569 68.9661 46.9111 70.6157C46.5659 71.4308 46.2938 72.2692 46.0094 73.0921C45.7211 73.915 45.5058 74.7767 45.2743 75.619C45.0387 76.4652 44.8478 77.3191 44.6529 78.1653L44.0842 80.7116C43.8974 81.55 43.6577 82.3767 43.3694 83.188C43.2272 83.5917 43.0607 83.9876 42.8617 84.368C42.6789 84.7678 42.4149 85.1171 42.0778 85.4082C42.4961 85.1908 42.8332 84.8881 43.0972 84.5116C43.3694 84.1506 43.6131 83.7702 43.8243 83.3743C44.2386 82.5747 44.5757 81.7479 44.8437 80.8979C45.3839 79.2133 45.7942 77.5248 46.2491 75.8441C46.708 74.1634 47.1426 72.5215 47.6544 70.8564Z" fill="#48A9AA"/>
<path d="M46.0097 79.5471C45.7335 80.1332 45.5386 80.7426 45.4248 81.3753C45.307 82.0002 45.2461 82.6368 45.238 83.2734C45.2299 83.9138 45.2827 84.5504 45.3964 85.1792C45.4979 85.8158 45.701 86.4213 46.0097 86.9958C45.9285 86.3786 45.8919 85.7576 45.8635 85.1404C45.8351 84.5194 45.831 83.9022 45.8391 83.2811C45.8513 82.0429 45.9244 80.8164 46.0097 79.5471Z" fill="#48A9AA"/>
<path d="M53.5193 87.8303C53.4097 88.2301 53.3244 88.6338 53.2635 89.0452C53.1985 89.4566 53.1619 89.8681 53.1538 90.2834C53.1375 90.722 53.1822 91.1568 53.2756 91.5876C53.5559 91.2305 53.7712 90.8462 53.9214 90.4231C54.2301 89.6041 54.356 88.7619 54.2992 87.8963C54.2707 87.446 54.1611 87.0152 53.9742 86.6037C53.7833 86.9996 53.6331 87.4072 53.5193 87.8303Z" fill="#48A9AA"/>
<path d="M144.541 38.3098C145.744 41.3063 146.718 44.3883 147.084 47.5206C147.454 50.653 147.267 53.8281 146.052 56.6694C145.76 57.3836 145.411 58.0667 145.004 58.7266C144.814 59.0604 144.57 59.3671 144.355 59.6931L143.628 60.7101L142.892 61.7348L142.202 62.81C141.727 63.5048 141.329 64.2694 140.906 65.0186C140.086 66.5789 139.57 68.2325 139.351 69.9675L139.302 70.6312C139.286 70.8525 139.302 71.0776 139.318 71.295L139.355 71.9626L139.472 72.6147C139.517 72.8321 139.542 73.0533 139.606 73.2629L139.797 73.884C139.923 74.2954 140.078 74.703 140.252 75.095C140.951 76.6204 141.747 78.0954 142.636 79.5238C143.059 80.2303 143.473 80.9367 143.879 81.647L144.448 82.7144C144.639 83.0676 144.769 83.4403 144.96 83.8051C145.626 85.2801 146.073 86.8094 146.292 88.4009C146.385 89.2005 146.402 90 146.337 90.7996C146.284 91.6148 146.089 92.3988 145.76 93.1518C146.186 92.4338 146.483 91.6652 146.641 90.8501C146.796 90.0311 146.869 89.2043 146.852 88.3737C146.775 86.6969 146.454 85.0666 145.882 83.483C145.731 83.0909 145.597 82.6873 145.427 82.3069L144.911 81.1579C144.545 80.4166 144.176 79.6752 143.802 78.9455C143.03 77.5209 142.34 76.0654 141.735 74.571C141.166 73.1387 140.967 71.6598 141.138 70.1344C141.377 68.6128 141.877 67.1767 142.641 65.822C143.051 65.1389 143.408 64.4363 143.871 63.7726L144.521 62.7634L145.24 61.7814L145.967 60.7877C146.215 60.4267 146.491 60.0813 146.714 59.7048C147.181 58.9595 147.584 58.1871 147.921 57.3836C149.257 54.1464 149.452 50.6181 148.969 47.2916C148.717 45.6265 148.331 43.9923 147.819 42.3854C147.316 40.7978 146.706 39.253 145.995 37.7431C144.586 34.731 142.929 31.8471 141.024 29.0951C139.143 26.3586 137.092 23.7386 134.871 21.2466C136.719 23.9831 138.546 26.7312 140.167 29.5764C141.832 32.3943 143.29 35.3055 144.541 38.3098Z" fill="#48A9AA"/>
<mask id="mask2_118_22" style="mask-type:luminance" maskUnits="userSpaceOnUse" x="51" y="0" width="22" height="36">
<path d="M51.6472 0.911285H72.4429V35.7635H51.6472V0.911285Z" fill="white"/>
</mask>
<g mask="url(#mask2_118_22)">
<path d="M55.4085 25.2562C56.3995 22.0501 57.4759 18.9138 58.9705 15.9716C60.4734 13.01 62.3458 10.2813 64.5919 7.78158C65.7291 6.53173 66.9355 5.34399 68.2068 4.21446C69.4659 3.05777 70.8346 2.00976 72.1872 0.911285C70.5828 1.65266 69.0475 2.51047 67.5853 3.48474C66.115 4.46676 64.7381 5.55747 63.4506 6.75686C60.843 9.19446 58.7431 11.9892 57.159 15.1293C55.6319 18.2501 54.5393 21.5067 53.8853 24.8952C53.5198 26.5526 53.2355 28.2139 52.939 29.8675C52.6425 31.521 52.3135 33.159 51.8667 34.797C52.6993 33.291 53.3776 31.7228 53.9016 30.0926C54.4377 28.4818 54.9251 26.8593 55.4085 25.2562Z" fill="#48A9AA"/>
</g>
<path d="M40.3843 49.9232C40.6889 48.7083 41.286 47.637 42.1714 46.7171C42.3745 46.4764 42.5979 46.2513 42.8376 46.0456C43.0609 45.8243 43.3006 45.6186 43.5524 45.4245L44.3119 44.8268L45.1324 44.2329C46.2331 43.4294 47.3338 42.6298 48.4264 41.7837C49.5434 40.9258 50.5953 39.9982 51.5742 38.9967C52.5733 37.9836 53.4385 36.8774 54.1655 35.6741C55.5505 33.3064 56.5457 30.7989 57.1427 28.1479C55.7455 30.4729 54.4295 32.7902 52.8333 34.8745C51.233 36.9628 49.2956 38.659 47.1592 40.3048C46.095 41.1316 45.0024 41.9583 43.9383 42.82L43.1381 43.4721L42.338 44.198C42.074 44.4425 41.8221 44.7026 41.5906 44.9781C41.3429 45.2421 41.1154 45.5254 40.9123 45.8204C40.0066 47.0121 39.5029 48.3434 39.4055 49.8106C39.3689 50.5171 39.4704 51.2041 39.7101 51.8679C39.9497 52.5355 40.3112 53.1371 40.7905 53.6728C40.2218 52.4656 40.0878 51.2158 40.3843 49.9232Z" fill="#48A9AA"/>
<mask id="mask3_118_22" style="mask-type:luminance" maskUnits="userSpaceOnUse" x="146" y="127" width="13" height="17">
<path d="M146.268 127.181H158.302V143.08H146.268V127.181Z" fill="white"/>
</mask>
<g mask="url(#mask3_118_22)">
<path d="M148.177 132.755C147.755 131.063 147.45 129.32 147.048 127.561C146.784 129.355 146.743 131.152 146.93 132.953C147.101 134.808 147.6 136.582 148.429 138.271C148.863 139.136 149.428 139.924 150.118 140.627C150.809 141.341 151.621 141.892 152.555 142.284C153.486 142.676 154.46 142.87 155.48 142.874C156.442 142.878 157.385 142.742 158.303 142.459C156.422 142.369 154.611 142.071 153.157 141.224C151.686 140.32 150.594 139.105 149.883 137.576C149.123 136.031 148.559 134.424 148.177 132.755Z" fill="#48A9AA"/>
</g>
<path d="M150.492 143.491C149.367 143.165 148.323 142.684 147.356 142.043C146.353 141.399 145.415 140.623 144.35 139.878C144.883 141.038 145.618 142.071 146.556 142.971C147.539 143.922 148.705 144.59 150.045 144.97C151.41 145.339 152.774 145.343 154.143 144.99C155.439 144.636 156.588 144.031 157.6 143.177C156.385 143.452 155.159 143.658 153.92 143.794C152.758 143.887 151.617 143.786 150.492 143.491Z" fill="#48A9AA"/>
<path d="M86.1305 135.849C84.6927 134.51 83.2467 133.182 81.8454 131.827C80.4442 130.473 79.0795 129.072 77.7716 127.538C78.3443 129.452 79.4247 131.206 80.6391 132.802C81.8739 134.385 83.2386 135.86 84.7292 137.23C86.1955 138.589 87.7349 139.87 89.3473 141.073C90.9679 142.28 92.5885 143.398 94.3026 144.524C93.1612 142.882 91.8656 141.357 90.4155 139.955C89.0143 138.554 87.5724 137.203 86.1305 135.849Z" fill="#48A9AA"/>
<path d="M137.101 141.093C136.02 139.334 134.709 137.747 133.165 136.338L131.979 135.309L130.716 134.362C129.875 133.772 129.018 133.205 128.149 132.646C127.276 132.088 126.374 131.56 125.415 131.078C124.441 130.562 123.413 130.162 122.337 129.879C122.061 129.809 121.76 129.77 121.472 129.72C121.183 129.665 120.866 129.677 120.566 129.658C120.265 129.638 119.948 129.685 119.644 129.724C119.335 129.77 119.035 129.84 118.738 129.933C117.633 130.314 116.65 130.884 115.789 131.649C114.205 132.976 112.731 134.405 111.362 135.938C108.629 138.935 106.086 142.044 103.633 145.246C106.703 142.579 109.587 139.726 112.503 136.963C113.974 135.596 115.44 134.25 117.012 133.05C117.694 132.468 118.47 132.033 119.335 131.742C120.172 131.505 121.013 131.505 121.849 131.742C122.775 131.983 123.657 132.324 124.502 132.763C125.383 133.178 126.248 133.695 127.121 134.184L128.417 134.96L129.713 135.756L130.939 136.575L132.125 137.452C133.673 138.69 135.058 140.08 136.28 141.621C136.906 142.389 137.479 143.193 138.003 144.031C138.137 144.237 138.267 144.45 138.392 144.664C138.514 144.877 138.64 145.095 138.758 145.312C139.002 145.743 139.221 146.189 139.428 146.647C139.217 145.665 138.908 144.714 138.502 143.79C138.104 142.859 137.637 141.958 137.101 141.093Z" fill="#48A9AA"/>
<mask id="mask4_118_22" style="mask-type:luminance" maskUnits="userSpaceOnUse" x="20" y="130" width="16" height="20">
<path d="M20.4534 130.162H35.0104V149.962H20.4534V130.162Z" fill="white"/>
</mask>
<g mask="url(#mask4_118_22)">
<path d="M27.9025 139.893C26.6718 138.344 25.4045 136.823 24.1495 135.313C23.5199 134.556 22.8904 133.799 22.2852 133.027L21.8262 132.445C21.6719 132.254 21.546 132.045 21.3957 131.851C21.0708 131.459 20.8555 131.036 20.5712 130.612C20.6321 131.113 20.7377 131.602 20.8961 132.084C21.0464 132.565 21.2251 133.034 21.4322 133.496C21.8465 134.412 22.3136 135.301 22.8416 136.159C23.8895 137.855 25.0431 139.486 26.294 141.054C27.5288 142.614 28.8326 144.116 30.1811 145.591C31.5295 147.062 32.8861 148.491 34.2955 149.954C33.5522 148.099 32.6018 146.344 31.4483 144.691C30.3273 143.026 29.1291 141.442 27.9025 139.893Z" fill="#48A9AA"/>
</g>
</svg>
