<svg width="19" height="19" viewBox="0 0 19 19" fill="none" xmlns="http://www.w3.org/2000/svg">
<path d="M0 18.2278L1.28126 13.5471C0.490632 12.177 0.0751897 10.6238 0.0759492 9.03114C0.0782277 4.0519 4.13012 0 9.10859 0C11.5245 0.000759494 13.7924 0.941772 15.4982 2.64911C17.2033 4.35646 18.142 6.62582 18.1412 9.03949C18.1389 14.0195 14.0871 18.0714 9.10859 18.0714C7.5972 18.0706 6.10783 17.6916 4.7886 16.9716L0 18.2278ZM5.01037 15.3365C6.28328 16.0922 7.49846 16.5448 9.10555 16.5456C13.2433 16.5456 16.6139 13.178 16.6162 9.03797C16.6177 4.88962 13.263 1.52658 9.11162 1.52506C4.97087 1.52506 1.60253 4.89266 1.60101 9.0319C1.60025 10.7218 2.09544 11.9871 2.92708 13.3109L2.16835 16.0815L5.01037 15.3365ZM13.6587 11.1866C13.6025 11.0924 13.4521 11.0362 13.2258 10.923C13.0002 10.8099 11.8906 10.2638 11.6833 10.1886C11.4767 10.1134 11.3263 10.0754 11.1752 10.3018C11.0248 10.5273 10.5919 11.0362 10.4605 11.1866C10.3291 11.337 10.1969 11.3559 9.97137 11.2428C9.7458 11.1296 9.01821 10.8919 8.15618 10.1225C7.48555 9.52405 7.03214 8.78506 6.90074 8.55873C6.76935 8.33316 6.88707 8.21089 6.99948 8.09848C7.10125 7.99747 7.22505 7.83494 7.33821 7.70278C7.45289 7.57215 7.49011 7.47797 7.56606 7.32684C7.64125 7.17646 7.60403 7.0443 7.54707 6.93114C7.49011 6.81873 7.03897 5.70759 6.85138 5.2557C6.66758 4.81595 6.4815 4.87519 6.34328 4.86835L5.91037 4.86076C5.75999 4.86076 5.51543 4.91696 5.30885 5.14329C5.10227 5.36962 4.51898 5.91494 4.51898 7.02608C4.51898 8.13722 5.32784 9.21038 5.44024 9.36076C5.5534 9.51114 7.03138 11.7911 9.29542 12.7686C9.8339 13.001 10.2547 13.14 10.582 13.2441C11.1228 13.4157 11.6149 13.3914 12.0038 13.3337C12.4374 13.2691 13.339 12.7876 13.5273 12.2605C13.7157 11.7327 13.7157 11.2808 13.6587 11.1866Z" fill="white"/>
</svg>
